<?xml version="1.0" encoding="utf-8"?>
<!-- Generator: Adobe Illustrator 22.1.0, SVG Export Plug-In . SVG Version: 6.00 Build 0)  -->
<svg version="1.1" id="Layer_1" xmlns="http://www.w3.org/2000/svg" xmlns:xlink="http://www.w3.org/1999/xlink" x="0px" y="0px"
	 viewBox="0 0 90.5 60" style="enable-background:new 0 0 90.5 60;" xml:space="preserve">
<style type="text/css">
	.st0{fill:#035066;}
	.st1{fill:#0CAEBE;}
</style>
<path class="st0" d="M89.3,43.8c0,0-0.1-0.1-0.2-0.2c-2.4-2.8-7.4-7.9-13.9-10.6c2-4.9,2.9-11.1,2.4-17.5c0-0.1,0-0.2,0-0.3l-0.3-2
	l-2.2-0.3c-0.4-0.1-1.6-0.2-3.4-0.2c-3.6,0-9,0.4-14.1,2.5C54.3,7.6,47.7,1.8,46.9,1.3L45.3,0l-1.5,1.3C43.7,1.4,36.6,7,33,15.3
	c-5-2.1-10.4-2.5-14.1-2.5c-2.1,0-3.5,0.2-3.6,0.2l-2,0.3L13,15.4v0.2c-0.3,3.8-0.3,10.9,2.4,17.6C7,36.6,1.3,43.9,1.3,44L0,45.6
	l1.3,1.5c0.1,0.1,9.9,12.9,23,12.9c9.6,0,17.6-7.1,21-10.5C48.7,53,56.7,60,66.3,60c12.6,0,22.5-12.2,22.9-12.7l1.3-1.5L89.3,43.8z
	 M66.4,56.8c-9.3,0-17.2-7.9-19.7-10.6c3.6,0,15.8-0.5,22.2-7c1.2-1.2,2.1-2.4,2.9-3.9c7.5,2.3,13.4,8.8,14.8,10.4
	C84.9,47.6,76.4,56.8,66.4,56.8z M3.9,45.6c1.4-1.6,7.3-8,14.8-10.4c0.7,1.3,1.7,2.6,3,4c6.3,6.3,17.4,7,21.9,7c0.1,0,0.2,0,0.3,0
	C41.4,49,33.4,56.8,24.2,56.8C14.1,56.8,5.6,47.6,3.9,45.6z M24.3,33.2c-1.7,0-3.4,0.2-5.1,0.7c-3.7-7-3.3-15.8-3.2-17.8
	c0.5,0,1.5-0.1,2.8-0.1c3.3,0,9.7,0.4,15,3.3c-0.4,1.5-0.8,3.3-0.8,5.1c0,5.2,2.3,9.9,4.9,13.7C34.2,35.5,29.5,33.2,24.3,33.2z
	 M71.4,34c-1.8-0.5-3.5-0.7-5.2-0.7c-5.1,0-9.8,2.2-13.5,4.8c2.6-3.8,4.9-8.5,4.9-13.6c0-1.8-0.3-3.5-0.7-5.1
	c5.3-2.8,11.6-3.2,14.9-3.2c1.3,0,2.2,0.1,2.8,0.1C74.7,18.3,75.1,27,71.4,34z M45.4,34.6c-0.8-4.4-2.6-9.2-6.2-12.9
	c-1.2-1.2-2.7-2.3-4.2-3.2c2.6-7.2,8.8-12.9,10.4-14.2c1.5,1.3,7.7,6.9,10.2,14.2c-1.4,0.8-2.7,1.8-4.1,3.1
	C47.8,25.4,46.1,30.4,45.4,34.6z"/>
<path class="st1" d="M24.3,33.2c-1.7,0-3.4,0.2-5.1,0.7c-3.7-7-3.3-15.8-3.2-17.8c0.5,0,1.5-0.1,2.8-0.1c3.3,0,9.7,0.4,15,3.3
	c-0.4,1.5-0.8,3.3-0.8,5.1c0,5.2,2.3,9.9,4.9,13.7C34.2,35.5,29.5,33.2,24.3,33.2z M71.4,34c-1.8-0.5-3.5-0.7-5.2-0.7
	c-5.1,0-9.8,2.2-13.5,4.8c2.6-3.8,4.9-8.5,4.9-13.6c0-1.8-0.3-3.5-0.7-5.1c5.3-2.8,11.6-3.2,14.9-3.2c1.3,0,2.2,0.1,2.8,0.1
	C74.7,18.3,75.1,27,71.4,34z M45.4,34.6c-0.8-4.4-2.6-9.2-6.2-12.9c-1.2-1.2-2.7-2.3-4.2-3.2c2.6-7.2,8.8-12.9,10.4-14.2
	c1.5,1.3,7.7,6.9,10.2,14.2c-1.4,0.8-2.7,1.8-4.1,3.1C47.8,25.4,46.1,30.4,45.4,34.6z"/>
</svg>
