<?xml version="1.0" encoding="utf-8"?>
<!-- Generator: Adobe Illustrator 22.1.0, SVG Export Plug-In . SVG Version: 6.00 Build 0)  -->
<svg version="1.1" id="Layer_1" xmlns="http://www.w3.org/2000/svg" xmlns:xlink="http://www.w3.org/1999/xlink" x="0px" y="0px"
	 viewBox="0 0 97 97.7" style="enable-background:new 0 0 97 97.7;" xml:space="preserve">
<style type="text/css">
	.st0{fill:#035066;}
	.st1{fill:#0CAEBE;}
</style>
<path class="st0" d="M50.8,97.7c-0.8,0-1.4,0-1.8,0c-0.8-0.1-1.4-0.7-1.4-1.5c-0.1-3.6-0.2-6.6-0.2-9.3c0-0.3,0-0.6,0-1
	c0-0.3,0-0.8,0-1.2v-2.1l-1.3,1.7c-2.8,3.8-7.4,8.8-9.9,10.5C36,95,35.7,95,35.4,95c-0.2,0-0.5-0.1-0.7-0.2c-0.1,0-0.2-0.1-0.2-0.2
	h-0.1h-0.1c-0.6-0.3-2.1-0.9-3.4-1.4c-0.9-0.3-1.6-0.6-1.8-0.7l-0.7-0.3c-13.5-6.1-15.9-8.3-15.6-10.4c1.7-15.3,0.7-29.8-2.9-40.9
	c-0.6-1.8-1.6-3.4-2.6-5c-0.7-1.1-1.4-2.2-1.9-3.3c-2-3.9-3.4-8-4.3-12.1c-0.5-2.4-0.9-4.9-1-7.4C0,11.8,0,10.5,0.5,9.2
	c0.6-1.7,1.8-2.7,3.4-2.9c0.2,0,0.4,0,0.6,0c1.6,0,2.9,0.8,3.6,2.1c1.3,2.4,2.4,4.9,3.4,7.3l0.6,1.5c1.9,4.6,4.3,9.3,8.7,12.6
	c2.5,1.8,5.3,3.3,8.7,4.5l0.4,0.1l0.3-0.2c3.4-2.6,8.4-4.2,11.9-4.9c2.6-0.5,5.3-1,7.9-1.4c6.5-1.1,13.1-2.2,19.3-4.6
	c4.4-1.7,8.4-4.3,11.9-7.5c0.9-0.9,1.8-1.8,2.7-2.8c0.5-0.5,1-1.1,1.5-1.6l0.3-0.3c0.5-0.5,1-1,1.6-1.5c1.6-1.2,3.1-1.8,4.5-1.8
	c0.9,0,1.8,0.3,2.6,0.7c1.7,1.1,2.7,3.8,2.6,5.8c-0.2,2.3-1.5,4.2-2.6,5.8c-2.4,3.5-5.1,6.7-8.3,9.5c-1.5,1.3-3,2.7-4.5,4l-1.1,1
	c-1.2,1-2.4,2-3.3,3.7c-0.3,0.6-0.9,3-0.9,4.6c0,0.8,0,2.6,0,4.7v0.2c0.1,6.8,0.2,13.3-0.2,17.1v0.5l0.4,0.2
	c0.9,0.5,1.5,1.4,1.6,2.6c0.2,3.2-2.5,5.8-4.6,7.7l-0.7,0.6c-1.3,1.3-2.9,2.3-4.6,3.4c-0.3,0.2-0.5,0.3-0.7,0.4l-0.3,0.2l-0.1,0.4
	c0,0.1,0,0.2,0,0.3c0.1,2.5,0,5.6-0.1,8.6c0,1.9-0.1,3.7-0.1,5.2c0,0.7-0.5,1.4-1.3,1.5C62.2,97.4,54.2,97.7,50.8,97.7z M39,73.6
	c0.1,0.3,0.4,0.6,0.6,0.8c2.6,2.6,5.6,4.7,8.8,6c2.2,0.9,2.2,3.4,2.1,5.6v0.1c0,0.3,0,0.5,0,0.7c0,2.2,0.1,4.5,0.1,7.1v0.7h0.7
	c3.2,0,8.4-0.2,11.6-0.5l0.6-0.1v-0.6c0-0.7,0-1.5,0-2.3v-1c0.1-2.8,0.1-6.1,0.1-8.5c0-2.2,0.6-2.9,2-3.7c0.2-0.1,0.4-0.2,0.6-0.3
	c1.9-1.2,3.1-2.1,4.2-3.1c0.2-0.2,0.7-0.6,0.7-0.6c1.2-1.1,2.9-2.6,3.4-4.1l0.6-1.5l-1.5,0.5c-1,0.4-3,1.4-6.3,3.9l-0.2,0.1
	c-1.8,1.3-3.8,2.4-5.8,3c-1.9,0.6-3.9,0.9-6,0.9c-5.6,0-11.2-2.2-15.4-4.1L38,71.7L39,73.6z M4.1,9.3c-0.6,0-0.8,0.6-0.9,0.9
	c-0.3,0.7-0.3,1.6-0.2,2.7c0.1,2.3,0.5,4.6,0.9,6.9c0.8,3.9,2.2,7.7,4.1,11.3c0.5,1,1.2,2.1,1.8,3c1.1,1.8,2.3,3.6,3,5.7
	c4.9,15.2,4,32.5,3.1,41.5v0.3l0.3,0.2c1,1,4.1,3,13.5,7.2l0.7,0.3c0.2,0.1,0.7,0.3,1.3,0.5l0.3,0.1c1.2,0.5,2.2,0.8,2.9,1.1
	l0.4,0.2l0.3-0.3c2.4-2,6-6.1,8-8.8l0.5-0.6l-0.7-0.4c-2.2-1.3-4.2-2.9-6-4.7c-1-1-1.7-2.3-1.8-3.7v-0.3c-0.1-1-0.2-2.4,1.1-3.2
	l0.5-0.3L37,68.4c-3.1-6.9-5.2-17.2-4.6-20.1c0.2-0.7,0.5-1.2,1-1.5c0.9-0.5,2.2-0.6,4.9-0.7c2.9-0.1,7.2-0.3,9.3-1.7
	c0.6-0.5,0.7-1.7,0.7-2.2c0-0.4-0.1-0.6-0.1-0.8c-0.4-0.6-1.1-0.7-2.4-0.8h-0.2c-2-0.2-4.2-0.5-6.9-1c-6.3-1.2-13.6-3-19.9-7.6
	c-5-3.7-7.6-8.9-9.7-13.9l-0.6-1.5c-1-2.4-2-4.8-3.2-7C5.2,9.4,5.1,9.3,5,9.2l0,0C4.9,9.1,4.8,9.1,4.7,9.1s-0.1,0-0.3,0
	C4.2,9.3,4.2,9.3,4.1,9.3z M47.9,47.9c-2.8,1.2-6.6,1.4-9.6,1.5c-0.8,0-1.7,0.1-2.4,0.1l-0.7,0.1v0.7c0.1,3.6,2.5,14.1,5.5,19.2
	l0.1,0.2l0.2,0.1c4,1.8,9.2,3.8,14.2,3.8c1.8,0,3.5-0.3,5.1-0.8s3.4-1.4,4.9-2.6l0.2-0.1c2.8-2.1,5-3.5,6.8-4.2l0.4-0.2l0.1-0.4
	C73.2,61.8,73,52.8,73,48c0-2.4-0.1-4.3,0-5.2c0.1-2.1,0.8-5.1,1.3-6c1.2-2.2,2.7-3.6,4-4.6l0.8-0.7c1.6-1.4,3.2-2.8,4.8-4.3
	c3-2.7,5.5-5.6,7.7-8.9c1-1.5,2-3,2.1-4.4c0.1-0.8-0.5-2.4-1.1-2.8c-0.2-0.1-0.5-0.3-1-0.3c-0.7,0-1.6,0.4-2.6,1.2
	c-0.4,0.3-0.8,0.7-1.2,1.2l-0.3,0.3c-0.5,0.5-0.9,1-1.4,1.5c-1,1-1.9,2-3,3c-3.8,3.6-8.2,6.3-12.9,8.2c-6.4,2.5-13.3,3.7-19.9,4.8
	c-2.6,0.4-5.2,0.9-7.8,1.4c-2.4,0.5-5,1.3-7.2,2.4l-1.9,0.9l2,0.5c1.2,0.3,2.4,0.5,3.8,0.8c2.6,0.5,4.7,0.8,6.6,0.9h0.1
	c1.6,0.1,3.7,0.3,4.9,2.3c0.3,0.6,0.5,1.4,0.6,2.3c0.4,2.7,0.8,6.5,1.2,11.1l0.1,0.7l0.7-0.1c0.5-0.1,1-0.1,1.4-0.1
	c4.4,0,8,3.6,8,8.1c0,4.3-3.4,7.8-7.9,8.1c-0.2,0-0.4,0-0.7,0c-2.2,0-4.1-0.9-5.6-2.4c-1.6-1.7-2.4-4.1-2.3-6.5
	c0.2-2.5,1.2-4.5,2.9-5.8l0.3-0.2V55c-0.1-1.5-0.4-3.9-0.7-6.4l-0.1-1L47.9,47.9z M54.8,57.1c-5,0-5.2,3.4-5.3,4.5
	c-0.1,1.5,0.5,3.1,1.4,4.2c0.9,0.9,2,1.4,3.3,1.4c0.1,0,0.3,0,0.4,0c2.5-0.2,5-2,5-5C59.6,59.3,57.4,57.1,54.8,57.1z M28.8,27.1
	c-5.6,0-10.2-4.6-10.2-10.2S23.2,6.7,28.8,6.7c5.6,0,10.2,4.6,10.2,10.2C39,22.6,34.4,27.1,28.8,27.1z M28.8,9.8
	c-3.9,0-7.1,3.2-7.1,7.1s3.2,7.1,7.1,7.1c3.9,0,7.1-3.2,7.1-7.1S32.7,9.8,28.8,9.8z M57.8,22.3c-5.6,0-10.2-4.5-10.9-10.7
	c-0.3-3,0.6-6,2.6-8.2C51.4,1.2,54.2,0,57.1,0c6.1,0,11.6,5.5,11.6,11.5C68.7,17.4,63.8,22.3,57.8,22.3z M57,3c-2,0-3.9,0.8-5.2,2.4
	C50.4,7,49.7,9.1,50,11.2c0.4,3.8,3.1,8,7.8,8c4.3,0,7.8-3.5,7.8-7.8C65.6,7.2,61.3,3,57,3z"/>
<path class="st1" d="M47.9,47.9c-2.8,1.2-6.6,1.4-9.6,1.5c-0.8,0-1.7,0.1-2.4,0.1l-0.7,0.1v0.7c0.1,3.6,2.5,14.1,5.5,19.2l0.1,0.2
	l0.2,0.1c4,1.8,9.2,3.8,14.2,3.8c1.8,0,3.5-0.3,5.1-0.8s3.4-1.4,4.9-2.6l0.2-0.1c2.8-2.1,5-3.5,6.8-4.2l0.4-0.2l0.1-0.4
	C73.2,61.8,73,52.8,73,48c0-2.4-0.1-4.3,0-5.2c0.1-2.1,0.8-5.1,1.3-6c1.2-2.2,2.7-3.6,4-4.6l0.8-0.7c1.6-1.4,3.2-2.8,4.8-4.3
	c3-2.7,5.5-5.6,7.7-8.9c1-1.5,2-3,2.1-4.4c0.1-0.8-0.5-2.4-1.1-2.8c-0.2-0.1-0.5-0.3-1-0.3c-0.7,0-1.6,0.4-2.6,1.2
	c-0.4,0.3-0.8,0.7-1.2,1.2l-0.3,0.3c-0.5,0.5-0.9,1-1.4,1.5c-1,1-1.9,2-3,3c-3.8,3.6-8.2,6.3-12.9,8.2c-6.4,2.5-13.3,3.7-19.9,4.8
	c-2.6,0.4-5.2,0.9-7.8,1.4c-2.4,0.5-5,1.3-7.2,2.4l-1.9,0.9l2,0.5c1.2,0.3,2.4,0.5,3.8,0.8c2.6,0.5,4.7,0.8,6.6,0.9h0.1
	c1.6,0.1,3.7,0.3,4.9,2.3c0.3,0.6,0.5,1.4,0.6,2.3c0.4,2.7,0.8,6.5,1.2,11.1l0.1,0.7l0.7-0.1c0.5-0.1,1-0.1,1.4-0.1
	c4.4,0,8,3.6,8,8.1c0,4.3-3.4,7.8-7.9,8.1c-0.2,0-0.4,0-0.7,0c-2.2,0-4.1-0.9-5.6-2.4c-1.6-1.7-2.4-4.1-2.3-6.5
	c0.2-2.5,1.2-4.5,2.9-5.8l0.3-0.2V55c-0.1-1.5-0.4-3.9-0.7-6.4l-0.1-1L47.9,47.9z"/>
</svg>
