<?xml version="1.0" encoding="utf-8"?>
<!-- Generator: Adobe Illustrator 22.1.0, SVG Export Plug-In . SVG Version: 6.00 Build 0)  -->
<svg version="1.1" id="BACKGROUND_2" xmlns="http://www.w3.org/2000/svg" xmlns:xlink="http://www.w3.org/1999/xlink" x="0px"
	 y="0px" viewBox="0 0 750 500" enable-background="new 0 0 750 500" xml:space="preserve">
<path fill-rule="evenodd" clip-rule="evenodd" fill="#4F4F4F" d="M510.2,493c-0.2,0-0.5,0-0.7,0l-0.1,0l-0.1,0c-0.2,0-0.3,0-0.5,0
	c-1.4,0-2.7-0.8-4.1-1.5c-0.4-0.2-0.8-0.5-1.3-0.7c0.9-1.1,1.6-1.2,2-1.2c0.4,0,0.8,0.1,1.3,0.4c1.5,0.8,2.9,1.1,4.4,1.1
	c0.3,0,0.5,0,0.8,0c0.1,0,0.1,0,0.2,0c0.3,0,0.7,0.1,1,0.1c0.2,0,0.4,0.1,0.6,0.1c0.1,0,0.2,0,0.3,0c-0.1,0.1-0.2,0.2-0.3,0.3
	C512.9,492.5,511.7,493,510.2,493L510.2,493z"/>
<path fill-rule="evenodd" clip-rule="evenodd" fill="#4F4F4F" d="M97,56.6c-0.5,0-0.9-0.3-1-0.5c-0.1-0.1-0.1-0.6,0.1-1
	c0.1-0.3,0.3-0.5,0.5-0.6c1.7-0.7,3.9-1.4,6.3-1.4c0.6,0,1.1,0,1.7,0.1c0.1,0,0.3,0,0.3,0.5l0,0.2c0,0.3-0.1,0.6-0.1,0.9
	c-0.2,0.7-0.2,0.7-0.7,0.8c-2.3,0.1-4.5,0.5-6.7,1C97.2,56.6,97.1,56.6,97,56.6z"/>
<path fill-rule="evenodd" clip-rule="evenodd" fill="#4F4F4F" d="M233.7,472.4c-0.1,0-0.3,0-0.4,0c-0.8-0.1-1.5-0.2-2.3-0.3
	c-0.8-0.1-1.6-0.2-2.4-0.3c-0.1-0.1-0.1-0.1-0.2-0.2l-0.2-0.2l-0.3,0c-0.3,0-0.5-0.1-0.7-0.3l-0.3-0.4l-0.5,0.1c-0.1,0-0.1,0-0.1,0
	c-0.1,0-0.1,0-0.2-0.1l-0.3-0.2l-0.2,0l-0.1-0.2l-0.4-0.1c-0.1,0-0.3-0.1-0.5-0.1c-0.3-0.1-0.5-0.1-0.8-0.2
	c-0.2-0.1-0.5-0.2-0.4-0.3c0-0.1,0-0.2,0.5-0.2l0.2,0l0.2-0.1c0.5-0.4,1-0.6,1.6-0.6c0.3,0,0.6,0,0.9,0.1c1.8,0.5,3.6,0.9,5.4,1.4
	c1.3,0.3,2.6,0.6,3.9,1c0,0,0,0-0.1,0.1C235.4,472,234.6,472.4,233.7,472.4L233.7,472.4z"/>
<path fill-rule="evenodd" clip-rule="evenodd" fill="#4F4F4F" d="M90.3,100.4c-0.7,0-1.3-0.2-1.9-0.6c-0.1-0.1-0.2-0.2-0.2-0.3
	c0-0.1,0-0.3,0.1-0.4l0.1-0.1c0.1-0.1,0.2-0.2,0.2-0.2c0.5-0.1,1.2-0.3,1.8-0.5c1.4-0.4,2.7-0.8,4.1-0.9l0.2,0
	c0.9,0,1.8,0.3,2.6,1.1c0.1,0.1,0.1,0.2,0.1,0.3c0,0.1-0.1,0.3-0.3,0.4L97,99.3c-0.1,0-0.1,0-0.2,0.1c-1.9,0-3.8,0.5-5.6,1l-0.2,0
	c-0.2,0-0.3,0.1-0.4,0.1l-0.1,0C90.5,100.4,90.4,100.4,90.3,100.4z"/>
<path fill-rule="evenodd" clip-rule="evenodd" fill="#4F4F4F" d="M68.9,211.1c-0.2,0-0.5,0-0.7-0.1c-0.4-0.1-0.9-0.2-1.1-0.4
	c-0.2-0.2-0.5-0.4-0.7-0.6c-0.5-0.4-1.1-0.8-1.4-1.3l-0.1-0.1l-1.8-1.7c-0.1-0.2-0.3-0.3-0.4-0.5v0l0,0c-0.1-0.1-0.2-0.2-0.3-0.2
	l0,0c-0.2-0.1-0.2-0.2-0.2-0.3l0.1-0.3c0.2-0.2,0.5-0.2,0.8-0.2c0.5,0,1,0.2,1.6,0.4l0.2,0.1l0.1,0c0.1,0,0.2,0,0.3,0l0.6,0.6
	c1.1,1,2.3,2,3.4,3.1c0.7,0.7,0.5,1.1,0.4,1.3C69.5,211,69.3,211.1,68.9,211.1L68.9,211.1z"/>
<path fill-rule="evenodd" clip-rule="evenodd" fill="#4F4F4F" d="M89,342.6c-0.3,0-0.5-0.1-0.7-0.2c-0.4-0.2-0.8-0.5-1.2-0.7
	c-0.8-0.4-1.5-0.8-2-1.4l-0.2-0.2l-0.1,0l0-0.1l-0.2-0.2l-0.2-0.2c0.1-0.2,0.1-0.4,0.2-0.5l0.4-2.1c1.2,1.2,2.5,2.3,4.1,3.2
	c0.4,0.2,0.8,0.6,1.2,0.9c0.3,0.3,0.4,0.5,0.4,0.7c0,0.1-0.2,0.4-0.7,0.6C89.7,342.5,89.3,342.6,89,342.6L89,342.6z M83.1,338.4
	c-0.3-0.3-0.6-0.6-0.6-1l0-0.2l-0.1-0.1c-0.4-0.4-0.2-0.5,0-0.7l0.2-0.2l0.1-0.3c0.1-0.3,0.2-0.5,0.5-0.6l0,0.1l0.6,0l0,0l0.3,0.3
	c0.3,0.4,0.7,0.7,1.1,1.1l-1.7,1.4C83.2,338.3,83.1,338.3,83.1,338.4z"/>
<path fill-rule="evenodd" clip-rule="evenodd" fill="#4F4F4F" d="M647.6,377.1c-0.4,0-0.7-0.1-1-0.2c-0.1-0.2-0.3-0.3-0.4-0.4
	l-0.2,0.2c-0.2,0-0.5,0-0.7,0c-0.7,0-1.4,0-2-0.3l-0.2-0.1l-0.2,0c-1,0-1.7-0.4-1.9-2.1c0-0.1,0.1-0.4,0.2-0.4
	c0.9,0.2,1.8,0.2,2.6,0.3c1.5,0.1,2.9,0.2,4.2,0.8c0.4,0.2,1,1.4,0.9,1.9c0,0.1-0.1,0.1-0.2,0.1C648.4,377,648,377.1,647.6,377.1
	L647.6,377.1z"/>
<path fill-rule="evenodd" clip-rule="evenodd" fill="#4F4F4F" d="M481.1,15.9c-0.1,0.1-0.2,0.2-0.8,0.2l-0.1,0c-2.7,0-5.4,0-8-0.1
	l-0.2,0c-0.5,0-1,0-1.3-0.2c-0.1-0.1-0.2-0.2-0.2-0.3c0-0.1,0-0.1,0.1-0.2c0.4-0.3,0.7-0.4,1.1-0.4l2.6,0c1.2,0,2.4,0,3.6,0
	c0.8,0,1.6,0,2.4,0c0.3,0,0.7,0.1,1,0.3c0.1,0,0.1,0.1,0.1,0.1C481.4,15.3,481.4,15.5,481.1,15.9l1.1-0.1l-0.8,0.7L481.1,15.9z"/>
<path fill-rule="evenodd" clip-rule="evenodd" fill="#4F4F4F" d="M292,24.5c-0.1,0-0.2-0.1-0.3-0.2c-1-1.6-2.3-2.9-3.6-4.2l-0.6-0.6
	c-0.2-0.2-0.3-0.5-0.3-0.9c0-0.5,0.3-1,0.6-1.4c1.1,0.1,1.9,0.9,2.9,2l0.1,0.2l0.2,0.1c1.1,0.4,1.3,1.3,1.7,2.7
	c0.1,0.4,0.2,0.7,0.3,1.1c0,0.1-0.2,0.5-0.4,0.8l-0.1,0.2C292.4,24.4,292.2,24.5,292,24.5L292,24.5z"/>
<path fill-rule="evenodd" clip-rule="evenodd" fill="#4F4F4F" d="M273.6,459.3c-0.1,0-0.2,0-0.4-0.3c-0.8-1.4-1.2-2.6-0.5-3.9
	c0.2-0.4,0.4-0.9,0.6-1.3c0.2-0.4,0.3-0.7,0.5-1.1c0.1-0.3,0.4-0.6,1.1-0.7c0.1,0,0.3,0.1,0.4,0.2c0.4,0.9,0.5,1.5,0.3,2.1
	c-0.4,1-0.7,2-1,3c-0.1,0.5-0.3,1-0.4,1.4c-0.1,0.3-0.3,0.4-0.3,0.4C273.7,459.3,273.6,459.3,273.6,459.3z"/>
<path fill-rule="evenodd" clip-rule="evenodd" fill="#4F4F4F" d="M259.5,9.8c-1.7,0-3.3,0-5-0.1l-2.3,0l-0.1,0c-0.1,0-0.2,0-0.2,0
	c-0.1,0-0.2,0-0.4-0.4c-0.1-0.2-0.1-0.2,0-0.3l0.1,0l0.2-0.1c1.1-0.8,2.4-0.9,3.8-0.9c0.3,0,0.7,0,1,0c0.8,0,1.7,0,2.5,0.1
	c0.5,0,1.1,0,1.6,0c0.5,0,0.9,0.2,1.4,0.5c0.1,0.1,0.1,0.2,0.1,0.3c0,0.1,0,0.2-0.1,0.2C261.2,9.5,260.4,9.8,259.5,9.8L259.5,9.8z"
	/>
<path fill-rule="evenodd" clip-rule="evenodd" fill="#4F4F4F" d="M639.9,171.3c-0.5,0-0.6,0-0.8-1.1c-0.2-1.6-0.4-3.1-0.6-4.7
	l-0.1-0.7c-0.1-0.7,0-1.2,0.3-1.6l0.1-0.1l0.2-0.1c0.1,0,0.1-0.1,0.2-0.1c0.1,0,0.2,0,0.3,0l0.1,0l0.1,0c0.9,0,1.1,0.1,1.2,0.1
	c0,0,0.1,0.1,0.1,0.6c0.1,0.7,0.1,1.4,0.1,2.1c0,0.3,0,0.6,0,1l0,0.1l0,0.1l-1.3,1.3l1.4-0.1v1.2l0.5-0.5c0,0.4,0,0.9-0.2,1.6
	c-0.1,0.6-0.3,0.7-1,0.8C640.3,171.2,640.1,171.3,639.9,171.3z"/>
<path fill-rule="evenodd" clip-rule="evenodd" fill="#4F4F4F" d="M292.9,479.7c-0.2,0-0.7-0.1-0.7-0.5c-0.3-1.6-1.1-2.9-1.8-4.1
	c-0.2-0.3-0.4-0.7-0.6-1.1c-0.3-0.5-0.2-0.6-0.1-0.7c0.3-0.3,0.5-0.3,0.6-0.3c0.3,0,0.8,0.2,1.2,0.5l1.1,0.6c0,0.1,0.1,0.2,0.1,0.3
	l0,0.1l0,0.1c0.1,0.1,0.2,0.3,0.3,0.4c0.2,0.4,0.4,0.8,0.8,1.2c0.9,0.9,0.6,1.7,0.1,3.1C293.8,479.4,293.4,479.7,292.9,479.7
	L292.9,479.7z"/>
<path fill-rule="evenodd" clip-rule="evenodd" fill="#4F4F4F" d="M64.3,70.6c0,0-0.1-0.1-0.3-0.3c-0.1-0.1-0.1-0.2-0.1-0.3
	c2-2.4,3.9-4.5,6.7-5.3c0.3-0.1,0.5-0.1,0.7-0.1c0.2,0,0.4,0,0.6,0.1c0.1,0.1,0.2,0.2,0.2,0.2c-1,0.5-1.9,1.2-2.8,1.9
	c-0.5,0.4-0.9,0.7-1.4,1.1l-0.3,0.2l0,0.2l-0.4,0.1L67,69l-0.4,0l-0.2,0.5c-0.2,0.5-0.7,0.7-1.5,0.9C64.7,70.5,64.5,70.5,64.3,70.6z
	"/>
<path fill-rule="evenodd" clip-rule="evenodd" fill="#4F4F4F" d="M522.1,44.6c0,0-0.1-0.1-0.3-0.3c-1.1-1.5-1.9-2.8-2.7-4
	c-0.3-0.5-0.5-1-0.7-1.6c-0.2-0.5,0.3-1.6,0.6-1.7c0.1,0,0.1,0,0.2,0c0.2,0,0.5,0.3,0.7,0.6l0.1,0.1c1.2,1.4,2,2.6,2.4,3.8l0.1,0.4
	l0.4,0.1l0,0.3l0.3,0.3c0.2,0.1,0.3,0.2,0.1,0.8l-0.1,0.2l-0.1,0l-0.2,0.3C522.4,44.5,522.1,44.6,522.1,44.6z"/>
<path fill-rule="evenodd" clip-rule="evenodd" fill="#4F4F4F" d="M79.5,104.1c-0.6,0-1.2-0.1-1.8-0.3c-0.2-0.1-0.4-0.2-0.4-0.3
	c0-0.1,0-0.3,0.3-0.6c0.3-0.3,0.4-0.4,0.5-0.4l-0.6-1.4l1,1.3l0.6-0.3c1.6-0.2,3.2-0.6,4.8-1.2c0.1,0,0.1,0,0.2,0
	c0.1,0,0.3,0.1,0.5,0.2c0.3,0.1,0.4,0.3,0.4,0.4c0,0.1,0,0.1-0.1,0.2c-0.4,0.5-0.7,1-1.1,1.2C82.2,103.7,80.8,104.1,79.5,104.1
	L79.5,104.1z"/>
<path fill-rule="evenodd" clip-rule="evenodd" fill="#4F4F4F" d="M132.5,148.4c-3,0-6.1,0-9.2-0.1c-0.1,0-0.2-0.1-0.4-0.1
	c-0.1-0.1-0.2-0.1-0.4-0.2l-0.5-0.2l-0.1,0.1c0,0-0.1,0-0.1,0c0,0,0,0,0-0.1c0.3-1.4,1-1.7,1.6-1.7c1.5-0.2,3.2-0.3,4.9-0.3
	c1.3,0,2.5,0.1,3.6,0.3l0.2,0l0.2-0.1c0.2-0.1,0.4-0.1,0.6-0.1c0.6,0,1.3,0.3,2,0.7l0.2,0.1c-0.6,0.9-1,1.3-1.7,1.3c0,0-0.2,0-0.2,0
	l-0.2,0.1c-0.1,0.1-0.3,0.1-0.4,0.2C132.7,148.3,132.6,148.4,132.5,148.4z"/>
<path fill-rule="evenodd" clip-rule="evenodd" fill="#4F4F4F" d="M118.6,54.5c-1.7,0-3.3-0.3-5-0.6c-0.6-0.1-1.2-0.2-1.8-0.3
	c-0.4-0.1-0.6-0.2-0.7-0.3c-0.1-0.1-0.1-0.2,0-0.4c0-0.2,0.1-0.3,0.1-0.3c0,0,0.2-0.1,0.9-0.1c0,0,0.1,0,0.1,0l0.2,0.1l0.2,0
	c0.6-0.1,1.1-0.1,1.5-0.1c1,0,1.8,0.1,2.6,0.4c0.2,0,0.2,0.1,0.3,0.1l0.2,0.1l0.5,0l0.3-0.1c0.2-0.1,0.3-0.1,0.3-0.1
	c0,0,0.1,0,0.2,0.1l0.3,0.2l0.3,0c0.3,0,0.5-0.1,0.8-0.1c0.5,0,0.8,0.1,1,0.4l0.3,0.3l0,0.1l0.1,0l-0.2,0.3
	c-0.1,0.1-0.2,0.2-0.7,0.2l-0.3,0C119.6,54.5,119.1,54.5,118.6,54.5z"/>
<path fill-rule="evenodd" clip-rule="evenodd" fill="#4F4F4F" d="M621.2,125.9c-1.7-0.1-3.4-0.4-4.9-1.1l-0.2-0.1l-0.5,0
	c-0.6,0-1.3,0-1.9-0.4l-0.2-0.1l-1.1-0.1l-0.1,0c0,0,0,0,0,0c-0.1,0-0.2,0-0.4-0.2l-0.1-0.1l-0.1-0.1c-0.1-0.1-0.2-0.2-0.3-0.2
	c0,0,0,0,0,0c0-0.5,0-1,0.3-1.3c0.2-0.2,0.6-0.4,1.2-0.4c0.1,0,0.2,0,0.3,0c0.1,0,0.3,0.1,0.4,0.2c0.1,0.1,0.3,0.1,0.4,0.2l0.2,0.1
	l0.3-0.1c0.1,0,0.2,0,0.3,0c0.2,0,0.5,0.1,0.8,0.2l0.2,0.1l0.3-0.1c0.1,0,0.2,0,0.3,0c0.3,0,0.6,0.1,0.9,0.3l0.2,0.1l0.2,0
	c1.2,0.1,2.1,0.5,2.9,1.1l0.3,0.2l0,0l0.1,0.2l0.1,0.2l0.3,0.1c0.1,0,0.1,0.1,0.2,0.5c0.2,0.5,0.1,0.7,0.1,0.7l0,0
	C621.7,125.8,621.6,125.9,621.2,125.9L621.2,125.9z"/>
<path fill-rule="evenodd" clip-rule="evenodd" fill="#4F4F4F" d="M478.5,461.7c-0.3,0-0.6-0.1-0.7-0.3c0,0-0.1-0.1-0.1-0.1l-0.1-0.3
	c-0.9-2.3-1.7-4.4-1.6-6.7c0-0.3,0.1-0.3,0.1-0.3l0.1,0c0.2-0.1,0.3-0.1,0.5-0.2c0.1,0.1,0.1,0.2,0.2,0.4c0.7,1.4,1.2,2.8,1.6,4.4
	c0.2,0.5,0.3,1.1,0.5,1.6c0.1,0.2,0.1,0.6,0.1,0.9c0,0.5-0.1,0.6-0.2,0.6C478.8,461.7,478.7,461.7,478.5,461.7L478.5,461.7z"/>
<path fill-rule="evenodd" clip-rule="evenodd" fill="#4F4F4F" d="M595.9,455.5c-0.6,0-1.2-0.1-1.8-0.3c-0.6-0.2-1.3-0.3-1.9-0.5
	c-0.5-0.1-1-0.2-1.5-0.4c-0.2-0.1-0.3-0.1-0.3-0.2c0,0,0-0.1,0.1-0.2l0.1-0.1l0.3,0l0.2-0.3h0.3l0.1-0.2l0.2,0l0.3-0.3
	c0.2-0.2,0.4-0.3,0.6-0.3c0.3,0,0.8,0.2,1.2,0.4l0.2,0.1l0.2,0c0.1,0,0.3,0,0.4,0c0.7,0,1.4,0.1,2,0.4c0.8,0.3,1.3,0.8,1.4,1.5
	C597.3,455.3,596.6,455.5,595.9,455.5L595.9,455.5z"/>
<path fill-rule="evenodd" clip-rule="evenodd" fill="#4F4F4F" d="M440.4,495.6c-0.8,0-1.5-0.2-2.1-0.5c0,0-0.1-0.2-0.1-0.2l-0.1-0.1
	c-0.3-0.3-0.4-0.4,0.1-1.4l0.2-0.4l0-0.1c0.1-0.1,0.1-0.1,0.1-0.1c0.1,0,0.4,0.2,0.6,0.3l0.3,0.2l0.3,0c0.6-0.1,1.3-0.2,2-0.2
	c0.5,0,0.9,0.1,1.4,0.2c0.7,0.2,0.7,0.3,0.7,0.5c0.1,0.7-0.3,1.4-0.4,1.5c-0.2,0-0.5,0.1-0.7,0.1
	C441.9,495.5,441.1,495.6,440.4,495.6z"/>
<path fill-rule="evenodd" clip-rule="evenodd" fill="#4F4F4F" d="M559.5,462.6c-0.4,0-0.6-0.1-0.7-0.3c0-0.1,0.1-0.3,0.1-0.4
	c0-0.1,0.1-0.2,0.1-0.3c0.2-0.3,0.4-0.6,0.8-0.8c1.4-0.7,2.8-1.4,4.1-2c0.1,0,0.2-0.1,0.3-0.1c0,0,0,0,0,0c0.2,0,0.3,0.1,0.4,0.2
	c0.1,0.1,0.1,0.2,0.1,0.4c-0.3,0.9-0.9,1.6-1.8,2.2C561.9,462.2,560.7,462.6,559.5,462.6z"/>
<path fill-rule="evenodd" clip-rule="evenodd" fill="#4F4F4F" d="M680.1,473.3c0,0-0.1-0.1-0.1-0.1c0-0.4,0.1-0.8,0.3-1.1
	c0.3-0.5,0.6-1,0.8-1.5c0.6-1.1,1.2-2.2,1.9-3.1l0.1-0.1l0-0.2l0.2-0.1c0,0,0.1-0.2,0.1-0.2c0,0,0,0,0.1-0.1
	c0.1-0.1,0.2-0.2,0.3-0.3l0.1-0.1l0.1-0.3l0.1-0.1l0.2,0l0.2-0.3l0.1,0.1l0.2,0.1c0.1,0.1,0.2,0.1,0.2,0.2c0,0.1,0,0.2-0.1,0.4
	c-0.2,0.4-0.5,0.8-0.7,1.3c-1,1.9-2,3.6-3.4,5.2C680.6,473.1,680.3,473.2,680.1,473.3z"/>
<path fill-rule="evenodd" clip-rule="evenodd" fill="#4F4F4F" d="M545.8,472.7L545.8,472.7l-0.1-0.1l0,0l0,0l-0.3-0.1
	c0,0,0-0.1,0-0.3l0-0.1l-0.2-0.9l-0.2-0.2c0,0,0-0.1-0.1-0.1c0,0,0,0,0.1-0.1l0.3-0.4l0-0.1l0.1-0.1l0-0.2l0,0l0.3-0.3
	c0.3-0.5,0.8-0.8,1.3-0.9l0.2-0.1l0.2-0.2c0.8-0.9,1.8-1.5,2.9-2.1c0.4-0.2,0.8-0.4,1.1-0.7c0.1-0.1,0.2-0.1,0.3-0.1
	c0.1,0,0.3,0.2,0.5,0.4c0.7,1.2,0.7,1.3-0.3,2.1c-0.4,0.3-0.9,0.6-1.4,0.9c-0.2,0.1-0.5,0.3-0.7,0.4l-0.5,0.3
	c-1.1,0.8-2.3,1.6-3.2,2.7c0,0.1-0.1,0.1-0.1,0.2C546,473,545.8,472.7,545.8,472.7z"/>
<path fill-rule="evenodd" clip-rule="evenodd" fill="#4F4F4F" d="M641,204.8c-0.2,0-0.5-0.1-1-0.3c-0.1,0-0.1-0.1-0.1-0.1
	c0,0,0-0.1,0-0.3l0.1-0.4l-0.1-0.1l0.2-0.3l-0.2-0.2l0,0l0-0.5c-0.1-0.8,0-1.3,0.3-1.7l0.1-0.1l0.2-0.8l0-0.1c0-0.3,0-0.6,0.1-0.9
	c0-0.8,0.1-1.5,0.4-2.1l0.1-0.3l-0.1-0.3c0-0.2,0-0.3,0-0.3c0,0,0.1-0.1,0.3-0.1c0,0,0,0,0.1,0c0.1,0,0.2,0,0.3,0.3
	c0.7,2,0.9,3.6,0.4,5c-0.1,0.4-0.2,0.9-0.3,1.3c-0.1,0.7-0.3,1.3-0.6,1.8C641.1,204.8,641,204.8,641,204.8L641,204.8z"/>
<path fill-rule="evenodd" clip-rule="evenodd" fill="#4F4F4F" d="M634.1,239.4c-0.4-0.2-1-1.4-0.9-2.3c0.2-1.4,0.7-2.9,1.5-4.4
	c0.1-0.2,0.3-0.4,0.6-0.4c0.2,0,0.5,0.2,0.7,0.5c0.5,0.8,0.6,1.3,0.4,1.7c-0.1,0.3-0.2,0.7-0.2,1c-0.1,0.5-0.2,0.9-0.4,1.2l-0.1,0.2
	l-0.3,1.2l0,0.1C635.2,238.7,635,239.3,634.1,239.4z"/>
<path fill-rule="evenodd" clip-rule="evenodd" fill="#4F4F4F" d="M122,94.5c-0.4,0-0.7-0.1-1.1-0.4l0,0l0,0
	c-0.5-0.3-0.7-0.6-0.3-1.7c0,0,0.1-0.1,0.2-0.2c0.3-0.1,0.6-0.2,0.9-0.3c0.9-0.3,1.7-0.5,2.5-0.5c0.2,0,0.5,0,0.7,0.1l0.3,0.1
	l0.3-0.1c0.2-0.1,0.3-0.2,0.4-0.2c0.1,0,0.2,0,0.4,0.1l0.6,0.3l0.2-0.2l0.3-0.1c0.3,0,0.5-0.1,0.7-0.1c0.4,0,0.6,0.1,0.8,0.4
	c0.5,0.7,0.4,1.1,0.1,1.3l-0.2,0.2l0,0.1l-0.2,0l-0.2,0.3c-0.1,0.1-0.2,0.2-0.6,0.2l-0.6,0c-0.6,0-1.2,0-1.8,0l-1.4,0l-0.1,0.1h-0.1
	l-0.2,0.1C122.8,94.4,122.4,94.5,122,94.5L122,94.5z"/>
<path fill-rule="evenodd" clip-rule="evenodd" fill="#4F4F4F" d="M619.3,276.4c-0.1,0-0.3,0-0.5-0.1c-0.1,0-0.3-0.1-0.3-0.9l0-0.2
	c0-0.4,0-0.7,0.1-0.8c0.5-0.5,1-1.1,1.4-1.6c0.8-0.9,1.5-1.8,2.4-2.5c0.2-0.1,0.3-0.2,0.3-0.2c0,0,0,0,0,0.1
	c0.6,1.1,0.6,1.5-0.6,2.9l-0.1,0.1l-0.1,0.3v0.2l-0.3,0.2l-0.1,0.4c-0.1,0.4-0.5,0.8-0.9,1.1c-0.3,0.2-0.5,0.5-0.7,0.8
	C619.8,276.3,619.6,276.4,619.3,276.4C619.3,276.4,619.3,276.4,619.3,276.4z"/>
<path fill-rule="evenodd" clip-rule="evenodd" fill="#4F4F4F" d="M628.1,286.6c-0.2,0-0.5-0.3-0.6-0.4l-0.2-0.1l-0.2,0
	c-0.7-0.1-0.8-0.4-1-1.6c0-0.2,0-0.3-0.1-0.5l0-0.1l0-0.1c-0.5-1.2-1-2.5-1.2-3.9c-0.1-0.7,0-0.8,0-0.8c0.1,0,0.4,0.1,0.9,0.3
	c0,0,0.1,0.1,0.1,0.1l0.1,0.1l0.2,0.1c0.1,0,0.1,0,0.2,0.1c0.1,0.2,0.3,0.4,0.4,0.7c0.5,0.9,1.1,1.8,1.3,2.8l0,0.1l0.3,0.6
	c0.1,0.3,0.3,0.7,0.4,1l0.1,0.2c0,0.1,0.1,0.3,0.1,0.3c0,0.8-0.2,1.1-0.5,1.3C628.2,286.6,628.1,286.6,628.1,286.6z"/>
<path fill-rule="evenodd" clip-rule="evenodd" fill="#4F4F4F" d="M680.9,384.7c-0.1-0.1-0.2-0.2-0.3-0.2l-0.2-0.1l0-0.1l-0.5-0.1
	c-0.5-0.1-0.9-0.3-1.2-0.7l-0.2-0.3l-0.4,0c-0.5,0-0.6-0.1-0.6-0.2l-0.3-0.4l-0.3,0l-0.1-0.1l-1.6-0.4c-0.9-0.2-1.8-0.5-2.7-0.8
	c-0.5-0.1-0.8-0.3-1-0.6c-0.1-0.1-0.1-0.2-0.1-0.2c0.7-0.8,1.3-1.2,1.9-1.2c0.2,0,0.4,0,0.7,0.1c0.2,0.1,0.4,0.1,0.6,0.2
	c0.1,0,0.2,0.1,0.3,0.1l1,1.5l0.4-1c1.3,0.3,2.6,0.8,3.9,1.4c0.5,0.2,1,0.5,1.5,0.7c0.3,0.1,0.5,0.4,0.7,0.8c0.1,0.1,0.1,0.4,0,0.6
	C682.3,384.1,681.5,384.7,680.9,384.7C680.9,384.8,680.9,384.7,680.9,384.7z"/>
<path fill-rule="evenodd" clip-rule="evenodd" fill="#4F4F4F" d="M539.5,100.3c-1.3-1-2.2-1.8-2.3-3.2l0-0.3l-0.3-0.2
	c-0.3-0.3-0.3-0.4-0.3-0.5l0-0.5l0.1-0.2l-0.7-0.4l0-0.2l-0.1-0.2c-0.2-0.7-0.4-1.3-0.2-1.8l0-0.1l0-0.1c0-0.3,0.1-0.5,0.1-0.6
	c0.1,0,0.3,0.1,0.5,0.2l0.1,0c0,0,0.1,0,0.1,0c0,0,0.1,0.1,0,0.2l0,0.4L537,93c0.1,0.1,0.2,0.3,0.2,0.6l0,0.3l0.2,0.2
	c0.8,1,1.2,2.2,1.7,3.5c0.1,0.3,0.2,0.6,0.4,0.9c0.2,0.4,0.2,1,0.1,1.5l0,0.1C539.6,100.2,539.5,100.3,539.5,100.3
	C539.5,100.3,539.5,100.3,539.5,100.3z"/>
<path fill-rule="evenodd" clip-rule="evenodd" fill="#4F4F4F" d="M619.5,353.6c-0.4,0-0.8-0.2-1.4-0.4c-0.2-0.1-0.4-0.2-0.4-0.6
	c0-0.2,0-0.5,0.1-0.7l0.1-0.7c0.2-1.2,0.4-2.3,0.6-3.5c0-0.2,0.2-0.6,0.5-0.6c0.6,0,1.2,0.2,1.3,0.7c0.1,0.7,0.2,1.6,0.1,2.4
	c-0.1,0.7-0.2,1.3-0.4,2.1c-0.1,0.3-0.2,0.6-0.2,1l0,0.1l0,0l-0.1,0.3C619.6,353.6,619.5,353.6,619.5,353.6z"/>
<path fill-rule="evenodd" clip-rule="evenodd" fill="#4F4F4F" d="M448.7,472.7c-0.2,0-0.4-0.1-0.7-0.2c-0.2-0.2-0.4-0.4-0.5-0.6
	c-0.4-0.7-0.8-1.4-1.2-2.1l-0.5-0.8c-0.2-0.3-0.2-0.5,0.1-0.9l0.1-0.2l0-0.2c0-0.1,0.1-0.3,0.1-0.4c0-0.2,0.1-0.4,0.1-0.4
	c0.1-0.1,0.1-0.2,0.1-0.2c0.1,0.1,0.2,0.2,0.5,0.4l0.1,0.1l0.3,0.1c0,0,0.1,0,0.2,0.4l0.1,0.5l0.5,0.1c0.3,0.1,0.4,0.2,0.4,0.5
	l0,0.2l0.4,0.7c0.2,0.4,0.4,0.8,0.6,1.1c0.1,0.3,0.2,0.7,0.1,1.1C449.4,472.4,449.1,472.7,448.7,472.7L448.7,472.7z"/>
<path fill-rule="evenodd" clip-rule="evenodd" fill="#4F4F4F" d="M107.4,408.9c0,0-0.1,0-0.2,0c-0.2-0.1-0.3-0.1-0.3-0.5
	c0.1-2.9,0.4-5.3,2.5-7l0.2-0.2l0-0.2l0.4,0l0.2-0.5c0-0.1,0.1-0.1,0.1-0.1c0.1,0,0.1,0.1,0.1,0.3c0,0.5-0.1,0.5-0.2,0.6l-0.4,0.3
	l0,0.5c0,0.4-0.1,0.5-0.2,0.6l-0.3,0.2l0,0.4c-0.1,0.9-0.2,2-0.7,3l-0.1,0.2l0,0.5c0.1,0.6,0,0.6-0.1,0.7l-0.4,0.2l0,0.5l-0.3,0.1
	l-0.2,0.2C107.5,408.9,107.4,408.9,107.4,408.9C107.4,408.9,107.4,408.9,107.4,408.9z"/>
<path fill-rule="evenodd" clip-rule="evenodd" fill="#4F4F4F" d="M155.8,149.9c-0.4,0-0.8-0.1-1.3-0.2l-0.1,0l-0.1,0
	c-0.5-0.1-1.1-0.1-1.6-0.1c-1.6-0.1-3.1-0.2-4.5-0.9l-0.2-0.1l-0.2,0c-0.1,0-0.3,0-0.4,0c-0.7,0-0.9,0-1.1-0.3l-0.1-0.1L146,148
	l-0.2-0.1c-0.1,0-0.2-0.1-0.1-0.5c0,0,0-0.1,0.3-0.2l0.1,0c0.6-0.1,1.2-0.2,1.7-0.2c0.2,0,0.5,0,0.7,0.1c0.8,0.1,1.6,0.3,2.4,0.5
	l1.4,0.3l0.2-0.1c0.1,0,0.1,0,0.2,0c0.1,0,0.2,0,0.2,0.1l0.2,0.1l1.1,0c0.9,0,1.8,0,2.8,0.1c0.6,0,0.8,0,0.9,0.2l0,0l0,0
	c0.3,0.3,0.5,0.5,0.6,0.6c-0.1,0.1-0.3,0.2-0.7,0.4l-0.3,0.1l-0.2,0.3c0,0.1-0.1,0.1-0.1,0.1c0,0,0,0,0,0c-0.1,0-0.1,0-0.2,0
	l-0.3-0.1l-0.3,0.1C156.5,149.8,156.2,149.9,155.8,149.9z"/>
<path fill-rule="evenodd" clip-rule="evenodd" fill="#4F4F4F" d="M385.9,65.4c-1,0-1.8-0.2-2.4-0.5l0.2-0.1l0.1,0l0.2-0.1
	c0.1-0.1,0.3-0.1,0.4-0.2c0.1-0.1,0.3-0.2,0.3-0.2c1.4-0.1,3-0.3,4.5-1.1c0.3-0.1,0.8-0.2,1.2-0.2c0,0,0.2,0,0.2,0
	c0.2,0,0.3,0.1,0.3,0.1c0,0.1,0.1,0.1-0.1,0.3C389.9,64.6,387.9,65.4,385.9,65.4L385.9,65.4z"/>
<path fill-rule="evenodd" clip-rule="evenodd" fill="#4F4F4F" d="M102.5,349.6c-0.7-0.1-1.2-0.3-1.7-0.9l-0.2-0.2l-0.3-0.1
	c-0.4-0.1-0.6-0.1-0.7-0.3l-0.3-0.4l-0.5,0l-0.1,0c-0.6,0-1.1-0.3-1.6-0.7l-0.1-0.1c0,0-0.1-0.2-0.1-0.3l0-0.5l-0.4-0.3
	c-0.2-0.1-0.2-0.2-0.2-0.3l0-0.1l0-0.1c0-0.4,0.1-0.6,0.1-0.7c3,0.8,5.2,1.7,6.4,4.1c0.2,0.3,0.1,0.4,0.1,0.4
	c-0.1,0.1-0.2,0.2-0.4,0.2L102.5,349.6z"/>
<path fill-rule="evenodd" clip-rule="evenodd" fill="#4F4F4F" d="M118.2,375.8c-0.3-0.6-0.4-1.1-0.3-1.5l0.1-0.2l-0.1-0.2
	c-0.3-0.9-0.3-1.9,0-3l0.1-0.3l-0.1-0.3c-0.4-0.9-0.5-1.8-0.3-2.6c0-0.3,0.3-0.3,0.3-0.3c0.1,0,0.2,0,0.3,0.1
	c0.4,0.3,0.8,0.8,0.9,1.6l0,0.7c0.1,1.6,0.2,3.2-0.4,4.6l-0.1,0.2l0,0.2C118.6,375.4,118.4,375.6,118.2,375.8
	C118.2,375.8,118.2,375.8,118.2,375.8C118.2,375.8,118.2,375.8,118.2,375.8z"/>
<path fill-rule="evenodd" clip-rule="evenodd" fill="#4F4F4F" d="M174.6,148.2C174.6,148.2,174.6,148.2,174.6,148.2
	c-0.2,0.2-0.4,0.3-0.6,0.5C174.3,148.8,174.5,148.6,174.6,148.2c0.3-0.1,0.5-0.3,0.5-0.6C174.9,147.8,174.8,148,174.6,148.2
	C174.6,148.2,174.6,148.2,174.6,148.2z"/>
<path fill-rule="evenodd" clip-rule="evenodd" fill="#4F4F4F" d="M174.6,148.2C174.6,148.2,174.6,148.2,174.6,148.2
	c-0.2,0.2-0.4,0.3-0.6,0.5C174.3,148.8,174.5,148.6,174.6,148.2c0.3-0.1,0.5-0.3,0.5-0.6C174.9,147.8,174.8,148,174.6,148.2
	C174.6,148.2,174.6,148.2,174.6,148.2z"/>
<path fill-rule="evenodd" clip-rule="evenodd" fill="#4F4F4F" d="M172.6,148.1c-0.4,0.3-1,0.3-1.6,0.3c-0.2,0-0.3,0-0.5,0l-0.1,0
	l-0.1,0c-0.5,0.2-0.9,0.2-1.3,0.2c-0.9,0-1.7-0.4-2.6-1.1c-0.2-0.1-0.2-0.3-0.2-0.5c0-0.2,0.2-0.2,0.3-0.2c0.8-0.2,1.6-0.2,2.4-0.3
	c0.4,0,0.8-0.1,1.1-0.1l0.3,0l0.2-0.2c0.2-0.2,0.4-0.2,1-0.3c0.2,0,0.4,0,0.6-0.1l0.4-0.1l0.2-0.3l0,0l0.6,0l0.4,0.1
	c0.1,0,0.2,0.1,0.4,0.1c0.7,0.2,0.8,0.3,0.8,0.5l-0.1,0.5l-0.1,0l-0.1,0.2l-0.1,0.1c-0.1,0.1-0.2,0.3-0.4,0.4
	c-0.2,0.2-0.4,0.3-0.6,0.5l-0.3-0.2L172.6,148.1l0.5,1.6L172.6,148.1z"/>
<path fill-rule="evenodd" clip-rule="evenodd" fill="#4F4F4F" d="M314.2,447.2c0,0-0.2,0-0.8-0.9l-0.1-0.1l-0.1-0.1
	c-0.4-0.3-0.7-0.7-0.8-1.3l-0.1-0.5l-0.4-0.1l0-0.1l-0.2-0.3l-0.1-0.1c-0.9-0.7-1.2-1.1-1.3-1.3c0.2-0.1,0.6-0.4,1.7-0.8l-0.3-1.6
	l0.6,1.4c0,0,0,0,0.1-0.1c0,0,0.1,0.2,0.1,0.2l0.1,0.1c1.4,0.7,2.1,2,2.9,3.5c0.5,1,0.4,1.4-0.7,1.9
	C314.4,447.1,314.3,447.2,314.2,447.2z"/>
<path fill-rule="evenodd" clip-rule="evenodd" fill="#4F4F4F" d="M217.8,466.3c-0.6,0-1.1-0.2-1.6-0.5l-0.2-0.1l-0.2,0
	c-2.1-0.3-3.9-1.3-5.4-3.1l0.6-0.6l-1.5-0.3l0,0c-0.1-0.5-0.1-0.7-0.1-0.8c0,0,0.1,0,0.2,0c0.1,0,0.1,0,0.2,0c0.5,0,0.9,0.2,1.3,0.5
	l0.4,0.3l0.1,0.3l0.6,0.1l0.1,0.2l0.3,0.2c1.4,0.9,2.9,1.8,4.7,2.4c0.8,0.2,1.3,0.6,1.6,1.1c0,0,0,0,0,0.1c-0.1,0.1-0.2,0.2-0.4,0.3
	C218.2,466.3,218,466.3,217.8,466.3L217.8,466.3z"/>
<path fill-rule="evenodd" clip-rule="evenodd" fill="#4F4F4F" d="M582.6,264.7c-0.1,0-0.3,0-0.6-0.8l-0.1-0.4l-0.1,0l0-0.1
	c-0.6-1.4-0.6-2.8,0-4.2l0.1-0.3l-0.1-0.2c0-0.9,0-1.4,0.3-1.8c0.1-0.1,0.3-0.2,0.4-0.2c0.1,0,0.1,0,0.2,0.1c0.9,0.8,1.2,1.5,1,2.4
	c-0.4,1.3-0.7,2.9-0.6,4.6c0,0.4-0.1,0.7-0.3,0.7C582.8,264.7,582.7,264.7,582.6,264.7z"/>
<path fill-rule="evenodd" clip-rule="evenodd" fill="#4F4F4F" d="M600.2,124.7c-1.5,0-2.8-0.1-4-0.5l-0.1,0l-0.1,0
	c-0.6-0.1-0.9-0.4-1.2-1.4c0,0,0,0,0.1,0c0.5-0.3,1-0.5,1.7-0.5c1.5,0,3.1,0,4.6,0.1l1.5,0l0.1,0c0.1,0,0.2,0,0.2,0l0.2,0.4l0.5,0.1
	c0.1,0,0.2,0.1,0.4,0.3c0.1,0.1,0.1,0.2,0.2,0.2c0.1,0.1,0.2,0.2,0.3,0.4c-0.2,0.2-0.5,0.4-0.7,0.6c0,0-0.1,0.1-0.2,0.1c0,0,0,0,0,0
	C602.4,124.6,601.3,124.7,600.2,124.7L600.2,124.7z"/>
<path fill-rule="evenodd" clip-rule="evenodd" fill="#4F4F4F" d="M280.1,12c-0.1,0-0.3,0-0.4-0.1c-1.2-0.3-2.4-0.6-3.6-0.8
	c-0.9-0.2-1.8-0.3-2.6-0.6c-1-0.2-1.3-0.6-1.1-2.2c0,0,0.1,0,0.1,0c0.1,0,0.3-0.1,0.4-0.1c0.2,0,0.4,0,0.7,0.1l0.2,0.1
	c0,0,0.7-0.1,0.9-0.1l-0.2,0.8c0.1,0,0.3,0.1,0.4,0.1l0.9,0.1l0.1-0.9l0-0.2c0.7,0,1.2,0.2,1.7,0.5l0.3,0.2l0.2-0.1l0.2,0.2l0.4-0.1
	c0.1,0,0.2,0,0.3,0c0.2,0,0.2,0,0.3,0.1l0.5,0.6l0.2-0.1l0.5-0.1c0.1,0,0.1,0,0.2,0l0.1,0.3l0.2,0.2c0.2,0.2,0.7,0.5,0.1,1.5
	C280.8,11.9,280.4,12,280.1,12z"/>
<path fill-rule="evenodd" clip-rule="evenodd" fill="#4F4F4F" d="M564.1,122.6c-0.8,0-1.5-0.3-2.3-1l-0.2-0.1l-0.2,0
	c-1-0.2-1.9-0.5-2.4-1.3l0-0.1c0,0-0.1-0.1-0.2-0.2c0,0,0.3-0.2,0.3-0.2l0-0.1h0.3l0.1-0.2c0.3-0.1,0.6-0.2,0.8-0.4l0.1,0
	c0.2,0.2,0.5,0.3,0.9,0.4l1.2,0.4c1.3,0.4,2.6,0.7,3.9,1.1c0.2,0.1,0.4,0.2,0.7,0.4l0.1,0.1c0.1,0,0.1,0.1,0.1,0.1
	c0,0-0.1,0.1-0.1,0.2c-0.3,0.3-0.5,0.3-0.7,0.3l-0.5,0l-0.2,0.5l-0.1,0.1c-0.1,0-0.1,0-0.2,0l-0.2,0l-0.2,0.1
	C564.7,122.5,564.4,122.6,564.1,122.6z"/>
<path fill-rule="evenodd" clip-rule="evenodd" fill="#4F4F4F" d="M624.2,475.5c-0.2-0.1-0.7-0.4-0.9-0.5l-0.2-0.2l-0.1,0l-0.1-0.4
	l-0.5-0.1l-0.1-0.4l-0.5-0.1c-0.2,0-0.3-0.1-0.4-0.3l-0.1-0.2l-0.4-0.2l-0.1,0l-0.1-0.4l-0.4-0.1l0-0.3l-0.4-0.2
	c-0.3-0.2-0.6-0.5-0.9-0.8c-0.4-0.4-0.9-0.9-1.5-1.2c0,0,0.1-0.1,0.1-0.1l0.2-0.1l0.1-0.2c0.1-0.1,0.1-0.2,0.2-0.4
	c0.1-0.2,0.2-0.3,0.2-0.4c0.4-0.3,0.5-0.4,0.6-0.4c0.1,0,0.2,0.1,0.4,0.2c0.7,0.5,1.5,1.1,2.2,1.7c0.3,0.3,1.2,1,1.2,1l0,0l0,0.1
	l0.3,0.2l0.2,0.1l0.2,0l0.1,0.4l0.5,0.1l0.1,0.5l0.6,0.1c0.1,0,0.1,0,0.1,0l0.2,0.4l0.2,0v0.1l0.3,0.3c0.1,0.1,0.1,0.1,0.2,0.2
	c0,0-0.1,0.1-0.1,0.1l-0.4,0.3l0,0.2l0,0C624.8,474.8,624.4,475.3,624.2,475.5z"/>
<path fill-rule="evenodd" clip-rule="evenodd" fill="#4F4F4F" d="M388.5,457.5c-0.2,0-0.4,0-0.6-0.1l-0.2,0l-0.2,0
	c-0.1,0-0.2,0-0.3,0c-0.1,0-0.2,0-0.3-0.2c-0.1-0.1-0.3-0.4-0.1-0.8c0.9-1.9,2.2-3.3,3.8-4.2c0.3-0.2,0.7-0.3,1.2-0.3
	c0.2,0,0.5,0,0.7,0.1c0.1,0,0.1,0,0.2,0.2c0,0,0,0.1-0.1,0.3l-0.1,0.2l-0.2,0.2l-0.1,0.1c-0.3,0.3-0.6,0.7-0.9,1
	c-0.9,1-1.8,2-2.5,3.2l-0.1,0.2C388.6,457.5,388.6,457.5,388.5,457.5C388.5,457.5,388.5,457.5,388.5,457.5z"/>
<path fill-rule="evenodd" clip-rule="evenodd" fill="#4F4F4F" d="M245.5,474.2c-0.5,0-1-0.1-1.7-0.4l-0.1,0l-1.2-0.1l-0.1,0
	c0,0-0.1,0-0.1,0c0,0,0,0-0.1,0c-0.2-0.9-0.2-1.2,0.2-1.5l0.2-0.1l0.1-0.2c0.1,0,0.2,0,0.3,0l0.2,0c0,0,1-0.2,1.4-0.2
	c1-0.2,2-0.4,3-0.5c0.1,0,0.2,0,0.3,0c0.3,0,0.7,0.1,0.9,0.2c0.2,0.1,0.3,0.2,0.3,0.3c0,0,0,0,0,0c0,0,0,0.1-0.1,0.1l-0.2,0.2l0,0.3
	c0,0.2,0,0.7,0,0.8c0,0-0.4,0.2-0.6,0.2l-0.3,0.1l-0.2,0.3c0,0.1,0,0.1-0.2,0.1c-0.1,0-0.1,0-0.2,0l-0.3,0l-0.3,0.1
	C246.3,474,245.9,474.2,245.5,474.2z"/>
<path fill-rule="evenodd" clip-rule="evenodd" fill="#4F4F4F" d="M585.2,275.4c-0.4-0.5-0.8-1-1.2-1.6c-0.2-0.2-0.8-1-0.8-1l-0.1,0
	l0,0l-0.2-0.3c-0.1-0.1-0.2-0.3-0.3-0.4c-0.2-0.3-0.5-0.5-0.6-0.8c-0.1-0.2-0.2-0.6-0.1-0.9c0.1-0.3,0.2-0.4,0.5-0.5l0.1,0l0.1-0.1
	c0.2-0.1,0.6-0.4,0.8-0.5c0.1,0.1,0.1,0.2,0.2,0.4c0.2,0.3,0.3,0.6,0.4,1c0.1,0.2,0.1,0.3,0.2,0.5l0.1,0.1l0.5,0.6
	c0.4,0.5,0.9,1,1.3,1.4c0.5,0.6,0.5,1,0.5,1.3c-0.1,0.3-0.3,0.5-1,0.7l-0.2,0.1L585.2,275.4z"/>
<path fill-rule="evenodd" clip-rule="evenodd" fill="#4F4F4F" d="M293.7,439.5c-0.2,0-0.2,0-0.3-0.2l0-0.1l0,0l0.1-0.1
	c0.2-0.2,0.5-0.3,0.9-0.3c0.1,0,0.2,0,0.2,0l0.4,0l0.3-0.3c0.2-0.2,0.5-0.3,0.8-0.3c0.1,0,0.2,0,0.3,0l0.1,0l0.1,0
	c1.1-0.2,2.2-0.3,3.4-0.3c0.8,0,1.6,0,2.4,0.1c0.3,0,0.5,0.2,0.6,0.5c0.1,0.3,0.1,0.4,0.1,0.4l-0.2,0.1l-0.2,0.2
	c0,0.1-0.1,0.1-0.1,0.1c-1.8,0-3.6,0-5.4,0l-2.4,0c-0.1,0-0.6,0-0.6,0l-0.1,0C293.9,439.5,293.8,439.5,293.7,439.5z"/>
<path fill-rule="evenodd" clip-rule="evenodd" fill="#4F4F4F" d="M665.6,484.2c-0.5,0-0.8-0.1-1.3-1.3c-0.1-0.2-0.1-0.3,0.1-0.4
	c0.1-0.1,0.3-0.1,0.5-0.1c0.1,0,0.3-0.1,0.4-0.1l0.1,0l0.3-0.2c0.9-0.5,1.9-0.9,3-1.2c0.4-0.1,0.7-0.2,1.1-0.3l0.2,0h0.1l0.1,0
	l0-0.1l0.3-0.1l0.1-0.2l0.2,0c0,0,0.3-0.2,0.4-0.3l1.4,0.3l0,0.4l0.2,0l0.2,0.2l-0.2,0.2l-0.2,0l0,0.4l-0.2,0.1l-0.1,0.1l-0.1,0.2
	c-0.1,0.2-0.1,0.2-0.3,0.2h-0.4l-0.3,0.4c-0.2,0.3-0.4,0.3-0.4,0.3l-0.4,0l-0.2,0.3c-0.1,0.2-0.3,0.2-0.9,0.2l-0.4,0l-0.3,0.3
	c-0.1,0.1-0.2,0.2-0.5,0.2c0,0-0.1,0-0.1,0l-0.2,0l-0.2,0.1c-0.1,0.1-0.2,0.1-0.4,0.2c-0.2,0.1-0.3,0.2-0.5,0.2
	C666,484.1,665.8,484.2,665.6,484.2z"/>
<path fill-rule="evenodd" clip-rule="evenodd" fill="#4F4F4F" d="M631.7,373c-0.1,0-0.2,0-0.3-0.1c-1.7-0.7-3.2-1.5-4.2-3
	c0,0,0,0,0,0c0,0,0,0,0-0.1c0-0.2,0-0.3,0-0.3c0,0,0,0,0,0c0,0,0.1,0,0.2,0l0.2,0l0.2-0.1c0.4-0.3,0.7-0.4,0.9-0.4
	c0.1,0,0.3,0,0.6,0.3l0.2,0.2l0.3,0.1c0.5,0.1,0.8,0.4,1.3,0.9l0.3,0.3c0,0,0.4,0,0.5,0c0.1,0,0.2,0,0.3,0.2l0.2,0.3l0.3,0.1
	c0.3,0.1,0.5,0.2,0.6,0.7c0,0.3,0,0.3-0.1,0.4C632.5,372.7,632.1,373,631.7,373z"/>
<path fill-rule="evenodd" clip-rule="evenodd" fill="#4F4F4F" d="M641.4,188c-0.9-0.5-1.3-1-1.4-1.7c0-0.3,0-0.7,0-1
	c0-0.2,0-0.4,0-0.5l0-0.6l0-1.2v-1.2c0-1,0-2,0-3.1c0-0.1,0-0.2,0.2-0.3l0.2-0.2l0.1-0.2c0.9,0.4,1.3,0.8,1.3,1.4l0,0.1l0.1,0.1
	c0,0.1,0.1,0.2,0.1,0.3c0.1,0.2,0.1,0.4,0.2,0.5c0.1,1.5,0.1,3.1,0.2,5.2c0,0.1,0,0.2,0,0.3l-0.2-0.2l-0.5,1.3l-0.2,0.5l0.1,0.1l0,0
	L641.4,188z"/>
<path fill-rule="evenodd" clip-rule="evenodd" fill="#4F4F4F" d="M451.9,494c-0.1,0-0.1,0-0.2-0.2l-0.3-0.4l-0.5,0l-0.1-0.1
	l-0.1-0.1c-0.2-0.2-0.4-0.4-0.5-0.5c0-0.1,0.1-0.1,0.1-0.2c0.2-0.2,0.4-0.5,0.7-0.7c0.1-0.1,0.3-0.3,0.4-0.4l0.2-0.2l0-0.3
	c0-0.2,0.1-0.3,0.3-0.5l0.2-0.1l0.2-0.4l0-0.2c0-0.4,0.2-0.7,0.7-1.1c0.1-0.1,0.2-0.2,0.3-0.2c0.1,0,0.2,0,0.3,0.1
	c1.3,0.6,1.5,1.1,1,2.4l-0.1,0.2c-0.5,1.3-1,2.3-2.2,2.8C452.3,493.9,452.1,494,451.9,494L451.9,494z"/>
<path fill-rule="evenodd" clip-rule="evenodd" fill="#4F4F4F" d="M103.8,150.6c0,0-0.2,0-0.2-0.1c-0.1,0-0.2-0.1-0.3-0.1l-0.1,0l0,0
	l-0.4-0.1c-0.1,0-0.3-0.1-0.4-0.1c-0.1,0-0.2,0-0.3-0.1c0.1-0.1,0.1-0.1,0.3-0.2l0.2-0.2l0-0.1l0.3,0l0.2-0.2l0.1,0l0.2-0.2l0.2-0.1
	l0.1-0.2c0.1-0.1,0.2-0.2,0.3-0.2c0,0,0.1,0,0.2,0l0.3,0.1l0.3-0.2c0.7-0.4,1.5-0.6,2.3-0.6c0.2,0,0.4,0,0.5,0l0.2,0l0.2-0.1
	c0.4-0.2,0.8-0.2,1.2-0.2c0.6,0,1.2,0.2,2,0.5c0.1,0,0.2,0.1,0.2,0.2c0,0.1,0,0.2-0.1,0.3c-0.4,0.4-0.8,0.7-1,0.7
	c-0.2,0-0.4,0-0.6,0c-1.3,0-2.6,0.3-3.8,0.5C105.1,150.4,104.5,150.5,103.8,150.6z"/>
<path fill-rule="evenodd" clip-rule="evenodd" fill="#4F4F4F" d="M425.4,37.6c0,0-0.1,0-0.1,0c-0.2-0.1-0.3-0.2-0.2-0.5
	c0.1-0.3,0.2-0.6,0.3-0.8c0.4-0.7,0.9-1.4,1.6-1.8l0.4-0.2l0.1-0.4l0.5-0.1l0.1-0.5l0.2,0l0.2-0.2c0.4-0.4,0.7-0.7,0.8-0.7
	c0.1,0,0.3,0.1,0.5,0.2c0,0.1-0.1,0.2-0.1,0.3c-0.2,0.6-0.5,1.1-0.8,1.5c-0.7,0.9-1.6,1.7-2.4,2.5l-0.6,0.5
	C425.6,37.6,425.5,37.6,425.4,37.6L425.4,37.6z"/>
<path fill-rule="evenodd" clip-rule="evenodd" fill="#4F4F4F" d="M628,328.2c-0.1,0-0.3,0-0.3-0.4c-0.2-1.5-0.3-2.7,0.5-3.8l0.2-0.2
	l0-0.3c0-0.3,0.1-0.4,0.2-0.4l0.4-0.3l0-0.5c0-0.3,0-0.3,0.3-0.3c0.2,0,0.3,0,0.3,0.1c0,0,0.1,0.1,0,0.3l0,0.3l0.2,0.3
	c0.2,0.3,0.4,0.6-0.1,1.4l0,0.1l-0.4,1.1c-0.3,0.8-0.5,1.6-0.8,2.4C628.4,328.1,628.4,328.2,628,328.2L628,328.2z"/>
<path fill-rule="evenodd" clip-rule="evenodd" fill="#4F4F4F" d="M474.1,446.4l-0.4,0l-0.4,0c-0.1,0-0.2,0-0.2,0l-0.2-0.4l-0.3-0.1
	c0,0,0.1,0.1,0.1,0.2l-1.7,0l1.4-0.7c-0.2-0.1-0.3-0.3-0.3-1l0-0.2l-0.1-0.2c-0.3-0.8-0.2-1.7,0.1-2.5c0-0.2,0.1-0.2,0.2-0.2l0.2,0
	c0.9,0,1.3,0.1,1.6,0.5l0,0.1l0.1,0.1c0.3,0.3,0.3,0.8,0.3,1.5c0,0.3,0,0.6,0,1l0,0.2l-0.1,0.2l0.3,0.4c0.2,0.2,0.2,0.3,0,0.5
	l-0.4,0.5l0.1,0.1c-0.1,0.1-0.2,0.2-0.3,0.2c0,0,0,0,0,0L474.1,446.4z"/>
<path fill-rule="evenodd" clip-rule="evenodd" fill="#4F4F4F" d="M380.5,471.1c-0.1,0-0.2,0-0.4-0.1c-0.2-0.1-0.3-0.1-0.3-0.1
	c0,0,0-0.2,0-1l0-0.1l0-0.1c-0.2-0.6,0-0.8,0.2-0.9l0.3-0.2l0-0.4c0.1-0.8,0.5-1.6,0.9-2.4l0.2-0.4c0.3-0.5,0.6-0.8,1-1
	c0.1-0.1,0.3-0.1,0.4-0.1c0.1,0,0.2,0,0.2,0.3c0,0.8,0,1.8-0.4,2.7c-0.3,0.7-0.6,1.4-1,2.1c-0.2,0.3-0.3,0.6-0.5,0.9
	C381.1,470.4,380.7,471.1,380.5,471.1L380.5,471.1z"/>
<path fill-rule="evenodd" clip-rule="evenodd" fill="#4F4F4F" d="M321,458.8c-0.2,0-0.4-0.1-0.5-0.2c-0.9-1.2-1.2-2.3-1.2-3.8
	c0-0.1,0-0.3,0.1-0.5c0-0.1,0.1-0.2,0.4-0.3c0,0,0.1,0,0.1,0c0.1,0,0.1,0,0.1,0c1.1,1.6,1.6,2.9,1.6,4.2c0,0.5-0.2,0.5-0.2,0.5
	C321.3,458.7,321.1,458.8,321,458.8z"/>
<path fill-rule="evenodd" clip-rule="evenodd" fill="#4F4F4F" d="M151.8,425.6c-0.3,0-0.7-0.1-1-0.2l0-0.7l-0.1,0.6
	c-0.1,0-0.3-0.2-0.3-0.2l0-0.1c0,0,0.1-0.1,0.3-0.3c0.5-0.4,1-0.8,1.6-1.3l1-0.8l0-0.1l0.1,0l0.2-0.2c0.4-0.3,0.8-0.5,1.2-0.5
	c0.4,0,0.9,0.1,1.6,0.5c0.1,0.1,0.2,0.2,0.2,0.2c-0.9,0.4-1.4,1-1.9,1.4c-0.2,0.2-0.4,0.4-0.5,0.5
	C153.3,425.2,152.5,425.6,151.8,425.6L151.8,425.6z"/>
<path fill-rule="evenodd" clip-rule="evenodd" fill="#4F4F4F" d="M161.7,100.4c-0.2,0-0.7-0.3-0.8-0.3c-0.9-0.5-1.8-0.9-2.8-1.4
	l-1.5-0.7l-0.2,0l-0.3-0.5l-0.3,0.1l-0.1-0.2l-0.3,0l0,0l-0.3-0.2l-0.2-0.1l-0.2,0l-0.2-0.4l-0.5-0.1c-0.3,0-0.3-0.1-0.3-0.2
	l-0.2-0.4l-0.3,0l0-0.1c0.6-1,0.9-1.2,1.2-1.2c0.3,0,0.8,0.2,1.3,0.4l1,0.4c1.7,0.6,3.3,1.2,4.8,2.2l0.2,0.1
	c0.2,0.1,0.4,0.2,0.4,0.3l0,0c0,0.1,0.1,0.2,0.1,0.2l0.1,0.2l0,0c0.1,0.2,0.2,0.3,0.4,0.4l0.1,0.1c0.2,0.2,0.2,0.2-0.4,0.9l-0.1,0.1
	C161.9,100.3,161.8,100.4,161.7,100.4z"/>
<path fill-rule="evenodd" clip-rule="evenodd" fill="#4F4F4F" d="M93.9,294.2c-0.1,0-0.2-0.1-0.3-0.2l-0.1-0.1l0,0l-0.2-0.3
	c-0.4-0.6-0.3-0.8-0.1-1.1l0.2-0.2l0-0.3c0-0.3,0.1-0.5,0.7-0.8l0.2-0.1l0.3-0.4l0-0.2l0.5-0.2l0-0.4l0.2,0l0.2-0.4l0.4-0.7l0-0.1
	l0.3-0.1l0-0.5c0-0.3,0.1-0.3,0.2-0.3l0.5-0.2l0-0.4l0.2,0l0.2-0.3c0.2-0.2,0.3-0.2,0.3-0.2c0.1,0,0.2,0,0.4,0.1l0.1,0.5l0,0.1
	c0.4,1.1,0.1,1.9-0.7,2.7l-0.2,0.2l0,0.3c0,0.3-0.1,0.4-0.2,0.4l-0.4,0.2l-0.1,0.4c-0.1,0.6-0.3,0.9-0.7,1.2l-0.4,0.2l0,0.3
	l-0.1,0.1c-0.3,0.2-0.5,0.4-0.8,0.6C94.1,294.1,94,294.2,93.9,294.2z"/>
<path fill-rule="evenodd" clip-rule="evenodd" fill="#4F4F4F" d="M203.9,455.5c-0.1,0-0.3,0-0.4-0.1c-1.2-0.3-1.9-0.9-2.2-2
	l-0.1-0.2L201,453c-0.5-0.4-0.7-0.7-0.8-1l0-0.2l-0.1-0.1c-0.7-1.2-0.6-1.4-0.1-2c0.2-0.1,0.4-0.2,0.6-0.2c0.4,0,0.7,0.3,0.9,0.5
	c0.5,0.7,0.9,1.4,1.4,2.1c0.6,1,1.3,2,2,2.9c0,0,0,0,0,0c0,0-0.1,0.1-0.1,0.1C204.5,455.4,204.2,455.5,203.9,455.5L203.9,455.5z"/>
<path fill-rule="evenodd" clip-rule="evenodd" fill="#4F4F4F" d="M120.8,433.6c-1.8-0.2-3.7-0.7-4.9-2.3l-0.1-0.2l-0.2-0.1
	c0,0-0.1,0-0.1-0.1l-0.1-0.4l-0.3-0.2c-0.7-0.4-1.1-1-1.3-1.9c0-0.1-0.1-0.4,0.1-0.5c0,0,0.1,0,0.3,0.1c0.2,0.1,0.3,0.3,0.5,0.4
	c0.1,0.1,0.3,0.3,0.3,0.3l0.6,0.3l0,0l0.4,0.4l0.2,0.1c0.2,0.1,0.2,0.2,0.3,0.3l0.1,0.4l0.3,0.2c0.3,0.2,0.6,0.3,0.9,0.5
	c0.9,0.5,1.7,0.9,2.2,1.7l0.2,0.3l0.2,0l0,0.3l0.3,0.2C120.6,433.4,120.8,433.6,120.8,433.6z"/>
<path fill-rule="evenodd" clip-rule="evenodd" fill="#4F4F4F" d="M257,471.3c-0.1,0-0.3,0-0.5-0.3l-0.2-0.2c0,0-0.1-0.1-0.1-0.1
	c0.1-0.1,0.2-0.3,0.3-0.4l0.8-1l-0.4-0.1c0.2-0.2,0.6-0.3,1.3-0.3l0.4,0l0.2-0.3c0.1-0.1,0.1-0.1,0.2-0.1c0.1,0,0.1,0,0.2,0l0.1,0
	l0.9-0.1l0.2-0.1c0.7-0.4,1.4-0.5,2.4-0.5c0.2,0,0.5,0,0.7,0c0.1,0,0.1,0,0.2,0.1l0.1,0.2l0.1,0.1c0,0,0,0,0,0c0,0,0,0.1-0.1,0.2
	l-0.1,0.2l0,0.3c0,0.3,0,0.3-0.1,0.4l-0.4,0.2l0,0.3l-0.2,0l-0.2,0.3c0,0-0.1,0-0.2,0c-0.1,0-0.2,0-0.3,0l-0.1,0l-0.8,0.1l-0.1,0.1
	c-0.1,0.1-0.2,0.1-0.3,0.1c-0.1,0-0.1,0-0.2,0l-0.4-0.1l-0.3,0.2c-0.2,0.1-0.4,0.2-0.7,0.3l0.4-1.1l-2.1,1.4
	C257.4,471.2,257.2,471.3,257,471.3z"/>
<path fill-rule="evenodd" clip-rule="evenodd" fill="#4F4F4F" d="M112.2,393c-0.1-0.1-0.2-0.5-0.1-0.7l0.1-0.5
	c0.3-1.4,0.5-2.7,1.4-3.8l0.2-0.2l0-0.3c0-0.3,0.1-0.4,0.3-0.5l0.3-0.2l0.1-0.5l0-0.1l0.3-0.1l0.1-0.3c0.9-1.7,1-1.7,1.5-1.7
	c0.2,0,0.6,0,1,0.1c0.2,0.2,0.2,0.4-0.3,1l-0.2,0.3l0.1,0.3c0,0.3,0,0.3-0.1,0.4l-0.4,0.2l0,0.5c0,0.4-0.1,0.5-0.3,0.5l-0.6,0.3
	l0.1,0.3l-0.2,0.1l0.1,0.5c0,0,0,0.1-0.1,0.2l-0.4,0l-0.1,0.7c-0.1,1-0.6,1.9-1.6,2.8C113.1,392.8,112.7,393,112.2,393L112.2,393z"
	/>
<path fill-rule="evenodd" clip-rule="evenodd" fill="#4F4F4F" d="M227.8,23.5c-0.2,0-0.4-0.1-0.6-0.2c-0.1-0.1-0.2-0.2-0.2-0.5
	c0-0.8,0.3-1.5,0.8-2c0.8-0.8,1.7-1.6,2.5-2.4l1-0.9c0.3-0.2,0.4-0.2,0.5-0.3c0,0.1,0,0.1,0,0.2c0,0.2,0,0.4-0.1,0.6
	c0,0.2-0.1,0.3-0.1,0.5l0,0.1l0,0.1c0,0.7,0,0.9-0.2,1l-0.4,0.3l0,0.3l-0.4,0.1l-0.1,0.5l-0.4,0.1l-0.1,0.5l-0.4,0.1l0.1-0.1
	l-0.1,0.1l0,0.1l0,0l-0.1,0.3l0,0l-0.4,0.1l-0.2,0.5l-0.5,0.1l-0.2,0.5c0,0.1-0.1,0.3-0.4,0.4C227.9,23.5,227.8,23.5,227.8,23.5
	L227.8,23.5z"/>
<path fill-rule="evenodd" clip-rule="evenodd" fill="#4F4F4F" d="M348.3,487.9c-0.2,0-0.5-0.1-0.9-0.2l-0.2-0.1l-0.2,0
	c-0.1,0-0.2,0-0.2,0c-0.3,0-0.5-0.1-0.8-0.4l-0.3-0.3l-0.4,0c-0.1,0-0.1,0-0.2,0c-0.3,0-0.4-0.1-0.4-0.2l-0.2-0.3l-0.3-0.1
	c-1-0.2-1.8-0.8-2.7-1.7l0.1-0.2l0,0l0.1,0l0.2-0.3c0.1-0.2,0.2-0.2,0.2-0.2c0.2,0,0.4,0.1,0.7,0.2l0.1,0c0.8,0.3,1.6,0.6,2.4,1
	l1.3,0.6l0,0l0.1,0.1l0.5-0.1c0.1,0,0.2,0,0.3,0c0.3,0,0.7,0.1,1.2,0.8l0.1-1.1l1,1.3l-0.5,0.2c-0.1,0-0.2-0.2-0.3-0.3l0.2-0.5
	l-0.5,0.7l0.5,0.4l-0.2,0.1l0,0.1l-0.2,0.1C348.7,487.8,348.5,487.9,348.3,487.9z"/>
<path fill-rule="evenodd" clip-rule="evenodd" fill="#4F4F4F" d="M413.8,50.3c-0.3,0-0.6-0.1-0.9-0.2c0,0,0-0.2,0-0.2l0-0.1
	c-0.1-0.3-0.1-0.5,0.2-0.6l0.1-0.1l0.4-0.4l0-0.2l0.2-0.1l0.2-0.3l0.1-0.2l0-0.1l0.2-0.1l0.2-0.3c0.1-0.2,0.2-0.2,0.3-0.2l0.4-0.1
	l0.2-0.4l0.2,0l0.2-0.1l0.2-0.1l0.1-0.2c0.1-0.2,0.3-0.3,0.7-0.3c0.1,0,0.2,0,0.3,0l0.1,0l0.7-0.1c0.1,0,0.3,0,0.4,0
	c-0.2,1-0.8,1.6-1.9,2.1l-0.3,0.1l-0.1,0.3c-0.2,0.4-0.4,0.6-0.7,0.7l-0.4,0.2l-0.1,0.3l-0.2,0l-0.2,0.2
	C414.3,50.3,414.1,50.3,413.8,50.3L413.8,50.3z"/>
<path fill-rule="evenodd" clip-rule="evenodd" fill="#4F4F4F" d="M90,238.9c-0.7,0-1-0.1-1.3-0.6l-0.1-0.2l-0.2-0.1
	c-0.2-0.1-0.2-0.2-0.3-0.8l-0.1-0.5l-0.2-0.2c-1-0.9-1.6-1.8-1.9-2.7l0-0.1l-0.2-0.3l-0.2-0.1c-0.1,0-0.2-0.1-0.2-0.4l0-0.3
	l-0.2-0.2c-0.6-0.7-1.4-1.7-1.9-2.8c-0.1-0.2-0.1-0.4,0-0.5c0.1-0.1,0.2-0.1,0.2-0.1c0,0,0.1,0,0.3,0.1l0.2,0.1l0.2,0
	c1.4,0,2.2,0.9,2.9,2.3l0.1,0.2l0.2,0.1c0.4,0.2,0.6,0.6,0.8,1.1l0.1,0.4l0,0l-0.2,0.2l0.5,0.6l0.7,0.9l0.2-0.2
	c0.6,0.6,1.1,1.4,1.7,2.4c0.2,0.4,0.2,0.8-0.1,1.3c-0.1,0.1-0.2,0.2-0.3,0.3l0,0C90.4,238.9,90.2,238.9,90,238.9z"/>
<path fill-rule="evenodd" clip-rule="evenodd" fill="#4F4F4F" d="M274.8,484.8c-0.2,0-0.4-0.1-0.6-0.4c-0.8-1.5-1.5-3-1.8-4.5
	c-0.1-0.5,0-0.6,0.1-0.6c0.6-0.3,1.1-0.5,1.4-0.5c0.2,0,0.5,0,0.9,0.8c0.7,1.4,1.2,2.8,1.8,4.2l0.1,0.2c0.1,0.4,0.1,0.5,0.1,0.5
	c0,0-0.1,0.1-0.5,0.3c0,0-0.1,0-0.2,0c-0.1,0-0.3-0.1-0.4-0.1l-0.2,0l-0.2,0.1C275.1,484.8,275,484.8,274.8,484.8z"/>
<path fill-rule="evenodd" clip-rule="evenodd" fill="#4F4F4F" d="M449.2,433.5c-0.2,0-0.7-0.2-1.2-0.4c-0.6-0.8-0.6-1,0.2-2.3
	l0.1-0.1l0-0.1c0.1-0.2,0.3-0.4,0.8-0.6l0.3-0.1l0.1-0.3c0-0.1,0.1-0.1,0.1-0.1l0.1,0l0.2,0l0.7,0l0.1,0c0.1,0,0.3,0,0.4,0
	c0.1,0,0.2,0,0.2,0.1l0.3,0.4l0.2,0c0,0,0.1,0.1,0.1,0.1c-0.1,0.1-0.2,0.2-0.2,0.3l-0.2,0.2l0,0l-0.1,0l-0.3,0.3
	c-0.1,0.1-0.2,0.3-0.4,0.4c-0.3,0.3-0.7,0.7-0.9,1.3C449.5,432.9,449.3,433.4,449.2,433.5z"/>
<path fill-rule="evenodd" clip-rule="evenodd" fill="#4F4F4F" d="M437.9,28.1c-0.5,0-1.1-0.3-1.6-0.7c0,0,0,0,0,0c0,0,0-0.1,0.1-0.2
	c0.1-0.4,0.3-0.6,0.6-0.8l0.6,0.2l0.1-0.4c0.1-0.1,0.2-0.2,0.3-0.3l0.1-0.1l0.1-0.1l-0.1,0.1l-0.2-0.2l0.3-0.1l0.2-0.3
	c0.3-0.5,0.8-1,1.4-1.3c0.7-0.5,1.3-0.7,2-0.7c0.3,0,0.7,0.1,1.1,0.2c0.2,0.1,0.3,0.1,0.5,0.1c0.2,0,0.4,0.1,0.5,0.2
	c0,0.1,0,0.5-0.7,0.6l-0.3,0l-0.2,0.2c-0.5,0.5-1,0.9-1.6,1.4c-0.7,0.6-1.4,1.1-2.1,1.8C438.5,28,438.2,28.1,437.9,28.1z"/>
<path fill-rule="evenodd" clip-rule="evenodd" fill="#4F4F4F" d="M330.1,47.1l-0.2-0.1c-1.6-0.7-2.6-2-3.6-3.4l-0.5-0.7
	c0,0,0-0.2,0.2-0.3c0.1-0.1,0.3-0.3,0.5-0.4c0.1-0.1,0.2-0.2,0.3-0.2c0.2-0.1,0.3-0.2,0.4-0.2c0.1,0,0.2,0.1,0.3,0.1
	c0.3,0.2,0.5,0.5,0.8,0.8c0.1,0.1,0.5,0.5,0.5,0.5l0.1,0.1c0.5,0.2,0.9,0.7,1.3,1.4l0.2,0.3l0.3,0.1l0,0.2l0.2,0.3
	c0.2,0.2,0.5,0.5,0.7,0.6c-0.1,0.2-0.4,0.4-0.6,0.6l-0.2,0.2l0,0.1l-0.1,0C330.6,46.9,330.2,47.1,330.1,47.1L330.1,47.1z"/>
<path fill-rule="evenodd" clip-rule="evenodd" fill="#4F4F4F" d="M687.1,459c-0.3,0-0.7-0.1-1.2-0.3c0,0-0.1-0.1,0-0.5
	c0.2-0.7,0.5-1.4,0.8-2.2c0.1-0.3,0.3-0.6,0.4-1l0-0.1l0-0.1c0.1-1.1,0.4-1.9,0.9-2.5l0.2-0.3l0-0.3l0.1,0l0.1-0.1
	c0.1-0.1,0.2-0.2,0.3-0.3c0.1-0.1,0.2-0.2,0.2-0.3c0.3-0.1,0.8-0.2,1.1-0.2c0.3,0,0.4,0.1,0.5,0.2c0.1,0.1,0.4,0.4-0.3,1.3
	c-0.4,0.6-0.5,1.2-0.7,1.8c-0.1,0.5-0.2,1-0.5,1.3l-0.1,0.1l-0.1,0.2c-0.1,0.3-0.2,0.6-0.3,0.9c-0.2,0.6-0.3,1.2-0.6,1.7
	C687.7,458.9,687.4,459,687.1,459z"/>
<path fill-rule="evenodd" clip-rule="evenodd" fill="#4F4F4F" d="M334.5,480c-0.1,0-0.4,0-1-0.4l-0.1,0l-0.1,0
	c-0.2-0.1-0.4-0.3-0.6-0.7l-0.1-0.2l-0.3-0.3l-0.2,0l0,0l-0.1-0.2l-0.1-0.1l-0.2-0.1c-0.2-0.1-0.2-0.1-0.1-0.8l0-0.1l0-0.5
	c0.1-0.2,0.1-0.3,0.2-0.4c0.1,0,0.2,0.1,0.5,0.2c0.1,0.1,0.2,0.1,0.3,0.2l0.2,0.1c0,0,0,0,0.1,0.1c0.1,0.1,0.2,0.2,0.4,0.3l0,0.1
	l0.3,0c0,0,0.2,0.1,0.2,0.1l0.1,0.3l0.2,0.2C334.8,478,334.7,478.7,334.5,480z"/>
<path fill-rule="evenodd" clip-rule="evenodd" fill="#4F4F4F" d="M528.4,58.5c-0.2,0-0.7-0.3-0.9-0.5l-0.1-0.1l-0.1,0
	c0-0.1,0-0.2,0-0.3l0-0.3l-0.2-0.3c-0.8-1-1.1-2.2-1.1-3.9l0-0.3l-0.2-0.2c-0.4-0.4-0.3-0.7,0.1-1c0.2-0.2,0.5-0.4,0.8-0.6
	c0.1-0.1,0.2-0.1,0.3-0.2c0.1,0.1,0.2,0.3,0.5,0.8c0.1,0.1,0.2,0.2,0.2,0.3c0,0.1,0.1,0.1,0.1,0.2c0.3,1.8,0.9,3.4,1.6,5
	c0.2,0.4,0.2,0.5-0.3,0.9C529,58.2,528.5,58.5,528.4,58.5L528.4,58.5z"/>
<path fill-rule="evenodd" clip-rule="evenodd" fill="#4F4F4F" d="M445,446.5c-0.1,0-0.5-0.1-1.1-0.5l-0.1-0.1l-0.2,0
	c-0.2,0-0.5-0.2-0.5-0.6c-0.1-0.9-0.1-1.7,0.4-2.3l0.3-0.4l-0.1-0.1l0.1-0.1l-0.1-0.5c0-0.3,0-0.4,0.2-0.5l0.3-0.2l0-0.4
	c0-0.3,0.1-0.3,0.1-0.4l0.2-0.1l0.1-0.3c0.1-0.2,0.3-0.6,0.4-0.8c0.2,0,0.4,0,0.6,0.1c0.7,0.1,0.9,0.4,1.1,0.7l0.1,0.3l0.1,0.1
	c-0.3,0.7-0.6,1.4-0.9,2.1l-0.5,1.1l0,0.1c0,0.2,0,0.4,0,0.6c0,0.5,0,0.9-0.1,1.3C445.3,446,445.2,446.5,445,446.5z"/>
<path fill-rule="evenodd" clip-rule="evenodd" fill="#4F4F4F" d="M606,282.4c0,0-0.1,0-0.2-0.1c-0.3-0.2-0.5-0.4-0.5-1.2
	c0-0.8,0.1-0.9,0.4-1c0.4-0.1,0.6-0.3,0.8-0.5l0,0l0.3,0.1l0.4-0.6l0.6,0.1l0.1-0.3l1.7-0.8c1.3-0.6,2.5-1.2,3.8-1.8
	c0.1,1.1,0,1.9-0.7,2.4l-0.3,0.2l0,0.1l-0.1,0l-0.3,0.2c-0.1,0.1-0.3,0.2-0.4,0.3c-0.5,0.4-0.9,0.7-1.4,0.7h-0.4l-0.3,0.3
	c-0.1,0.2-0.2,0.2-0.3,0.2l-0.4,0l-0.1,0.1l-0.4-0.1l-0.3,0.5c0,0,0,0.1-0.1,0.1l-0.2,0l-0.4,0.2l-0.2,0.3c-0.1,0.2-0.2,0.2-0.3,0.2
	h-0.4L606,282.4z"/>
<path fill-rule="evenodd" clip-rule="evenodd" fill="#4F4F4F" d="M689.6,394.8c-0.1,0-0.3-0.1-0.3-0.2c-0.2-0.2-0.3-0.5-0.5-0.7
	c-0.1-0.1-0.4-0.6-0.4-0.6l-0.2-0.1l0-0.2l-0.2-0.3l-0.1-0.1c-0.8-0.8-1.3-1.9-1.6-3.3c0-0.2,0-0.2,0.1-0.3c0.1,0,0.1-0.1,0.2-0.1
	c0,0,0,0,0.1,0.1l0.4,0.5c1,1,1.9,2,2.3,3.3l0.1,0.3l0.3,0.2c0.1,0,0.1,0.1,0.1,0.4l0,0.2l0.1,0.2c0.2,0.4,0.1,0.5-0.2,0.6
	C689.7,394.8,689.7,394.8,689.6,394.8L689.6,394.8z"/>
<path fill-rule="evenodd" clip-rule="evenodd" fill="#4F4F4F" d="M179,112.6c-0.1,0-0.1,0-0.1,0c-0.1-0.1-0.2-0.2-0.3-0.4
	c-0.4-0.4-0.8-0.8-0.9-1.3l-0.1-0.6l-0.4-0.1l0-0.2l-0.3-0.3c-1.1-0.9-1.9-1.9-2.8-3.1c-0.5-0.7-1.1-1.4-1.7-2.1
	c-0.1-0.1-0.2-0.4-0.2-0.6c0-0.1,0.1-0.2,0.1-0.2c0.1,0.1,0.3,0.2,0.5,0.2c0.7,0.3,1.3,0.5,1.6,1.1l0.1,0.1l0.3,0.3l0.1,0l0,0.2
	l0.3,0.3c0.4,0.2,0.7,0.6,0.9,1.2l0.2,0.4l0.4,0.1l0.1,0.5l0.5,0.1l0.1,0.3l0.4,0.2c0.9,0.5,1.4,1.3,1.9,2.2
	c0.3,0.5,0.4,0.9-0.3,1.5C179.3,112.6,179.2,112.6,179,112.6L179,112.6z"/>
<path fill-rule="evenodd" clip-rule="evenodd" fill="#4F4F4F" d="M77.2,317.3c-0.2,0-0.4-0.1-0.5-0.3c-0.8-1.5-0.1-4.4,1.4-5.4
	c0,0,0.2,0,0.3,0c0.2,0,0.3,0,0.5,0l0.2,0l0.1-0.1c0.2-0.1,0.4-0.2,0.5-0.2c0.1,0,0.1,0,0.2,0c0.1,0,0.1,0.1,0.2,0.1
	c-0.7,1.2-1,2.5-1.2,3.8c-0.1,0.5-0.2,1.1-0.4,1.6c0,0-0.1,0-0.1,0.1c-0.1,0.1-0.2,0.2-0.3,0.2l-0.1,0l0,0.1c0,0.1-0.1,0.1-0.4,0.1
	L77.2,317.3z"/>
<path fill-rule="evenodd" clip-rule="evenodd" fill="#4F4F4F" d="M195.4,45.8c-1.2,0-2.5-0.1-3.9-0.4c-0.3-0.1-0.3-0.1-0.3-0.1
	l0-0.1l0-0.1c0.2-0.2,0.3-0.4,0.4-0.6c0,0,0.1,0,0.1,0c0.1,0,0.1,0,0.2,0l0.1,0l1.4-0.2l0.1-0.1c0.3-0.1,0.5-0.2,0.8-0.2
	c0.3,0,0.6,0.1,0.9,0.2l0.4,0.2l0.1-0.1l0.1,0.1l0.4-0.2c0.5-0.3,1.1-0.4,1.9-0.4c0.3,0,0.6,0,0.9,0c0.1,0,0.2,0,0.2,0.1
	c0,0,0,0.1,0,0.2l0,0.1l0,0.1c0.1,0.4,0.1,0.6-1,0.9l-0.2,0.1l-0.1,0.1c-0.1,0.1-0.1,0.1-0.2,0.2C197,45.7,196.2,45.8,195.4,45.8
	L195.4,45.8z"/>
<path fill-rule="evenodd" clip-rule="evenodd" fill="#4F4F4F" d="M290.9,491.3c-0.3,0-0.5,0-0.8-0.1c-0.2-0.2-0.2-0.3-0.3-0.4
	c0,0,0.1-0.2,0.4-0.6l0.2-0.2l0-0.3l0.4-0.2l0-0.6c0-0.3,0.1-0.4,0.1-0.4l0.4-0.2l0-0.5c0-0.4,0.1-0.5,0.2-0.5l0.4-0.2l0-0.3l0.2,0
	l0.2-0.3c0.1-0.1,0.1-0.1,0.3-0.1c0.1,0,0.2,0,0.3,0c0.2,0,0.3,0,0.5,0c0.6,0.1,0.8,0.2,0.8,0.2l0,0c0,0,0,0.2-0.3,1l-0.1,0.2l0,0.2
	c0,0.2-0.1,0.3-0.2,0.4l-0.4,0.2l0,0.5c0,0.4-0.1,0.4-0.2,0.5l-0.4,0.3l0,0.5c0,0.1,0,0.1-0.1,0.2l-0.1,0.1l-0.1,0.1
	C291.9,491.1,291.4,491.3,290.9,491.3z"/>
<path fill-rule="evenodd" clip-rule="evenodd" fill="#4F4F4F" d="M59.9,199.1c-0.3,0-0.5-0.1-0.7-0.2c-1-0.7-1.5-1.4-1.7-2.2
	c-0.8-2.9-1.1-5.2-1-7.3c0-0.7,0.2-0.8,0.4-0.8l0.3-0.1l0,0l0.1,0.1c0.5,0.3,0.6,0.8,0.7,1.6l0.1,0.4c0.2,0.7,0.3,1.3,0.3,2
	l-1.2-0.5l0.7,2c0.1,0.2,0.1,0.3,0.2,0.5l0.5-0.1c0.3,1.2,0.7,2.3,1.3,3.6l0.1,0.2l0.2,0.1c0.1,0.1,0.2,0.2,0.2,0.3
	c0,0.5-0.1,0.5-0.3,0.5C60.1,199.1,60,199.1,59.9,199.1z"/>
<path fill-rule="evenodd" clip-rule="evenodd" fill="#4F4F4F" d="M297.8,41.7c-0.1-0.1-0.3-0.3-0.7-0.8l-0.2-0.2l-0.1,0l0-0.2
	l-1.4-4.1l-0.1-0.2c-0.2-0.2-0.3-0.5-0.4-1c0-0.1,0-0.3-0.1-0.4c-0.1-0.3,0-0.6,0.4-1.1c0.5-0.6,0.7-0.6,0.8-0.6c0,0,0.2,0,0.7,0.6
	l0.1,0.2c0.3,0.4,0.5,0.7,0.5,1l0,0.3l0.2,0.3l0.2,0.3c0.5,0.9,0.9,1.7,0.9,2.7l0,0.2l0.1,0.2c0.5,0.9,0.4,1.1,0.1,1.4l-0.1,0.1
	l-0.1,0.1c-0.1,0.1-0.1,0.2-0.2,0.4c-0.1,0.2-0.1,0.3-0.2,0.4C298.1,41.5,297.9,41.6,297.8,41.7z"/>
<path fill-rule="evenodd" clip-rule="evenodd" fill="#4F4F4F" d="M189.1,128.8c-0.1-0.1-0.2-0.3-0.5-0.7c0-0.1-0.1-0.2-0.2-0.3
	c0,0-0.1-0.1-0.1-0.1c0-2.3-0.6-4.4-1.9-6.6c-0.2-0.4-0.3-0.6-0.2-0.7c0-0.1,0.2-0.2,0.6-0.3c0.1-0.1,0.3-0.1,0.4-0.2
	c0.2-0.1,0.5-0.2,0.6-0.2c0,0,0.1,0,0.2,0.1l0.3,0.3l0,0l0.1,0.2l0.3,0c1.3,1.9,2.6,4.2,2.4,7c0,0.5-0.1,0.5-0.2,0.6l-0.4,0.2l0,0.3
	c0,0-0.5,0-0.5,0l-0.2,0.1C189.4,128.6,189.2,128.7,189.1,128.8z"/>
<path fill-rule="evenodd" clip-rule="evenodd" fill="#4F4F4F" d="M127.8,438.4c-0.4,0-0.9-0.1-1.3-0.2c-0.1,0-0.4-0.1-0.4-0.3
	c-0.1-0.3,0-0.3,0.1-0.4l0.2-0.1l0.1-0.2c0.6-0.8,1.2-0.9,1.5-0.9c0.1,0,0.3,0,0.5,0.1l0.1,0l2.1-0.1l0.2-0.2
	c0.4-0.3,0.9-0.4,1.5-0.4c0.3,0,0.7,0,1.1,0.1c0.2,0,0.3,0.1,0.3,0.3c0.1,0.2,0,0.4-0.1,0.6c-0.6,0.7-1.2,1-2.1,1l0,0
	c-0.1,0-0.3,0-0.4,0l-0.4,0l-0.3,0.3c-0.2,0.2-0.4,0.2-0.7,0.2c-0.1,0-0.3,0-0.4,0l-0.2,0l-0.2,0.1
	C128.6,438.4,128.2,438.4,127.8,438.4z"/>
<path fill-rule="evenodd" clip-rule="evenodd" fill="#4F4F4F" d="M396.9,448.7c-0.1,0-0.2,0-0.2-0.2l0.1-0.3
	c0.5-0.7,1.1-1.2,1.9-1.5l-0.1,0.2L398,448l1.2,0.1l1.4,0c-0.7,0.2-1.4,0.3-2.2,0.4C398,448.6,397.5,448.6,396.9,448.7L396.9,448.7z
	 M400.2,446.9v-0.6c0.3,0,0.7-0.1,1.1-0.1l0.7,0l0.3-0.4c0.1,0,0.1,0,0.2,0c0,0,0.1,0,0.1,0l0.2,0l0.2,0c0.2,0,0.4-0.1,0.6-0.1
	c0.2,0,0.4-0.1,0.6-0.1c0.1,0,0.2,0,0.4,0.2l0,0.1l0.1,0.1l1-0.8l-0.7,1c0.1,0,0.1,0.1,0.1,0.2c0,0.1,0,0.3-0.2,0.5
	c-0.5,0.5-1.1,0.7-1.7,0.7l0,0c-0.2,0-0.4,0-0.6-0.1l-0.3-0.1l-0.3,0.2c-0.2,0.1-0.4,0.2-0.6,0.3L400.2,446.9z"/>
<path fill-rule="evenodd" clip-rule="evenodd" fill="#4F4F4F" d="M143.7,434.3c-0.7,0-1-0.5-1.4-1.6c-0.1-0.2-0.3-0.7,0.5-1l0.3-0.1
	l0.1-0.3c0-0.1,0.1-0.1,0.2-0.2l-0.3,1l2.3-1.9c0.3-0.3,0.5-0.3,0.6-0.3c0.2,0,0.4,0.2,0.5,0.4c0.1,0.1,0.2,0.2,0.3,0.3
	c0.2,0.2,0.3,0.3,0.4,0.4c0.1,0.1,0.2,0.4,0.2,0.4c-0.1,0.2-0.2,0.3-0.4,0.3l-0.2,0l-2.6,1.9l-0.2,0.3l0,0l-0.1,0
	C143.9,434.2,143.9,434.2,143.7,434.3C143.8,434.3,143.8,434.3,143.7,434.3z"/>
<path fill-rule="evenodd" clip-rule="evenodd" fill="#4F4F4F" d="M579.2,124.7c-1.3,0-2.3-0.1-3.2-0.2c-0.1-0.1-0.2-0.2-0.2-0.2
	l-0.1-0.1l-0.1,0c-0.2-0.1-0.3-0.2-0.4-0.8c0-0.2-0.1-0.4-0.1-0.5c0-0.1,0-0.2,0-0.3c0-0.1,0.1-0.1,0.3-0.1c0.6-0.1,1.3-0.2,2.1-0.2
	c0.1,0,0.2,0,0.3,0l-0.6,0.4l1.2,0.8l2.1,1.2l-0.8-2.2l0.3,0l0.7,0l0.1,0c0.4-0.1,0.8-0.1,1.1-0.1c1,0,1.7,0.4,2.2,1.3l0.1,0.2
	l0.1,0.1c0,0,0,0,0,0c-0.3,0.4-0.9,0.8-1.6,0.8c-0.5,0-1,0-1.6,0C580.4,124.7,579.8,124.7,579.2,124.7
	C579.2,124.7,579.2,124.7,579.2,124.7z M579.2,122.3l0.2,0l-0.8,0.7L579.2,122.3z"/>
<path fill-rule="evenodd" clip-rule="evenodd" fill="#4F4F4F" d="M160.8,419.7c-0.1-0.1-0.2-0.2-0.2-0.3l0.3-0.2l0-0.4
	c0-0.2,0-0.3,0-0.3l0.2-0.1l0.2-0.2c0.6-0.6,1.3-0.9,2.1-0.9c0.2,0,0.4,0,0.6,0.1l0.4,0.1l0.2-0.2l0.7,0.2l0.1-0.6l0,0l0.2-0.1
	c0.3-0.1,0.7-0.2,1.1-0.2c0.4,0,0.8,0.1,1.3,0.2c0,0,0,0,0,0c0,0,0.1,0.2,0,0.8l0,0.1l0,0.1c0,0.8-0.3,1.1-1.1,1.2
	c-0.5,0.1-1,0.1-1.5,0.2l-0.8,0.1l-0.1,0.1c-1,0.4-2.1,0.5-3.2,0.5L160.8,419.7z"/>
<path fill-rule="evenodd" clip-rule="evenodd" fill="#4F4F4F" d="M271.9,471.9c0,0-0.1,0-0.1-0.1c-0.7-0.5-0.8-1.1-0.8-1.4
	c0.1-0.9,0.1-1.7,0.2-2.6l0.1-0.9l0-0.1c-0.1-0.8,0.1-1.2,0.3-1.3l0.2-0.2c0.4-0.4,0.6-0.6,0.9-0.6c0,0,0.1,0,0.1,0
	c0.3,0.1,0.4,0.1,0.5,1.1c0,0.5,0.1,1.1,0.1,1.6c0,0.7,0.1,1.4,0.1,2.1c0.1,0.9-0.2,1.5-1.1,1.9l-0.2,0.1L271.9,471.9
	C271.9,471.8,271.9,471.8,271.9,471.9z"/>
<path fill-rule="evenodd" clip-rule="evenodd" fill="#4F4F4F" d="M454,20.7c-0.3,0-0.3-0.1-0.3-0.1c-0.2-0.4,0-0.5,0.1-0.6
	c0.7-0.5,1.3-1,2-1.4c0.2-0.1,0.3-0.2,0.5-0.3c0.6-0.3,1.1-0.6,1.6-0.6h0.2l0.3-0.1c0.4-0.2,0.7-0.3,0.9-0.3c0.1,0,0.3,0,0.6,0.3
	l0.3,0.3l0.1,0c0.1,0.1,0.2,0.2,0.2,0.3c0,0,0,0,0,0c-0.5,0.3-0.8,0.5-1.2,0.5h-0.6l-0.2,0.4l-0.2,0l-0.3,0.2
	c-0.8,0.6-1.6,1-2.5,1.1l-0.3,0.1l-0.2,0.2c-0.1,0.1-0.3,0.2-0.8,0.2L454,20.7z"/>
<path fill-rule="evenodd" clip-rule="evenodd" fill="#4F4F4F" d="M285.5,494.6c-0.4,0-0.9-0.2-1.3-0.5l-0.2-0.1l-0.3,0
	c-0.1,0-0.2,0-0.2,0c-0.3,0-0.5-0.1-0.6-0.3l-0.1-0.2l-0.2-0.1l-0.1,0c-1-0.4-1.9-1.2-2.7-1.9c-0.5-0.5-0.6-1.2-0.4-1.4
	c0.1-0.1,0.2-0.2,0.4-0.2c0.3,0,0.6,0.1,1,0.4c0.3,0.2,0.6,0.4,0.9,0.6c0.7,0.5,1.5,1.1,2.5,1.3l0.3,0.1l0.3-0.1c0.1,0,0.1,0,0.2,0
	c0.1,0,0.1,0,0.2,0.1l0.3,0.2l0,0.1l0.3,0.2c0.3,0.2,0.5,0.5,0.7,1.1c0.1,0.3,0.1,0.4,0.1,0.4l-0.1,0.1l-0.1,0.1
	C285.9,494.6,285.6,494.6,285.5,494.6L285.5,494.6z"/>
<path fill-rule="evenodd" clip-rule="evenodd" fill="#4F4F4F" d="M650.2,485.3c-0.7,0-1.3-0.3-2-0.7c-0.4-0.2-0.5-0.3-0.5-0.3
	c0.1-0.3,0.3-0.4,0.5-0.5c1.6-0.2,2.8-0.3,4-0.3c0.8,0,1.6,0.1,2.4,0.2c0.1,0.1,0.1,0.1,0.2,0.2l0.1,0.1l0.3,0.2l0.2,0
	c0.2,0,0.2,0.1,0.2,0.1l0.1,0.1l0.1,0.1c0.2,0.1,0.4,0.2,0.5,0.3c0,0.1-0.1,0.2-0.2,0.4l0,0.1l-0.6,0l-1.7,0
	C652.5,485.3,651.4,485.3,650.2,485.3L650.2,485.3z"/>
<path fill-rule="evenodd" clip-rule="evenodd" fill="#4F4F4F" d="M360.7,488.3c0,0-0.1-0.2-0.1-0.2l0,0c-0.1-0.2-0.1-0.3-0.1-0.4
	l1.6,0l0.6,0c-0.1,0-1.1,0.4-1.1,0.4l-0.1,0.2l-0.1,0l-0.2,0.1C361.2,488.2,360.9,488.3,360.7,488.3
	C360.8,488.3,360.7,488.3,360.7,488.3z M363,486.4l-0.3-0.7l1.1-0.6l0.1-0.2c0.3-0.3,0.7-0.4,1.4-0.4c0.4,0,0.8,0.2,0.9,0.4
	c0.1,0.2,0,0.5-0.2,0.7c-0.1,0.1-0.2,0.2-0.3,0.3c-0.1,0.1-0.1,0.1-0.2,0.2l-0.2,0.2l-0.2,0l-0.1,0.2l-0.2,0l-0.2,0.2
	c-0.4,0.3-0.8,0.5-1.3,0.7L363,486.4z"/>
<path fill-rule="evenodd" clip-rule="evenodd" fill="#4F4F4F" d="M616.1,264.2c-0.1,0-0.2,0-0.4-0.1c-0.6-0.2-0.8-0.5-0.8-0.8
	l-0.1-0.5l-0.4-0.2V262l-0.5-0.2c-0.5-0.3-0.9-0.7-1.3-1.2c-0.4-0.8-0.4-1.2,0.2-2c0.2-0.3,0.3-0.3,0.3-0.3c0,0,0.1,0,0.3,0.1
	c1.5,0.9,2.6,2.2,3.4,3.6c0.1,0.2,0.3,0.5,0.3,0.6c0,0.2-0.5,0.7-0.8,1.1l-0.1,0.1l-0.1,0.1C616.2,264.2,616.2,264.2,616.1,264.2
	L616.1,264.2z"/>
<path fill-rule="evenodd" clip-rule="evenodd" fill="#4F4F4F" d="M663.6,379.7c-0.4,0-1.1-0.4-1.4-0.5l-0.1-0.1l-1.7-0.2
	c-1.1-0.1-2.2-0.2-3.4-0.3c-0.3,0-0.6-0.3-0.9-0.6c-0.2-0.3-0.3-0.7-0.2-1c0-0.1,0.1-0.3,0.4-0.3c0.8-0.1,1.6-0.1,2.2-0.1
	c1.9,0,3.4,0.4,4.8,1.1l0.1,0c1,1.2,0.7,1.7,0.5,1.9C663.8,379.7,663.7,379.7,663.6,379.7L663.6,379.7z"/>
<path fill-rule="evenodd" clip-rule="evenodd" fill="#4F4F4F" d="M639.7,484.5c-0.2,0-0.5-0.1-0.8-0.2l-0.2-0.1c0,0-0.4,0-0.4,0
	c-0.5,0-0.7-0.1-0.8-0.3l-0.2-0.2l-0.5-0.2c-0.7-0.2-1.3-0.5-1.8-0.9l-0.3-0.3l-0.3,0l-0.2-0.5l-0.4,0.1l-0.1-0.2c0,0-0.5,0-0.5,0
	c-0.3,0-0.4-0.1-0.5-0.2l-0.3-0.3l-0.4,0l-0.3-0.2l-0.3,0l-0.3-0.4l-0.4,0c-0.3,0-0.4-0.1-0.5-0.3l0,0c0.1-0.1,0.2-0.1,0.3-0.1
	l0.1,0l0.1,0c0.5-0.2,1-0.3,1.4-0.3c0.5,0,1,0.1,1.8,0.4c0.2,0,0.3,0.1,0.4,0.1l0.3,0.1l0.1,0l0.2,0.2l0.5-0.1
	c-0.1,0-0.3-0.1-0.3-0.2l0.7-1.1l-0.1,1.7c1.1,0.2,2.1,0.7,3.2,1.3c0.8,0.5,1.7,0.9,2.6,1.2c0,0,0,0.2-0.2,0.4c0,0-0.1,0.1-0.4,0.1
	l-0.2,0l-0.2,0.1C640.2,484.4,639.9,484.5,639.7,484.5L639.7,484.5z"/>
<path fill-rule="evenodd" clip-rule="evenodd" fill="#4F4F4F" d="M512.1,31.3c-0.2,0-0.4-0.1-0.7-0.3l-3.1-2.5c0,0-0.7-0.4-1.1-0.6
	c-0.8-0.5-1.7-1-2.4-1.5c0,0,0-0.2,0.1-0.3c0.1-0.1,0.2-0.1,0.3-0.2c0.4-0.3,0.7-0.5,1.1-0.5c0.1,0,0.1,0,0.2,0l0.3,0.1l0.3-0.1
	c0.2-0.1,0.3-0.1,0.5-0.1c0.1,0,0.5,0,0.9,0.7l0.1,0.2l0.2,0.1c0.2,0.1,0.5,0.3,0.8,0.4c0.7,0.4,1.4,0.7,1.8,1.3l0.1,0.2l0.2,0.1
	c0.7,0.3,1.4,0.8,2,1.4l0.4,0.4c0.2,0.1,0.1,0.2,0,0.4l0,0l0,0c-0.3,0.5-0.8,0.6-1.6,0.8l-0.2,0.1C512.2,31.3,512.1,31.3,512.1,31.3
	z"/>
<path fill-rule="evenodd" clip-rule="evenodd" fill="#4F4F4F" d="M81.1,225.7c-0.2-0.1-0.5-0.3-0.8-0.4l-0.6-0.3l-0.2,0.2
	c-0.5-0.1-0.9-0.4-1.5-1c-0.5-0.5-1-1.1-1.5-1.6l-0.7-0.8l-0.2-0.1c-0.3-0.1-0.6-0.4-0.7-1.1l-0.1-0.5l-0.4-0.1l0-0.1l-0.1-0.2
	l-0.1-0.2l-0.2-0.1c-0.1-0.1-0.2-0.2-0.2-0.4l0-0.3l-0.2-0.2c-0.3-0.4-0.2-0.5-0.1-0.7c0.1-0.1,0.2-0.2,0.3-0.2c0.1,0,0.3,0,0.5,0.1
	c0.1,0.1,0.3,0.1,0.4,0.2c0.1,0.1,0.4,0.2,0.4,0.2l0.2,0c0.1,0,0.2,0.1,0.5,0.6l0.1,0.2l0.2,0.1c0.1,0.1,0.2,0.2,0.3,0.2
	c0.1,0.1,0.3,0.2,0.3,0.2c0.6,0.9,1.5,1.8,2.6,2.6v0.3l0.2,0c0,0,0.1,0.1,0.1,0.1l0.1-0.1l0.2,0l0.1,0.4l0.5,0.2l0.1,0.4l0.2,0.2
	c0.5,0.4,1,0.7,1.1,0.9c0,0.1-0.2,0.4-0.3,0.8C81.3,225.6,81.1,225.7,81.1,225.7z"/>
<path fill-rule="evenodd" clip-rule="evenodd" fill="#4F4F4F" d="M622.5,340.4c-0.2,0-0.4-0.1-0.5-0.2c-0.2-0.2-0.5-0.6,0.3-1.8
	l0.3-0.4l0,0l0.1,0l-0.1-0.6l0.2-0.1l0.1-0.2c0.1-0.2,0.2-0.4,0.2-0.6c0.2-0.4,0.3-0.8,0.5-1.2c0.5-0.9,1.1-1.2,2.2-1.2
	c0.1,0,0.3,0,0.4,0c0,0.1,0,0.2-0.1,0.4c-0.3,0.6-0.6,1.3-0.9,2c-0.5,1.1-1.1,2.3-1.5,3.5c0,0-0.2,0.1-0.3,0.2
	C623.2,340.2,622.8,340.4,622.5,340.4z"/>
<path fill-rule="evenodd" clip-rule="evenodd" fill="#4F4F4F" d="M637.3,222.8c-0.1-0.1-0.2-0.2-0.5-0.6c-0.6-0.9-0.5-1.7,0.1-3
	l-1.6-0.1l1.7-0.3c-0.1-1.1,0.2-2.1,1.1-3.4l0.1-0.2l0-0.2c0-0.4,0.2-0.7,1.1-1c0.1,0,0.1,0,0.2,0c0,0,0,0,0,0c0,0,0,0,0.1,0.1
	l0.1,0.2l0.1,0.2c0.5,0.5,0.6,1,0.3,1.8c-0.3,0.9-0.7,1.8-1.1,2.7c-0.2,0.4-0.3,0.8-0.5,1.2l-0.1,0.2l0,0.2c0,0.4,0,0.8-0.1,1.1
	l-0.1,0.3l0,0.3c0,0,0-0.1,0-0.1l0.9,0.6l-1.2-0.4l0,0c0,0,0,0,0,0l-0.1,0c0,0.1,0,0.1-0.1,0.2C637.5,222.7,637.4,222.8,637.3,222.8
	z"/>
<path fill-rule="evenodd" clip-rule="evenodd" fill="#4F4F4F" d="M157.9,49.9c-1.1,0-2.3-0.1-3.4-0.1l-1.4-0.1c-0.3,0-0.4,0-0.6,0
	c-0.3,0-0.5,0-0.8,0l0,0c-0.6,0-1-0.1-1.3-0.4c-0.2-0.1-0.3-0.2-0.4-0.3c0.1-0.1,0.1-0.1,0.2-0.3c0.3-0.3,0.6-0.4,1.1-0.4
	c0.3,0,0.5,0,0.8,0.1l0.3,0l0.7,0l1.4-0.1l0.2-0.1l0.2,0.1l0.3,0h0.2l0,0l1.4-0.2c1.3-0.2,2.7-0.3,4-0.4c0.1,0,0.2,0,0.4,0
	c0.4,0,0.5,0.1,0.6,0.2l0,0.1c0,0,0.2,0.2,0.3,0.3c-0.1,0.1-0.1,0.1-0.2,0.2l-0.5,0.3l-0.1,0c-0.8,0.7-1.8,1-3.1,1L157.9,49.9z"/>
<path fill-rule="evenodd" clip-rule="evenodd" fill="#4F4F4F" d="M57.9,98.7c0,0-0.1,0-0.1-0.1l-0.3-0.2l-0.1,0l-0.1-0.2l-0.4-0.2
	c-0.2-0.1-0.4-0.2-0.6-0.6l-0.2-0.4L55.8,97l0-0.1l1.5,1l1.2,0.7l-0.2,0L58,98.6C58,98.7,57.9,98.7,57.9,98.7z M58.6,96.9l-0.2-0.7
	c0.4,0.5,0.9,1.1,1.3,1.6c0.1,0.1,0.1,0.2,0.1,0.2c0,0-0.1,0.1-0.3,0.2c-0.2,0.1-0.3,0.2-0.5,0.3L58.6,96.9z M55.8,96.7l-0.1-0.1
	l0.1-0.4L55.3,96l0.1-0.4l-0.1-0.1l0.1-0.1L55,95c-0.6-1-0.6-2.1-0.5-3.3c0-0.5,0.2-0.7,0.4-0.8l0.1-0.1l0.2-0.3l0.1-0.2
	c0,0,0.3,0,0.3,0l0.2,0l0.2-0.1c0.1-0.1,0.3-0.2,0.4-0.3c0.1,0.1,0.2,0.1,0.2,0.2c0,0.1,0.2,0.2,0.2,0.3c0.1,0.9,0.1,1.9,0.2,2.8
	l0.1,1.2c0,0,1.2,1.4,1.3,1.6l-2.5,0.8L55.8,96.7z"/>
<path fill-rule="evenodd" clip-rule="evenodd" fill="#4F4F4F" d="M319.7,35.8c-0.3,0-0.5-0.1-0.7-0.2l-0.3-0.3l-0.2,0l-0.2-0.1
	l-0.4,0c0,0-0.1,0-0.1,0c-0.1,0-0.1,0-0.2-0.1l-0.1-0.2l-0.2-0.1c-1.2-0.8-2-2-2.6-3.2l-0.1-0.2l-0.2-0.1c-0.4-0.3-0.6-0.7-0.7-1.1
	c0-0.2,0.1-0.4,0.1-0.5c0.1-0.1,0.3-0.2,0.4-0.2c0,0,0.1,0,0.1,0c0.8,0.2,1.3,0.5,1.7,1c0.4,0.6,0.9,1.2,1.3,1.8l0.6,0.8l0.1,0.1
	c1,0.7,1.7,1.4,2.2,2.2c0,0.1,0.1,0.2,0,0.2c0,0.1-0.1,0.1-0.2,0.1C320,35.8,319.8,35.8,319.7,35.8z"/>
<path fill-rule="evenodd" clip-rule="evenodd" fill="#4F4F4F" d="M626.6,265.8c0,0-0.1-0.1-0.2-0.2c-0.5-0.5-0.8-1.1-0.1-2.2
	l0.2-0.4l0-0.1l0-0.1c0.1-0.3,0.2-0.6,0.3-0.9c0.2-0.8,0.4-1.4,1-1.7c0.2-0.1,0.4-0.1,0.5-0.2c0,0.1,0.1,0.4,0.1,0.8l0,0.1l0,0.1
	c0.3,1.3-0.1,2.5-1.1,4l-0.1,0.2l0,0.1l-0.1,0l-0.2,0.1C626.8,265.8,626.7,265.8,626.6,265.8z"/>
<path fill-rule="evenodd" clip-rule="evenodd" fill="#4F4F4F" d="M611.8,462.9c-0.2,0-0.4-0.1-0.6-0.1c-0.1,0-0.4-0.1-0.4-0.1
	l-0.8-0.1c0,0-0.2,0-0.2,0c0,0-0.1,0-0.1-0.1l-0.1-0.2l-0.2-0.2c-1.5-1.1-2.8-2.4-4.1-3.7l-0.6-0.6c-0.4-0.4-0.3-0.5-0.3-0.6
	c0-0.1,0.1-0.3,0.5-0.3c1.4,0.1,2.1,0.4,2.6,1.2l0.1,0.1l0.3,0.3l0.2,0l0.1,0.3l0.4,0.2c0.5,0.2,0.7,0.4,0.8,0.6l0.2,0.4l0.4,0.1
	l0.1,0.4l0.4,0.2c0.6,0.3,1,0.8,1.5,1.4l0.2,0.2c0.2,0.2,0.1,0.4,0.1,0.5c0,0-0.1,0.1-0.2,0.1C611.9,462.9,611.9,462.9,611.8,462.9z
	"/>
<path fill-rule="evenodd" clip-rule="evenodd" fill="#4F4F4F" d="M372.4,65.9c-0.5,0-1.1-0.2-1.7-0.3l-0.3-0.1l-0.2,0
	c-0.2,0-0.4,0-0.6,0c-0.5,0-1-0.1-1.3-0.3C368,65,368,65,368,64.8c0-0.1,0-0.1,0.1-0.1c0.5-0.2,1.1-0.3,1.7-0.3c0.2,0,0.3,0,0.5,0
	c0.3,0,0.7,0,1,0.1c0.8,0,1.6,0.1,2.3,0.2c0.2,0.1,0.5,0.1,0.8,0.1c0.5,0.1,0.8,0.1,1.1,0.2c-0.5,0.2-1.1,0.4-1.9,0.4l-0.2,0
	l-0.2,0.1C373.1,65.8,372.7,65.9,372.4,65.9C372.4,65.9,372.4,65.9,372.4,65.9z"/>
<path fill-rule="evenodd" clip-rule="evenodd" fill="#4F4F4F" d="M420.4,463.4c-0.1,0-0.2,0-0.4-0.1l-0.1-0.1l0-0.3l-0.2-0.1
	c-0.3-0.9-0.2-1.9,0-2.9c0.1-0.3,0.1-0.6,0.1-0.9c0-0.3,0-0.5,0-0.6c0-0.4,0-0.7,0-1c0-0.1,0-0.3,0.4-0.3l0,0c0.1,0,0.2,0.2,0.2,0.2
	c0,0.1,0,0.3,0.1,0.6c0,0.1,0,0.3,0,0.4l0,0.1l0.1,0.1c0.6,1.4,0.5,2.9,0.3,4.5l0,0.2c0,0-0.1,0-0.1,0.1
	C420.7,463.3,420.5,463.4,420.4,463.4L420.4,463.4z"/>
<path fill-rule="evenodd" clip-rule="evenodd" fill="#4F4F4F" d="M309.4,74.2c-0.3,0-0.4-0.1-0.6-0.3l-0.1-0.2l-0.4-0.2l0,0
	l-0.1-0.3l-0.3-0.1l0,0l-0.1-0.2l-0.1-0.2l-0.2-0.2c-0.2-0.1-0.2-0.2-0.2-0.3l0-0.5l-0.5-0.3c-0.1-0.1-0.2-0.1-0.2-0.4l0-0.5
	l-0.3-0.1l0-0.3l-0.1-0.1l0.1-0.4l-0.5-0.3c-0.1-0.1-0.2-0.1-0.1-0.5l0-0.5l-0.4-0.3c-0.2-0.1-0.3-0.3-0.3-0.5c0-0.1,0-0.3,0-0.3
	c0.1-0.2,0.4-0.2,0.8-0.3c0,0,0.3-0.1,0.4-0.1c0.2-0.1,0.4-0.1,0.6-0.1c0.1,0,0.1,0,0.2,0.1c0.8,0.9,1.4,2,1.9,3.1
	c0.3,0.6,0.6,1.2,0.9,1.8L310,72l0.3,0.1l0,0.5l0.4,0.2c0.1,0,0.1,0.1,0.1,0.6l0,0.2c0,0.3,0,0.4,0,0.5c0,0,0,0,0,0c0,0-0.1,0-0.3,0
	c-0.1,0-0.3,0-0.4,0.1C309.8,74.2,309.6,74.2,309.4,74.2L309.4,74.2z"/>
<path fill-rule="evenodd" clip-rule="evenodd" fill="#4F4F4F" d="M443.8,460.1c-0.6-0.1-0.7-0.1-0.8-0.3l-0.1-0.2l-0.2-0.1
	c-0.1-0.1-0.2-0.2-0.1-0.4l0-0.1l-0.2-1.3l0-0.1c-0.6-1.3-0.6-2.1-0.1-2.9l0.9-1.3h-0.7c0-0.1,0.1-0.2,0.2-0.2l0.2-0.1l0.1-0.2
	l0.1-0.1c0.1,0,0.2,0,0.3,0.1c0.1,0,0.2,0.1,0.2,0.2c0,0.5,0,1.1,0,1.7c0,0.3,0,0.5,0,0.8l0,0.4l0.1,0.1l0,0.2l0.2,0.3
	c0.7,0.9,0.7,1.9,0,3.4l-0.1,0.2C443.9,459.9,443.9,460.1,443.8,460.1L443.8,460.1z"/>
<path fill-rule="evenodd" clip-rule="evenodd" fill="#4F4F4F" d="M525.5,492.5c-0.3,0-0.5,0-0.8,0c-1.1-0.1-1.7-0.6-1.9-1.7
	c0,0,0,0,0.1,0c0.4-0.2,0.5-0.2,0.6-0.2c0.2,0,0.3,0,0.4,0c1.1,0,2.1-0.3,3.1-0.6c0.2-0.1,0.9-0.3,0.9-0.3l0.2-0.2
	c0.2-0.2,0.6-0.3,1.1-0.3l0.1,0c0.1,0,0.1,0,0.2,0c0.3,0,0.4,0.1,0.5,0.1c0.1,0.1,0.1,0.4-0.1,0.9c-0.1,0.4-0.2,0.5-0.3,0.6
	l-0.2,0.1l-0.1,0.2C528.5,492.1,527.4,492.5,525.5,492.5C525.5,492.5,525.5,492.5,525.5,492.5z"/>
<path fill-rule="evenodd" clip-rule="evenodd" fill="#4F4F4F" d="M690.2,444.4c0,0-0.1-0.1-0.1-0.5c0,0,0-0.1,0-0.1
	c0.1-0.1,0.1-0.2,0.2-0.3l0.1-0.1l0.1-2.4c0-0.4,0.1-0.5,0.2-0.6l1.3-1L691,439c0,0,0,0,0,0c0-0.6,0.1-1,0.3-1.3l0.5-0.5l-0.1-0.2
	l0-0.4c-0.1-1,0.3-1.6,1.2-2c0.1,0,0.1,0,0.2,0c0.1,0,0.1,0,0.2,0c0.2,0.1,0.2,0.1,0.1,0.2l0,0.2l0,0.2c0.1,0.6,0.1,1.2,0,1.9
	l-0.3,1.6c-0.2,1.1-0.4,2.1-0.6,3.2c-0.2,1.1-0.7,1.8-1.6,2.2C690.5,444.3,690.3,444.4,690.2,444.4L690.2,444.4z"/>
<path fill-rule="evenodd" clip-rule="evenodd" fill="#4F4F4F" d="M55.4,81.2l-0.1,0L55.2,81c-0.1-0.1-0.1-0.2,0-0.4l0.1-0.2
	l-0.1-0.3c-0.1-0.3,0-0.3,0.1-0.4l0.2-0.1l0.4-0.9l0-0.2l0.3-0.2l0.1-0.3c0.1-0.5,0.4-0.9,0.8-1.4c0.1-0.1,0.2-0.3,0.3-0.4l0.2-0.3
	l0-0.1l0.3-0.1l0.1-0.5c0-0.1,0-0.1,0.1-0.2l0.4-0.2l0-0.1l0.2-0.2c0.1-0.1,0.4-0.2,0.8-0.2c0.1,0,0.2,0,0.3,0c0.3,0,0.5,0,0.5,0.1
	c0,0.1-0.1,0.4-0.3,1.1l-0.6,1.4l-0.2,0.1l0,0.3l0,0l0,0l0,0.1c0,0.2-0.1,0.4-0.3,0.5l-0.2,0.2l-0.1,0.3c-0.1,0.2-0.1,0.3-0.3,0.5
	l-0.2,0.1l-1.9,0.4l0.9,0.7L57,81.1l-0.1,0l-0.2,0.2c-0.1,0-0.1,0-0.2-0.1L56,81.1l-0.4,0.4C55.6,81.5,55.4,81.2,55.4,81.2z"/>
<path fill-rule="evenodd" clip-rule="evenodd" fill="#4F4F4F" d="M588.2,254.7C588.1,254.7,588.1,254.7,588.2,254.7l-0.2-0.3l-0.2,0
	l-0.1-0.2c-0.5-1.2-0.3-1.3,0-1.4c0.4-0.3,0.9-0.5,1.5-0.7c0.2-0.1,0.4-0.2,0.6-0.2h0.3l0.3-0.4l0.2,0l0.2-0.1
	c0.3-0.1,0.6-0.2,0.8-0.2c0.3,0,0.6,0.1,0.9,0.2l0,0l0,0.2l0.4,0.2c0.3,0.2,0.4,0.5,0.6,1c0,0.2,0,0.3,0,0.3c0,0,0,0,0,0
	c0,0-0.1,0-0.2,0l-0.4,0l-0.1,0l-0.4,0.3c-0.3,0.3-0.8,0.3-1.4,0.3c-0.2-0.1-0.4-0.1-0.7-0.1l-0.1,0.5c-0.4,0.4-1,0.5-1.7,0.7
	l-0.3,0.1C588.2,254.7,588.2,254.7,588.2,254.7z"/>
<path fill-rule="evenodd" clip-rule="evenodd" fill="#4F4F4F" d="M78.6,332.6c0,0,0,0-0.1-0.1l-0.1-0.3l0-0.2l-0.6-0.2l0-0.3
	l-0.2-0.3c-1.4-1.6-1.6-3.7-1.7-5.8l0-0.3c0-0.3,0.2-0.6,0.3-0.6c0,0,0,0,0,0c0.1,0,0.3,0,0.6,0.4c0,0,0.1,0.2,0.1,0.3
	c0,0.1,0.1,0.2,0.1,0.3l0,0.1l0.1,0.1c0.8,1.1,0.9,2.4,0.9,3.8l0,0.3l0.2,0.2c0.4,0.4,0.5,1,0.7,1.6c0,0.2,0.1,0.4,0.2,0.6
	c0.1,0.2-0.1,0.3-0.2,0.4C78.7,332.6,78.6,332.6,78.6,332.6C78.6,332.6,78.6,332.6,78.6,332.6z"/>
<path fill-rule="evenodd" clip-rule="evenodd" fill="#4F4F4F" d="M693.7,410.5c0,0-0.1-0.2-0.3-1.1l-0.2-0.7c-0.3-1-0.6-2-0.5-2.9
	l0-0.4l-0.3-0.3c-0.4-0.4-0.4-0.9-0.4-1.7c0-0.2,0-0.3,0-0.5c0-0.2,0.4-0.3,0.5-0.3l0.4-0.1l0.1-0.3l0.1,0l0.2-0.1
	c0.1,0,0.2,0,0.2,0l0.2,0.4l0.2,0l0,0.4l0.1,0l0,0.1l0.5,0.4c0.1,0.1,0.2,0.2,0.2,0.6l-0.1,0.5l0,0l0.2,0.4c0.4,0.8,0.5,1.8,0.7,2.8
	c0,0.3,0.1,0.6,0.1,0.8c0.1,0.4,0,0.8-0.3,1.1C694.9,410.2,694.4,410.4,693.7,410.5L693.7,410.5
	C693.7,410.5,693.7,410.5,693.7,410.5z"/>
<path fill-rule="evenodd" clip-rule="evenodd" fill="#4F4F4F" d="M430.7,491.1c-1.3,0-2.3-0.4-3-1.4l-0.1-0.1l-0.1-0.1
	c-0.5-0.4-0.8-1-1.2-1.6c-0.1-0.2-0.3-0.5-0.4-0.7c-0.2-0.3-0.2-0.4-0.2-0.4l0-0.1c-0.1-0.6-0.1-0.8,0.1-1c0.2-0.1,0.3-0.2,0.4-0.2
	c0.2,0,0.3,0.1,0.6,0.2l0.3,0.1l0.3-0.1c0,0,0.1,0,0.1,0c0.2,0,0.3,0.2,0.6,0.5c0.2,0.2,0.3,0.5,0.5,0.9c0.1,0.2,0.3,0.6,0.3,0.6
	l0.3,0.3l0,0l0,0l0.2,0.3c0.2,0.2,0.9,1,0.9,1l0.1,0l0,0l0.5,0.5l0.1,0l0,0l0.2,0.2l0.1,0.1l0.2,0.1c0.1,0,0.1,0,0.1,0.2
	c0,0.3,0,0.4,0,0.4l0,0c0,0-0.1,0-0.2,0C431.1,491.1,430.9,491.1,430.7,491.1L430.7,491.1z"/>
<path fill-rule="evenodd" clip-rule="evenodd" fill="#4F4F4F" d="M326.6,470.5c-0.1,0-0.2,0-0.3,0c-0.1,0-0.4,0-0.6-0.5
	c0-0.6-0.3-1-0.9-1.3l0,0l-0.2-0.1l0-0.4l-0.4-0.3c-0.1,0-0.1-0.1-0.1-0.3l0-0.3l-0.2-0.2c-0.5-0.6-0.6-1.3-0.7-2.1l1.2-1
	c0.1-0.1,0.2-0.2,0.3-0.3c0.1,0.1,0.2,0.2,0.3,0.3l0.1,0l0.1,0c0.1,0.1,0.2,0.2,0.2,0.7c0,0.1,0,0.3,0,0.4l0,0.3l0.3,0.2
	c0.3,0.2,0.3,0.4,0.3,0.6l0,0l0-0.1v0.7l0.6,0.1l0,0.3l0.4,0.2c0.5,0.3,0.7,0.6,0.9,1l0.1,0.2l0.2,0.2c0.1,0.1,0.2,0.2,0.2,0.7
	c0,0.1,0,0.1,0,0.2C327.7,470.3,327.2,470.5,326.6,470.5z M324.2,470.1L324.2,470.1l0,0.2L324.2,470.1z"/>
<path fill-rule="evenodd" clip-rule="evenodd" fill="#4F4F4F" d="M80.7,158.4C80.6,158.4,80.6,158.4,80.7,158.4l-0.2-0.2l-0.2-0.1
	c0,0,0.4-0.3,0.4-0.3l0-0.1l0,0l0.1-0.4c0-0.1,0-0.1,0.2-0.1l0.4-0.1l0.2-0.3c0-0.1,0.1-0.2,0.4-0.2h0.5l0.3-0.4
	c0-0.1,0.1-0.2,0.5-0.2l0.4,0l0.2-0.3c0.3-0.4,0.7-0.7,1.2-0.9l0.4-0.1l0.1-0.3l0.3,0l0.3-0.2c0.3-0.3,0.6-0.4,1.1-0.4
	c0.3,0,0.7,0.1,1,0.1l0.7,0.1c0.5,0.1,0.9,0.2,1.4,0.3c-0.3,0.1-0.6,0.2-0.9,0.2c-0.1,0-0.2,0-0.3,0l-0.3,0l-0.2,0.1l-0.4,0
	l-0.3,0.3c-0.5,0.6-1.2,1.1-2.1,1.4l-0.2,0.1l-0.1,0.2c-0.4,0.5-0.9,0.8-1.6,1l-0.2,0.1l-0.2,0.1C82.8,158.2,81.8,158.3,80.7,158.4
	L80.7,158.4z"/>
<path fill-rule="evenodd" clip-rule="evenodd" fill="#4F4F4F" d="M533.1,80.4c-0.1-0.1-0.3-0.4-0.7-1.2c-0.7-1.2-1-2.6-1.2-4
	c-0.1-0.6-0.2-1.2-0.4-1.9c0-0.2-0.1-0.5,0.2-0.7l0.3-0.3l0-0.3l0.2-0.1l0.2-0.4c0-0.1,0-0.1,0-0.2c0,0,0,0,0-0.1
	c0.1-0.1,0.2-0.2,0.3-0.3c0,0.1,0.1,0.1,0.2,0.2c0.2,0.3,0.3,0.5,0.3,0.6l0,0.2l0.5,1.8c0.4,1.3,0.8,2.7,1.2,4.1
	c0.2,0.7,0,0.9-0.1,1l-0.2,0.2l-0.1,0.3C533.5,80.2,533.2,80.4,533.1,80.4z"/>
<path fill-rule="evenodd" clip-rule="evenodd" fill="#4F4F4F" d="M344.8,56.6c-0.1,0-0.3,0-0.5-0.1c-0.1,0-0.3-0.1-0.4-0.1
	c-1.7-0.3-2.9-1-3.8-2.2l-0.2-0.3l-0.3,0l-0.1-0.4l-0.6-0.1l-0.1-0.3l-0.2-0.2c-0.2-0.2-0.3-0.3-0.3-0.3c0,0,0-0.1,0.1-0.3l0.1-0.1
	l0-0.1c0,0,0.2,0,0.2,0c0.5,0,1,0.2,1.5,0.5c1.3,0.8,2.5,1.7,3.5,2.4c0.3,0.2,0.5,0.5,0.7,0.8c0.1,0.1,0.1,0.2,0.2,0.3
	C344.6,56.3,344.8,56.5,344.8,56.6z"/>
<path fill-rule="evenodd" clip-rule="evenodd" fill="#4F4F4F" d="M105.7,96.3c-0.3,0-0.5-0.1-0.6-0.3l-0.1-0.1l-0.3-0.2l-0.2,0
	l0-0.1l-0.2-0.2c0,0,0,0,0,0l0.1-0.3l0.2,0l0.2-0.1c1.1-0.7,2.3-0.9,3.5-1l-0.2,0.7l1.8-0.9c0.5-0.3,1-0.4,1.3-0.4
	c0.3,0,0.8,0.1,1.2,0.7l0.1,0.2l0.2,0.1c0.4,0.2,0.6,0.3,0.6,0.4c0,0.1-0.1,0.2-0.3,0.5l-0.2,0.1c-0.4,0.2-0.8,0.3-1.4,0.3
	c-0.2,0-0.4,0-0.7,0l-0.1,0l-1.1,0.1l-1,0.2c-0.9,0.1-1.7,0.3-2.6,0.4C105.9,96.3,105.8,96.3,105.7,96.3z"/>
<path fill-rule="evenodd" clip-rule="evenodd" fill="#4F4F4F" d="M195.3,427.6c0,0-0.1,0-0.1-0.1l-0.1-0.1l-0.2,0
	c-0.3-0.1-0.4-0.2-0.6-0.8c-0.2-0.5-0.5-1-0.7-1.4c-0.1-0.2-0.2-0.3-0.2-0.5c0-0.2-0.1-0.4-0.2-0.6l-1.5,0.8l1.3-0.7
	c-0.1-0.1-0.1-0.1-0.1-0.2l0-0.3L192,423c-0.4-0.3-0.7-0.7-1.1-1c0,0,0,0,0,0l0.3-0.4l-0.3-0.3l0.1-0.2l-0.4-0.4
	c0,0,0.1-0.1,0.1-0.1c0.1-0.1,0.5-0.4,0.6-0.4c0,0,0.1,0.1,0.4,0.3l0.1,0.1l0,0l0,0l0.3,0.2l0.1,0l0,0.1l0.4,0.4l0.2,0l0,0.1
	l0.2,0.3l0.2,0.2l0.2,0.1l0,0.2l0.2,0.2l0.2,0.2l0.1,0.1c0.1,0.1,0.2,0.2,0.3,0.2l0,0.1c0,0,0,0.1,0,0.1l0.4,0.3c0,0,0,0,0,0l0,0.1
	l0.3,0.2c0,0,0,0,0,0v0l0.1,0c0.1,0,0.1,0.1,0.1,0.3l-0.1,0.4l0,0l0,0l0,0l0.1,0l0.2,0.4C195.8,425.6,195.8,426.5,195.3,427.6z"/>
<path fill-rule="evenodd" clip-rule="evenodd" fill="#4F4F4F" d="M99.8,276.3c-0.3,0-0.3,0-0.4-0.4c-0.1-1.1,0-1.7,0.4-2.3l0.2-0.3
	l0-0.3c0-0.3,0-0.5,0.2-0.7l0.2-0.2l0.2-1.3c0-0.4,0.1-0.7,0.1-1.1c0-0.6,0.1-1.2,0.2-1.8c0-0.2,0.1-0.3,0.1-0.4l-0.1-0.1l0.2-0.3
	v-0.5l-0.1-0.2l-0.3,0.1l0.2,0.1l0,0.7l-0.9-0.6l-0.5,0.1l0.5-0.1l-0.2-0.2l0.6-0.2l0.4,0.2l0.4-0.1c-0.3-0.4-0.3-1-0.3-1.6l0-0.2
	c0,0,0,0,0,0c0.1-0.1,0.2-0.2,0.3-0.3l0.2,0.1c0.5,0.2,0.6,0.5,0.7,1.2h-0.3l0.4,1.1c0.6,1.6,0.6,3.2,0,5l-0.1,0.2l-0.1,0.1l0,0.4
	c0,0.5-0.1,0.9-0.4,1.3l-0.3,0.4l0.1,0.1l-0.1,0.1l0.1,0.5c0,0.2,0,0.3-0.1,0.4l-0.3,0.3l0,0.4c0,0.1,0,0.2,0,0.2
	C100.3,276.2,100,276.3,99.8,276.3z"/>
<path fill-rule="evenodd" clip-rule="evenodd" fill="#4F4F4F" d="M573.8,455.2c-0.3,0-0.7-0.1-1-0.2c0-0.1,0.1-0.3,0.2-0.6
	c0.4-1,1-1.2,1.4-1.2c0.1,0,0.1,0,0.2,0l0.4,0l0.1-0.1l0,0l0.3-0.1c1.7-0.6,3.5-0.8,5.4-1l0.5-0.1c0,0,0.1,0,0.1,0
	c0.3,0,0.4,0.1,0.5,0.2l0.1,0.2l0,0l0.1,0.3c0,0,0,0.1,0,0.1c0,0,0,0-0.1,0.1l-0.4,0.2l-0.1,0.4c-0.1,0.4-0.3,0.5-0.5,0.5l-0.7,0.2
	c-1.1,0.2-2,0.5-3,0.5c-1,0-1.8,0.2-2.6,0.4C574.3,455.2,574,455.2,573.8,455.2L573.8,455.2z"/>
<path fill-rule="evenodd" clip-rule="evenodd" fill="#4F4F4F" d="M498.4,484.7c-0.2,0-0.4-0.1-0.6-0.3l-0.3-0.2l-0.1,0l-0.1-0.1
	c0,0-0.4,0-0.5,0c-0.1,0-0.2,0-0.4-0.2l-0.2-0.3l-0.4-0.1l-0.1,0c0,0,0.1,0.1,0.2,0.1l-1.7,0.1l1.3-0.6l-0.3-0.2
	c-0.9-0.5-1.4-0.8-1.5-1.6l-0.1-0.5l-0.4-0.1l-0.1-0.2c-0.1-0.3-0.1-0.4,0.1-0.5c0.1-0.1,0.2-0.1,0.4-0.1c0.1,0,0.2,0,0.4,0.1
	c0.7,0.3,1.4,0.9,2,1.5l0.6,0.5l0.2,0c0.6,0.1,1,0.4,1.2,0.8l0.2,0.3l0.2,0.1l0,0.3l0.3,0.3c0.2,0.2,0.3,0.4,0.3,0.5
	c0,0,0,0.1-0.1,0.2C498.7,484.7,498.5,484.7,498.4,484.7L498.4,484.7z"/>
<path fill-rule="evenodd" clip-rule="evenodd" fill="#4F4F4F" d="M630.9,315.2c0,0-0.1,0-0.2-0.2c-0.2-0.5-0.2-1.1-0.2-1.7
	c0-1,0.1-2,0.1-3l0.1-1.2c0,0,0.2-0.2,0.2-0.2c0,0,0.2,0.2,0.2,0.2l0.1,0l0,0.1l0.2,0.3l-0.1,0.2l0.1,0.3l1.7-0.2l-1.7,0.2
	c0.5,1.8,0.5,3.2,0,4.6l0,0.1l-0.1,0.1l0,0.2l0,0C631.1,315.2,631,315.2,630.9,315.2z"/>
<path fill-rule="evenodd" clip-rule="evenodd" fill="#4F4F4F" d="M110.4,421.1c-1-0.2-1.5-0.6-1.8-1.5l-0.1-0.3l-0.3-0.2
	c-0.2-0.1-0.2-0.1-0.2-0.3l0.1-0.3l-0.1-0.3c-0.5-0.9-0.2-2,0.1-3c0,0,0-0.1,0-0.1c0,0,0,0,0.1,0c0.1,0,0.3,0,0.6,0.1
	c0.1,0,0.1,0.1,0.1,0.5c0,0.1,0,0.3,0,0.4l0,0.3l0.2,0.2c0.3,0.4,0.4,0.8,0.4,1.4l0,0.4l0.3,0.2c0.7,0.5,0.9,1.2,0.8,2.1
	L110.4,421.1L110.4,421.1z"/>
<path fill-rule="evenodd" clip-rule="evenodd" fill="#4F4F4F" d="M310.2,23.7c-0.3,0-0.7-0.2-1.2-0.5l-0.2-0.1l-0.2,0
	c-0.1,0-0.2,0-0.2,0l-0.1-0.4l0-0.1l0,0l0-0.1l-0.1,0l-0.3-0.2c-0.1-0.1-0.2-0.2-0.2-0.7l0-0.3l-0.2-0.2c-1.3-1.8-1.6-3.7-1-5.7
	l0-0.1l0-0.1c0-0.5,0.1-0.8,0.1-0.9c0.2,0,0.5,0.1,1.1,0.4l0.7,0.3c0,0,0,0.1,0,0.1c0.1,0.7,0.2,1.4,0.3,2.1c0,0.3,0.1,1,0.1,1
	l0.2,0.8l0.2,0.2c0.1,0.1,0.2,0.2,0.2,0.5l0,0.4l0.3,0.3c0.5,0.5,0.8,1,0.9,1.8l0,0.3l0,0v0.3L311,23l-0.2,0.2l0,0.2
	C310.5,23.7,310.3,23.7,310.2,23.7z"/>
<path fill-rule="evenodd" clip-rule="evenodd" fill="#4F4F4F" d="M631.3,300c-0.6-0.2-1.1-0.4-1.3-0.8l-0.1-0.2l-0.2-0.1
	c-0.1,0-0.1-0.1-0.1-0.2l0.1-0.5l-0.1,0l0.1-0.2l-0.5-0.4c-0.1-0.1-0.2-0.2-0.2-0.6l0.1-0.5l0,0l-0.3-0.4c-0.3-0.4-0.4-1-0.4-1.7
	c0-0.5,0.1-0.6,0.2-0.7l0.1-0.1l0.2-0.2l0.1-0.1c0,0,0.3,0.2,0.3,0.2l0.1,0.3l0.4,0l0.2,0.8l0.3-0.1l0,0l0,0l0,0l0.4,0.4
	c0,0,0.1,0.1,0.1,0.1l-1.1-0.3l1.4,2l0,0c0,0,0.1,0.1,0.1,0.1l0.1,0.1c0.4,0.7,0.4,1.5,0.3,2.4l0,0.4
	C631.3,299.8,631.3,299.9,631.3,300z"/>
<path fill-rule="evenodd" clip-rule="evenodd" fill="#4F4F4F" d="M284.2,469.3c-0.5,0-0.9-0.2-1.3-0.5l-0.3-0.3l-0.2,0l-0.1-0.1
	l-0.3,0c-0.3,0-0.6,0-0.9,0c-0.9,0-1.7,0-2.4-0.4l-0.2-0.1l-0.1,0c-0.1-0.1-0.1-0.2-0.2-0.2c0.1-0.1,0.3-0.4,0.3-0.4l1.2-0.2l0.1,0
	c0.6-0.2,1.1-0.4,1.6-0.4c0.5,0,0.9,0.1,1.3,0.3l1.2,0.6v-0.5c0.2,0,0.4,0.1,0.5,0.3l0.2,0.2l0.2,0.1c0.3,0.1,0.4,0.1,0.4,0.7
	l-0.1,0.4l0.2,0.2C285.1,469.2,284.6,469.3,284.2,469.3z"/>
<path fill-rule="evenodd" clip-rule="evenodd" fill="#4F4F4F" d="M305.1,9.9c-0.1,0-0.4-0.1-1.2-0.6c0,0-0.1-0.2-0.1-0.6l0-2.6
	l0-0.1l-0.2-0.4c-0.5-0.9-0.4-1.8,0.1-3l0.1-0.3l0-0.1l0.1-0.1l-0.1-0.4c0-0.2,0-0.3,0-0.3l0.1-0.1l0.2-0.1c0.1-0.1,0.2-0.2,0.3-0.3
	c0.1,0.1,0.1,0.1,0.2,0.3c0.3,0.5,0.3,1.2,0.3,2c0,0.5,0,1.1,0.1,1.7l0,0.1l0.1,0.1c0.8,1.3,0.5,2.7,0.2,4.1
	C305.2,9.8,305.1,9.9,305.1,9.9L305.1,9.9z"/>
<path fill-rule="evenodd" clip-rule="evenodd" fill="#4F4F4F" d="M638.3,152.5C638.3,152.5,638.3,152.5,638.3,152.5
	c-0.1,0-0.1,0-0.1,0c-0.4,0-0.6-0.1-0.7-0.5l-0.2-0.4l-0.2-0.1l0,0l-0.1-0.2c-0.1-0.1-0.1-0.2-0.2-0.4c-0.1-0.1-0.2-0.3-0.2-0.4
	c-0.2-2-1.1-3.6-2.1-5.1c-0.6-1.1-0.6-1.5-0.2-2.2l0.2,0c0.1,0,0.2,0,0.3,0l0.1,0.2l0.3,0.2c0.7,0.4,1.2,1,1.5,1.9l0.1,0.3l0.2,0.1
	v0.1l0.4,1.3c0.4,1.2,0.7,2.4,1.1,3.6c0,0.1,0,0.3,0,0.4l0,0.2C638.6,152.2,638.4,152.5,638.3,152.5z"/>
<path fill-rule="evenodd" clip-rule="evenodd" fill="#4F4F4F" d="M399.1,60.8c-0.1,0-0.3-0.1-0.5-0.3c-0.2-0.2-0.1-0.2-0.1-0.3
	c0.4-0.6,0.9-1,1.6-1.3l0.2-0.1l0.4-0.3c0.9-0.8,1.8-1.6,2.9-2l-1.1-0.7l1.7,0.2c0,0.1-0.2,0.2-0.3,0.2l0.3,0.1l0.4-0.2
	c0.2-0.1,0.4-0.2,0.5-0.2c0,0,0.1,0,0.1,0.1l0.2,0.1l0.2,0c0,0,0,0,0,0.1c-0.1,0.3-0.3,0.5-0.6,0.6l-0.2,0.1l-0.4,0.4l0,0.1
	l-0.2,0.1l-0.3,0.2l0,0.1l-0.3,0l-0.1,0.2H403l-0.3,0.5l-0.2,0l-0.2,0.2c-0.3,0.2-0.6,0.5-0.9,0.7c-0.7,0.5-1.4,1-2.1,1.5
	C399.2,60.8,399.1,60.8,399.1,60.8z"/>
<path fill-rule="evenodd" clip-rule="evenodd" fill="#4F4F4F" d="M237.4,14.7c-0.3,0-0.7-0.1-1.1-0.2c0-0.1-0.1-0.1-0.1-0.2
	l-0.1-0.1l0,0l0.1-0.1l0.1-0.1c0.3-0.4,0.8-0.7,1.3-1c0.2-0.1,0.4-0.2,0.7-0.3l0.1-0.1l0.1-0.1c0.3-0.3,0.4-0.4,0.5-0.4l0.4,0
	l0.2-0.3c0.1-0.2,0.2-0.2,0.2-0.2l0.5,0.1l0.1-0.1l0.3,0.1l0.4-0.5c0.1-0.2,0.3-0.2,0.5-0.2h0.3l0.3-0.2c0,0,0,0,0,0l-0.1,0.3
	c0,0,0,0,0.1,0l0.7,0.9c0,0-0.1,0.1-0.1,0.1l-0.2,0.1c0,0,0,0,0,0.1c-0.2,0.1-0.4,0.1-0.8,0.2l-0.4,0l-0.2,0.3
	c-0.3,0.4-0.7,0.7-1.3,0.8l-0.5,0.1l-0.1,0.3l-0.1,0l-0.3,0.1l-0.1,0L239,14C238.5,14.5,237.9,14.7,237.4,14.7z M243.9,10.7
	L243.9,10.7l0.3-0.5l0.4,0c0.5,0,1,0.3,1.1,0.4c-0.1,0.1-0.3,0.2-0.7,0.4l-0.3,0.1c-0.2,0.1-0.5,0.2-0.8,0.2c-0.1,0-0.3,0.1-0.4,0.1
	L243.9,10.7z"/>
<path fill-rule="evenodd" clip-rule="evenodd" fill="#4F4F4F" d="M145.2,94.9C145.2,94.8,145.2,94.8,145.2,94.9c0,0-0.1,0-0.2,0
	c-0.1,0-0.1,0-0.1,0c-0.6-0.2-1.2-0.4-1.9-0.7c-0.3-0.1-0.9-0.3-0.9-0.3s-0.1,0-0.1,0c-0.2,0-0.4,0-0.6,0c-0.1,0-0.3,0-0.4,0
	c-0.4,0-0.6-0.1-0.7-0.2l-0.2-0.3l-0.2,0l0,0l-0.1-0.2l0-0.1l0,0l0.2-0.3l0-0.2c0-0.2,0.1-0.2,0.1-0.2l0.4-0.2l0-0.1
	c0.1,0,0.2-0.1,0.3-0.1l-0.4-1.1l0.5,0.7c0,0,0,0,0,0c0,0-0.1,0-0.1,0l0.2,0l0.2-0.1c0.2-0.1,0.3-0.1,0.5-0.1c0.2,0,0.4,0,0.7,0.1
	l0.2,0.1l0.2,0c0.1,0,0.2,0,0.3,0c0.3,0,0.6,0.1,0.9,0.3l0.4,0.3l0.2-0.1l0.1,0.1l0.4-0.1c0,0,0,0,0.1,0c0.1,0,0.1,0,0.2,0.1
	l0.1,0.2l0.4,0.2l0,0l0,0.1C146.2,93.5,146.1,94,145.2,94.9z"/>
<path fill-rule="evenodd" clip-rule="evenodd" fill="#4F4F4F" d="M56.7,182.2c-0.1-0.1-0.2-0.3-0.3-0.6c0-0.1,0-0.2-0.1-0.3
	c0-0.1-0.1-0.3-0.1-0.3c0.2-0.6,0.4-1.2,0.6-1.8c0.5-1.4,0.9-2.7,1.6-3.9l0.1-0.2l0-0.1l0.3-0.1l0.1-0.3l0.2,0l0.3-0.2
	c0.1-0.1,0.2-0.2,0.3-0.3c0.1-0.1,0.3-0.2,0.3-0.2c0.1,0,0.1,0,0.2,0c0.2,0,0.4,0.1,0.5,0.2c0.1,0.1,0.1,0.2,0.1,0.3l-0.1,0.2
	c-0.1,0.6-0.3,1.1-0.6,1.4l-0.3,0.3l0,0.4c0,0.6-0.2,0.9-0.3,1l-0.3,0.2l0,0.4c0,0.9-0.4,1.7-0.8,2.6l-0.1,0.3
	c-0.1,0.3-0.3,0.4-0.5,0.4h-0.3l-0.3,0.2C57,182,56.8,182.1,56.7,182.2z"/>
<path fill-rule="evenodd" clip-rule="evenodd" fill="#4F4F4F" d="M631,252.6L631,252.6c-0.1-0.1-0.2-0.1-0.2-0.1
	c-0.2-1.1-0.2-1.9,0.3-2.7l0.2-0.3l0-0.3c0-0.4,0.1-0.5,0.2-0.5l0.3-0.2l0-0.4c0.1-0.6,0.4-1.1,1-1.6l0.3-0.2l0-0.2l0.2-0.1
	c0.2-0.1,0.3-0.2,0.4-0.2c0,0.1,0.1,0.2,0.1,0.3l0,0.5l0,0.1c0.1,0.8,0,1.3-0.4,1.7l-0.3,0.4l0.1,0.2l-0.2,0.1l0.1,0.5
	c0,0.1,0,0.2-0.2,0.4l-0.3,0.2l0,0.3c0,0.5-0.2,0.9-0.4,1.2l-0.2,0.3l0,0.3l-0.2,0.1l-0.1,0.2l-0.1,0l-0.3,0.1
	C631.1,252.6,631,252.6,631,252.6L631,252.6z"/>
<path fill-rule="evenodd" clip-rule="evenodd" fill="#4F4F4F" d="M98.3,256c-0.5,0-0.7-0.1-0.8-0.3l-0.1-0.1l-0.1-0.1
	c-0.4-0.3-0.5-0.5-0.4-1.1l1,0.8l-0.9-2.7l-0.5-1.3c-0.4-1.2-0.8-2.3-1.2-3.5c-0.1-0.3-0.2-0.7-0.2-1.1l0.3-0.1
	c0.7,0,1.2,0.1,1.6,0.4l0.2,0.2l0.1,0l0,0.2l0.3,0.3c0,0,0.1,0.1,0.1,0.4l0,0.4l0.3,0.3c0.1,0.1,0.2,0.1,0.2,0.6l0,0.3l-0.1,0
	l0.9,1.9c0.7,1.4,0.6,2.8,0,4.2l-0.1,0.1l0,0.2c0,0.1,0,0.2-0.4,0.2L98.3,256z"/>
<path fill-rule="evenodd" clip-rule="evenodd" fill="#4F4F4F" d="M594.6,280.9c-1,0-2-0.2-2.9-0.5l-0.1,0c-0.2-0.8-0.1-1-0.1-1
	c0,0,0.1-0.1,0.4-0.1c0.2,0,0.4-0.1,0.7-0.1c0.1,0,0.1,0,0.2,0c0.9,0.1,1.9,0.2,2.8,0.4l1.1,0.2c0,0,0.1,0,0.1,0c0.2,0,0.3,0,0.5,0
	c0.1,0,0.3,0,0.4,0c0.1,0,0.3,0,0.4,0c0.3,0,0.3,0.1,0.3,0.2l-0.1,0.4c-0.1,0-0.1,0-0.2,0l-0.2,0l-0.2,0.1
	C596.6,280.7,595.6,280.9,594.6,280.9z"/>
<path fill-rule="evenodd" clip-rule="evenodd" fill="#4F4F4F" d="M455.9,482.4c-0.1,0-0.3-0.1-0.7-0.4c0-0.1,0-0.1,0-0.2l-0.1,0
	l-0.1-0.1l-0.2,0c0.1,0,0.2,0,0.3,0.1l-1.4,0.4l1.3-0.7l0.1-0.5l-0.2-0.1l0.1-0.3l-0.5-0.3c-0.1-0.1-0.2-0.2-0.2-0.6l0-0.2l-0.1-0.3
	c-0.4-0.9-0.5-1.2-0.3-1.6l0.1,0l0.3-0.4l0.1,0.2l0.3,0.1c0.1,0,0.3,0.1,0.4,0.4c0,0,0,0.1,0,0.1c0,0.1,0.1,0.2,0.1,0.3l1.1-0.4
	l-0.8,0.5l0,0.4l-0.1,0.1l0,0l0,0.1l0.1,0l0.3,0.3c0.4,0.4,0.4,1,0.4,1.9l0,0.2l0.1,0.2l0,0.1C456,482.2,455.9,482.4,455.9,482.4z"
	/>
<path fill-rule="evenodd" clip-rule="evenodd" fill="#4F4F4F" d="M184.4,418c-0.2,0-0.5-0.1-0.8-0.4l-0.2-0.1l-1.3-0.2l-1.8-0.1
	c-1.6,0-3.2-0.1-4.7-0.2l-0.3,0c-0.2,0-0.5,0-0.5-0.1c0,0,0,0,0-0.1l0-0.2l-0.1-0.2c0,0,0-0.1-0.1-0.1c0,0,0.1-0.1,0.3-0.2
	c0.1-0.1,0.4-0.1,0.6-0.1l0.2,0c1-0.1,2.1-0.2,3.2-0.2c0.9,0,1.7,0.1,2.5,0.2l0.1,0l0.1,0c0.2,0,0.4,0,0.6,0c0.6,0,1,0.1,1.3,0.4
	l0.4,0.3l0,0l0,0l0.1,0l0.1-0.1l0.4,0c0.1,0,0.2,0,0.3,0c0.1,0,0.1,0,0.1,0l0.1,0.2l0.1,0.1c0.2,0.1,0.3,0.2,0.3,0.3
	c0,0.1-0.1,0.2-0.3,0.3l-0.1,0.1C184.8,417.9,184.6,418,184.4,418z"/>
<path fill-rule="evenodd" clip-rule="evenodd" fill="#4F4F4F" d="M605.8,255.3c0,0-0.2,0-0.3-0.2l-0.2-0.3l-0.3,0
	c-0.4,0-0.9-0.1-1.3-0.3c-0.6-0.2-1.3-0.3-2-0.3l-0.1,0c-0.6,0-1.2-0.3-1.8-1c0,0,0-0.1,0-0.2c0.7-0.3,1.2-0.5,1.7-0.5
	c0.3,0,0.7,0.1,1,0.3l0.2,0.1c0,0,0.2,0,0.2,0c0.7,0,1.2,0.2,1.6,0.5l0.2,0.1l0.2,0c1.1,0.2,1.5,0.4,1.7,1l0,0.4l-0.2,0.2
	C606,255.2,605.8,255.3,605.8,255.3z"/>
<path fill-rule="evenodd" clip-rule="evenodd" fill="#4F4F4F" d="M622.6,365.8c-0.1,0-0.2-0.1-0.4-0.3l-0.4-0.3l0-0.2l-0.4-0.2
	l-0.1-0.1c0,0,0-0.1,0-0.1l0.1-0.5l-0.6-0.3c-0.1,0-0.1-0.1-0.1-0.4l0-0.5l-0.4-0.3c-0.1-0.1-0.2-0.1-0.2-0.4l0-0.3l-0.1-0.2
	c-0.5-0.9-0.6-1.7-0.2-2.6c0,0,0-0.1,0.1-0.1c0,0,0.1,0.1,0.1,0.2c0,0,0.1,0.1,0.1,0.1l1.6,3.7l0.2,0.1l0,0.2l0.2,0.5l0.2,0.1
	c0.2,0.2,0.4,0.4,0.3,0.9l-0.1,0.4c0,0,0.3,0.3,0.3,0.3l-0.1,0.1C622.7,365.6,622.6,365.7,622.6,365.8z"/>
<path fill-rule="evenodd" clip-rule="evenodd" fill="#4F4F4F" d="M423.4,479.5c-0.1,0-0.4,0-0.9-0.3c-0.1-0.2-0.2-0.3-0.3-0.4
	c0,0-0.1-0.1-0.1-0.1l-0.4-0.5l0,0c0,0,0.1-0.5,0.1-0.5l-0.1-0.1l0.1-0.2l-0.3-0.4l0-0.1l0,0c-0.3-0.5-0.3-1.1-0.3-1.8
	c0-0.2,0-0.4,0-0.5c0-0.4,0-0.7,0-1c0-0.4,0.2-0.4,0.3-0.4c0.1,0,0.1,0,0.2,0c0.1,0,0.2,0,0.3,0.3l0.1,0.3l0.3,0.2l-0.1,0.4l0.1,0.1
	l-0.1,0.2l0.3,0.4c0.3,0.3,0.4,0.7,0.3,1.1l0,0.3l0.2,0.3c0.4,0.6,0.6,1.3,0.6,2C423.5,479.2,423.4,479.4,423.4,479.5z"/>
<path fill-rule="evenodd" clip-rule="evenodd" fill="#4F4F4F" d="M373,481.9c-0.7,0-1.5-0.6-1.6-1.4c0,0,0,0,0.1-0.1
	c0.1-0.1,0.2-0.2,0.2-0.3l0-0.1l0,0l0.3-0.2l0.2-0.2l0.1-0.1c0.3-0.5,0.8-1,1.4-1.4l0.1-0.1l0.2-0.3l0-0.1l0,0l0.2-0.2
	c0.1-0.1,0.3-0.3,0.4-0.3c0.1,0.1,0.2,0.1,0.4,0.2l0.2,0.1l0.2,0c0.3,0,0.3,0.1,0.3,0.2l0.1,0.2l0.2,0.2c0.2,0.1,0.3,0.2,0.3,0.3
	c0,0.1-0.1,0.2-0.3,0.4l-0.1,0.1l0,0.1c-0.5,1.2-1.4,2-2.3,2.7C373.5,481.9,373.3,481.9,373,481.9z"/>
<path fill-rule="evenodd" clip-rule="evenodd" fill="#4F4F4F" d="M694.3,424.9c-0.1,0-0.1,0-0.1-0.1c-0.1-0.2-0.2-0.5-0.3-0.8
	l-0.1-1c-0.2-2-0.3-4,0.1-5.9l0-0.2l0-0.2c-0.1-0.7-0.1-0.8,0.1-0.8l0.2-0.1l0,0l0.1,0.1c0.2,0.1,0.3,0.2,0.2,0.8l0,0.2l0.1,0.2
	c0.6,1.9,0.6,4,0.2,6.7c-0.1,0.3-0.1,0.6-0.2,0.8C694.5,424.9,694.5,424.9,694.3,424.9L694.3,424.9z"/>
<path fill-rule="evenodd" clip-rule="evenodd" fill="#4F4F4F" d="M218.6,31.9c-0.2,0-0.5,0-0.7-0.1c0-0.1,0-0.1-0.1-0.1
	c-0.1-0.2-0.1-0.3,0-0.5l0.1-0.3l-0.1-0.3c0-0.1,0-0.1,0.1-0.2l0.2-0.1l0.1-0.2l0.2-0.3c1-1.2,1.9-2.3,3.2-3
	c0.4-0.3,0.7-0.4,0.9-0.4c0.1,0,0.3,0,0.5,0.3c0,0,0,0.1,0,0.3l-0.1,0.2l0,0.2c0,0.2,0,0.3-0.1,0.3l-0.2,0.1l-0.1,0.2
	c-0.6,1.2-1.5,2.1-2.7,3.2C219.5,31.8,219,31.9,218.6,31.9L218.6,31.9z"/>
<path fill-rule="evenodd" clip-rule="evenodd" fill="#4F4F4F" d="M358.1,64.8c-0.3,0-0.7-0.2-1-0.3l-0.3-0.1l-0.2,0l-0.2-0.1l-0.3,0
	c-0.1,0-0.1,0-0.2,0c-0.3,0-0.3-0.1-0.4-0.2l-0.2-0.3l-0.6,0c-0.5,0-0.7,0-0.8-0.2l-0.2-0.2l-1-0.3l-0.2,0c0,0-0.1,0-0.1,0
	c-0.1,0-0.1,0-0.1,0l-0.1-0.1l-0.1-0.2c-0.1-0.1-0.2-0.3-0.3-0.4c0.1-0.1,0.1-0.2,0.2-0.2l0.1-0.1c0.5-0.3,0.9-0.6,1.2-0.6
	c0.1,0,0.3,0,0.6,0.2l0.3,0.2l0.3,0c0.2,0,0.3,0,0.5,0c0.3,0,0.5,0.1,0.6,0.2l0.4,0.5l0.3-0.2c0,0,0.8,0.2,1.1,0.2
	c0.6,0.1,1.3,0.2,1.9,0.4c0.1,0,0.5,0.1,0.6,0.7l-0.2,0.1l-0.2,0.3c0,0.1-0.1,0.1-0.4,0.1l-0.3,0l-0.2,0.2
	C358.5,64.7,358.3,64.8,358.1,64.8z"/>
<path fill-rule="evenodd" clip-rule="evenodd" fill="#4F4F4F" d="M486.8,474.2c0,0-0.1,0-0.2-0.1c-0.3-0.2-0.6-0.4-0.9-0.6
	c-0.2-0.1-0.3-0.2-0.5-0.4l-0.1-0.1l0-0.3l-0.3-0.1c0,0-0.6-1-0.8-1.4c-0.6-1-1.2-2-1.7-3c-0.4-0.8-0.1-1,0.1-1.2
	c0.1-0.1,0.2-0.2,0.3-0.2c0,0,0.2,0.1,0.2,0.1l0.1,0l0.1,0.1l0.2,0.1c0.8,0.4,1.2,0.9,1.3,1.6l0,0.3l0.2,0.2c0.6,0.6,0.9,1.1,1,1.7
	l0,0.2l-0.3-0.1l1.6,2.2c0.1,0.1,0.2,0.3,0.3,0.4c-0.1,0.1-0.2,0.3-0.3,0.4l0,0.1L486.8,474.2C486.8,474.2,486.8,474.2,486.8,474.2z
	"/>
<path fill-rule="evenodd" clip-rule="evenodd" fill="#4F4F4F" d="M536.3,484.9c0,0-0.1,0-0.1-0.1c-1-1-1.1-1.6-0.4-2.9
	c0.1-0.3,0.3-0.5,0.5-0.8c0.1-0.1,0.4-0.7,0.4-0.7l0-0.3c0-0.2,0-0.3,0.1-0.3l0,0c0.1-0.1,0.3-0.2,0.4-0.3l0,0
	c0.1-0.1,0.3-0.3,0.4-0.4c0.1-0.1,0.2-0.1,0.3-0.2c0.1,0.1,0.2,0.2,0.4,0.3l0.1,0.1l0.2,0c0,0,0,0.2,0,0.3l1.1-0.8l0,0l-1,1.3
	c0.3,0.3,0.3,0.4,0.3,0.4c0,0,0,0,0,0c0,0-0.1,0.1-0.3,0.4l-0.2,0.3l0,0.2c-0.1,0.1-0.2,0.3-0.3,0.4l-0.2,0.1l-0.1,0.5
	c0,0.2-0.1,0.3-0.3,0.5l-0.4,0.3l0,0.5l-0.1,0.1l-0.2,0.2c-0.1,0.1-0.2,0.2-0.3,0.3C536.6,484.6,536.4,484.8,536.3,484.9
	C536.3,484.9,536.3,484.9,536.3,484.9z"/>
<path fill-rule="evenodd" clip-rule="evenodd" fill="#4F4F4F" d="M133.4,53.8c-0.5,0-1.1-0.1-1.6-0.4l-0.2-0.1l0,0l0,0
	c-0.3-0.2-0.4-0.3,0.2-1.1l0.2-0.2l0-0.3c0-0.2,0-0.2,0.2-0.3c0.1,0,0.2,0,0.3,0c0.2,0,0.3,0,0.5,0c0.2,0,0.3,0,0.5,0l0.2,0l0.1,0.1
	l0.5-0.2c0.5-0.2,1.1-0.4,1.6-0.5l-0.3,0.5l-0.8,1.2l1.4,0.2l0.4,0l0.3-0.2l0.5-0.4l-0.2-0.6l-0.4-0.7c0.2,0,0.4-0.1,0.6-0.1
	c0.7-0.1,1.4-0.2,2.1-0.4l0.2,0l0.1-0.1c0.4-0.3,0.7-0.5,1-0.5c0.3,0,0.5,0.1,0.8,0.4c0.1,0.1,0.1,0.1,0.2,0.2c0,0,0,0,0,0
	c0.1,0.3,0,0.6-0.3,1.2l0,0.1c-0.3,0.6-0.7,0.7-1,0.7h-0.5l-0.3,0.5c-0.1,0-0.1,0-0.1,0c0,0-0.1,0-0.1,0l-0.3-0.1l-0.3,0.2
	c-0.5,0.3-1,0.4-1.7,0.4c-0.2,0-0.4,0-0.6,0l-0.2,0l-0.8,0.2l-0.1,0l-0.3,0.2C134.4,53.7,133.9,53.8,133.4,53.8z"/>
<path fill-rule="evenodd" clip-rule="evenodd" fill="#4F4F4F" d="M198.1,444.2c-0.1,0-0.2-0.1-0.3-0.3c-0.1-0.2-0.2-0.5-0.3-0.9
	c0-0.2-0.1-0.4-0.1-0.5l-0.1-0.2l-0.2-0.2c-0.1-0.1-0.2-0.2-0.2-0.6l0-0.3c0-1.7,0-3.4,0.1-5.1c0,0,0.1-0.2,0.2-0.3
	c0.1-0.1,0.2-0.3,0.2-0.4l0.1-0.2l0-0.2c0-0.3,0-0.3,0-0.3l0.2-0.1l0.2-0.2l0.1-0.2l0,0c0.4,0.1,0.5,0.3,0.5,1.3
	c0,1.2,0.1,2.4,0.1,3.6l0,2l0.2,0.2c0.4,0.5,0.4,0.9,0.1,1.4l-0.1,0.1l-0.3,0.8l0,0.2c0,0.1,0,0.2,0,0.2l-0.1,0l-0.1,0
	C198.3,444.2,198.2,444.2,198.1,444.2z"/>
<path fill-rule="evenodd" clip-rule="evenodd" fill="#4F4F4F" d="M277.9,446.7c-0.3-0.3-0.3-0.4-0.3-0.4c0,0,0,0,0,0
	c0,0,0.1-0.1,0.3-0.5l0.1-0.2l0.3-0.1l0-0.4l0,0l0.2-0.2l0.2-0.2l0-0.1l0.1,0l0.4-0.3l0-0.1l0.4,0l0.1-0.2h0.2l0.3-0.5
	c0-0.1,0-0.1,0.1-0.1l0.5-0.1l0.1-0.3l0.2,0l0.3-0.2c0.6-0.5,1.5-0.6,2.5-0.6c0,0,0,0,0,0c0.3,0,0.7,0.2,1,0.3
	c0.1,0,0.1,0.1,0.1,0.1c0,0,0,0,0,0c0,0,0,0.1-0.1,0.2c0,0-0.2,0.1-0.4,0.2c-0.1,0-0.3,0.1-0.4,0.2l-0.1,0.1l-0.1,0.1
	c-0.3,0.3-0.5,0.3-0.6,0.3h-0.4l-0.1,0.1l-0.3,0l-0.3,0.5c0,0.1,0,0.1-0.1,0.1l-0.4,0l-0.2,0.3c-0.3,0.4-0.8,0.8-1.4,1.1l-0.4,0.2
	l0,0.1l-0.1,0l-0.2,0.4c-0.1,0.1-0.1,0.2-0.5,0.2h-0.4L277.9,446.7L277.9,446.7z"/>
<path fill-rule="evenodd" clip-rule="evenodd" fill="#4F4F4F" d="M497.4,23c-0.2,0-0.4-0.1-0.5-0.3l-0.2-0.2l-0.3,0
	c-0.1,0-0.1,0-0.1,0l-0.3-0.6l-0.3,0.1l-0.1-0.1l-0.4,0.1c0,0-0.1,0-0.1,0c-0.2,0-0.3-0.1-0.5-0.2l-0.2-0.2l-0.2,0l-0.1-0.1l-0.1,0
	l-0.2-0.1l-0.3,0l-0.1-0.2l-0.3-0.2l-1-0.4c-0.6-0.3-1.3-0.5-1.9-0.8l-0.3-0.1c-0.3-0.1-0.6-0.2-0.8-0.4c-0.2-0.1-0.3-0.2-0.3-0.3
	c0-0.1,0.1-0.2,0.3-0.3c0.5-0.3,1-0.4,1.6-0.4c0.6,0,1.3,0.2,2.1,0.5c0.6,0.3,1.3,0.5,1.9,0.8c1,0.5,2.1,0.9,3.2,1.3l0.1,0.1
	c0.9,0.5,1.3,1.1,1.2,1.3c-0.1,0.3-0.4,0.4-0.8,0.6c-0.1,0.1-0.3,0.1-0.4,0.2C497.6,23,497.5,23,497.4,23z"/>
<path fill-rule="evenodd" clip-rule="evenodd" fill="#4F4F4F" d="M475.3,446.7c-0.2,0.2-0.4,0.4-0.5,0.5
	C475.2,447.2,475.3,447.1,475.3,446.7z"/>
<path fill-rule="evenodd" clip-rule="evenodd" fill="#4F4F4F" d="M475.3,446.7c-0.2,0.2-0.4,0.4-0.5,0.5
	C475.2,447.2,475.3,447.1,475.3,446.7z"/>
<path fill-rule="evenodd" clip-rule="evenodd" fill="#4F4F4F" d="M417.6,451.6c-0.3-0.1-0.5-0.4-0.7-1l-0.2-0.5l-0.3-0.1
	c-0.7-0.2-1-0.5-1.1-0.8l-0.1-0.3l-0.3-0.2l-0.1,0c-0.6-0.3-1.1-0.5-1.4-0.9l-0.1-0.2l-0.4-0.1h0l0-0.1l-0.2-0.2l0.2-0.2l0-0.4
	c0-0.3,0.1-0.6,0.6-0.8c0.2-0.1,0.3-0.1,0.4-0.1c0.2,0,0.3,0.1,0.5,0.2l0.1,0.2l0.8,0.3l0,0.1l0.2,0.2l0.7,0.5
	c0.5,0.4,1.1,0.8,1.6,1.2c1,0.9,1,0.9,0.3,2.5l-0.1,0.2l0,0.2L417.6,451.6L417.6,451.6L417.6,451.6z"/>
<path fill-rule="evenodd" clip-rule="evenodd" fill="#4F4F4F" d="M605.3,279.4c0.2-0.2,0.5-0.3,0.7-0.5
	C605.7,278.9,605.4,279.1,605.3,279.4z"/>
<path fill-rule="evenodd" clip-rule="evenodd" fill="#4F4F4F" d="M605.3,279.4c0.2-0.2,0.5-0.3,0.7-0.5
	C605.7,278.9,605.4,279.1,605.3,279.4z"/>
<path fill-rule="evenodd" clip-rule="evenodd" fill="#4F4F4F" d="M95,294.5c0.4,0,0.6-0.2,0.7-0.5C95.4,294.1,95.2,294.3,95,294.5z"
	/>
<path fill-rule="evenodd" clip-rule="evenodd" fill="#4F4F4F" d="M95,294.5c0.4,0,0.6-0.2,0.7-0.5C95.4,294.1,95.2,294.3,95,294.5z"
	/>
<path fill-rule="evenodd" clip-rule="evenodd" fill="#4F4F4F" d="M83.6,305.4l-0.5-0.1c-0.4-0.2-0.6-0.5-0.6-0.9l0-0.3l0.2-0.2
	l-0.1-0.2l0.1,0l0-0.5l0.2-0.1l0.2-0.3c0.5-1,1.1-1.9,2-2.6l0.3-0.2l0-0.2l0.3-0.1l0.2-0.3l0.4,0.1l0.3-0.4c0.2-0.3,0.4-0.3,1-0.4
	c0.3,0,0.6-0.1,0.8-0.1c0.2,0,0.3-0.1,0.4-0.1c0.2,0,0.5,0,0.8,0.7c0.1,0.4,0.2,1-0.5,1.5c-0.6,0.3-1.1,0.6-1.7,0.9l-1.1,0.6l0,0.4
	l-0.4,0.1l0,0.3l0,0.1l0,0l0,0.1l-0.4,0.1l0,0c-0.1,0.2-0.1,0.4-0.2,0.6c-0.2,0.5-0.5,0.8-0.8,1l-0.3,0.1l-0.1,0.3
	C83.7,305.3,83.7,305.4,83.6,305.4C83.7,305.4,83.6,305.4,83.6,305.4z"/>
<path fill-rule="evenodd" clip-rule="evenodd" fill="#4F4F4F" d="M66.6,169.8C66.6,169.8,66.6,169.8,66.6,169.8
	c-0.2-0.1-0.3-0.3-0.3-0.4c-0.3-2,0.1-3.3,1.3-4.2l0.4-0.3l0-0.4l0.3-0.1l0.2-0.4c0.1-0.3,0.4-0.6,0.8-0.9c0.1-0.1,0.2-0.2,0.3-0.3
	l0.3-0.2l2.7,0.4l-1.6-1.4l0,0l0.2-0.1c0.3-0.2,0.6-0.4,1-0.4c0.4,0,0.8,0.1,1.2,0.2c0.3,0.1,0.6,0.1,1,0.2c0,0,0,0,0,0
	c0,0.2,0,0.4,0,0.6c0,0.1-0.1,0.2-0.2,0.2h-0.2l-0.2,0.1l-0.7,0l-0.1,0.2l-0.9,0.8h-1.7l0.9,0.9l-2.3,2.4l-0.5,0.8
	c-0.5,0.7-0.9,1.4-1.4,2C66.7,169.7,66.7,169.8,66.6,169.8z"/>
<path fill-rule="evenodd" clip-rule="evenodd" fill="#4F4F4F" d="M112.7,361.4c-0.1,0-0.2,0-0.4-0.3c-0.2-0.5-0.4-1.1-0.6-1.6
	c-0.1-0.2-0.2-0.5-0.3-0.7l1.5-0.7l-2.5-0.5l-0.1-0.7l-0.6,0c-0.1-0.1-0.1-0.2-0.1-0.3l-0.1-0.6l-0.5-0.1l-0.1-0.5l-0.5-0.1
	l-0.1-0.5l-0.4-0.1l0-0.1l-0.2-0.2c-0.4-0.5-0.6-1,0-2l0.1-0.1c0,0,0-0.2,0.1-0.2c1.7,1.4,3.7,3.1,4.8,5.4c0.5,1,0.6,2.2,0.3,3.3
	C113,361.4,112.9,361.4,112.7,361.4L112.7,361.4z"/>
<path fill-rule="evenodd" clip-rule="evenodd" fill="#4F4F4F" d="M78.7,61.4c-0.1,0-0.2-0.1-0.3-0.2l0.1-0.3l-0.2-0.1l0-0.2l0.1,0
	l0.2-0.4l0.5,0l0.2-0.4c0.2-0.3,0.3-0.3,0.4-0.3h0.5l0.3-0.4c0-0.1,0.1-0.2,0.4-0.2h0.2l0.3-0.1c1.2-0.7,2.5-1,3.9-1.4
	c0.3-0.1,0.6-0.2,1-0.2c0.1,0,0.2,0,0.3,0c0.1,0,0.2,0,0.3,0c0.2,0,0.3,0.1,0.4,0.3c0,0.1,0.1,0.2-0.1,0.5c-0.3,0.4-0.8,0.6-1.4,0.8
	l-0.1,0c-1.1,0.4-2.2,0.7-3.3,1.1l-1.6,0.5l-0.2,0.3l-0.3-0.1L80,60.8l-0.3,0L79.5,61C79.3,61.1,78.9,61.4,78.7,61.4L78.7,61.4z"/>
<path fill-rule="evenodd" clip-rule="evenodd" fill="#4F4F4F" d="M183.1,142c-0.3,0-0.7-0.1-1.1-0.4l-0.1-0.1l0,0
	c-0.1,0-0.1-0.1-0.2-0.1c0.1-0.1,0.2-0.2,0.3-0.5l5.4-5.2l0.1,0l0.3-0.2c0.2-0.1,0.3-0.1,0.6-0.1c0.2,0,0.4,0,0.6,0.1l0.2,0.1
	l0.2-0.1c0.1,0,0.2-0.1,0.3-0.1l0.1,0c0.2,0.4,0.1,0.7-0.1,0.9l-0.1,0.1l-0.2,0.3l0,0.1l-0.4,0.1l-0.1,0.5l-0.3,0l-0.2,0.3
	c-0.6,1-1.5,1.8-2.7,2.7l-0.3,0.2l0,0.1l0,0l-0.3,0.2l-0.2,0.1l-0.2,0.2c-0.1,0.2-0.1,0.2-0.2,0.2h-0.3l-0.3,0.2
	C183.6,141.9,183.4,142,183.1,142z"/>
<path fill-rule="evenodd" clip-rule="evenodd" fill="#4F4F4F" d="M631.6,137.3c-0.1,0-0.3-0.1-0.5-0.3c-0.6-0.6-1.2-1.2-1.9-1.8
	l-0.9-0.9l-0.2-0.1c-0.1,0-0.1,0-0.1,0l-0.1-0.4l-0.3-0.2c-0.3-0.2-0.5-0.4-0.6-0.8l0-0.2l-0.3-0.4l-0.1,0v-0.1l-0.3-0.3
	c-0.2-0.2-0.3-0.3-0.3-0.4c0-0.1,0.1-0.2,0.2-0.4c0.2-0.2,0.5-0.4,0.7-0.6c0.2-0.2,0.4-0.2,0.6-0.2c0,0,0.2,0,0.5,0.3
	c0.5,0.5,1.1,1,1.4,1.7l0.1,0.1l0.2,0.2c0.2,0.2,0.3,0.4,0.5,0.5l0.1,0.1l0.2,0.1c0.7,0.3,1.1,0.9,1.6,1.7l0.3,0.4l0.1,0.1
	c0.5,0.4,0.4,0.6,0.4,0.7C632.7,136.8,632.2,137.2,631.6,137.3L631.6,137.3z"/>
<path fill-rule="evenodd" clip-rule="evenodd" fill="#4F4F4F" d="M302.9,59.2c-0.6,0-0.8-0.1-1-0.3l-0.1-0.2l-0.2-0.1
	c-0.4-0.2-0.7-0.5-0.7-1l0-0.1l0-0.1c-0.1-0.1-0.1-0.3-0.2-0.4c-0.1-0.1-0.2-0.3-0.2-0.4c-0.1-1.2-0.1-2.4-0.1-3.6l0-1.3l0-0.1
	c-0.2-0.7-0.2-1.3,0-1.8l0.1-0.2l0-0.1l0.2-0.1l0.1-0.2l0.2,0l0.2,0.6l0.1,0.1c0.3,0.4,0.4,1,0.4,1.8l0,0.4l0,0l0.1,0.4
	c0,0.1,0.1,0.3,0.2,0.4c0.1,0.1,0.2,0.3,0.2,0.4c0.1,1.5,0.3,3.3,1.1,5c0.1,0.2,0.1,0.5,0.1,0.9L302.9,59.2z"/>
<path fill-rule="evenodd" clip-rule="evenodd" fill="#4F4F4F" d="M462,426c-0.3,0-0.5-0.1-0.6-0.2l-0.1-0.1l-0.2-0.1
	c-0.7-0.2-1.5-0.2-2.2-0.2c-0.7,0-1.4,0-1.9-0.3l-0.2-0.1l-0.1,0l-0.1,0c-0.2-0.1-0.3-0.1-0.4-0.2c0-0.1,0.1-0.1,0.2-0.2
	c0.2-0.3,0.4-0.4,0.8-0.4c0.2,0,0.4,0,0.5,0l0.4,0l0.1,0c0.5-0.1,1.1-0.2,1.8-0.2c0.5,0,1,0,1.5,0.1l0.7,0c0.3,0,0.4,0.1,0.4,0.2
	l0.2,0.3l0.2,0l0.1,0.2c0,0.1,0.1,0.2,0,0.4l-0.1,0.2l0,0.2c0,0.1,0,0.1,0,0.1c0,0,0,0-0.1,0C462.5,426,462.2,426,462,426L462,426z"
	/>
<path fill-rule="evenodd" clip-rule="evenodd" fill="#4F4F4F" d="M560.7,118.1c0.3,0.1,0.5,0.3,0.8,0.4
	C561.3,118.2,561.1,118,560.7,118.1z"/>
<path fill-rule="evenodd" clip-rule="evenodd" fill="#4F4F4F" d="M560.7,118.1c0.3,0.1,0.5,0.3,0.8,0.4
	C561.3,118.2,561.1,118,560.7,118.1z"/>
<path fill-rule="evenodd" clip-rule="evenodd" fill="#4F4F4F" d="M559.3,118.5c0.3-0.1,0.5-0.3,0.8-0.4
	C559.8,118,559.5,118.2,559.3,118.5z"/>
<path fill-rule="evenodd" clip-rule="evenodd" fill="#4F4F4F" d="M559.3,118.5c0.3-0.1,0.5-0.3,0.8-0.4
	C559.8,118,559.5,118.2,559.3,118.5z"/>
<path fill-rule="evenodd" clip-rule="evenodd" fill="#4F4F4F" d="M550.1,116c-0.2,0-0.5-0.1-1.1-0.3l-0.4-0.2c-1-0.5-1.9-1-2.4-1.8
	l-0.2-0.3l-0.3-0.1l-0.1-0.4l-0.5-0.2l-0.1-0.5l-0.4-0.1l-0.1-0.4l-0.4-0.1l0-0.2l-0.2-0.3c-0.5-0.5-0.5-1.1,0-2.1c0,0,0,0,0,0
	c0,0,0.1,0,0.2,0.1l0.2,0.1l0,0.1l0.3,0.3c0.6,0.3,1,0.8,1.5,1.5l0.2,0.3l0.1,0l0.5,1.8l0.6-0.8l0.5,0.1c0.3,0,0.4,0.2,0.5,0.3
	l0.2,0.4l0.5,0c0.1,0,0.3,0,0.5,0.3l0.2,0.3l0.3,0c0.3,0,0.4,0,0.4,0.8c0.1,1-0.2,1.4-0.3,1.5C550.3,115.9,550.2,116,550.1,116
	L550.1,116z"/>
<path fill-rule="evenodd" clip-rule="evenodd" fill="#4F4F4F" d="M176.4,48.1c-0.4,0-0.9-0.1-1.6-0.5l-1.2-0.6v0.5
	c-0.3,0-0.6-0.1-0.8-0.3l-0.1-0.1l0,0l0,0c-0.1-0.1-0.2-0.2-0.3-0.3l0-0.1l-0.4-0.1l0-0.1l-0.2-0.3c-0.3-0.3-0.3-0.4-0.3-0.5
	c0-0.1,0.2-0.2,0.5-0.3c0.2-0.1,0.4-0.1,0.6-0.1c0.2,0,0.3,0,0.3,0c0.9,0.3,1.8,0.4,2.6,0.4c0.3,0,0.7,0,1,0l0.5,0l0.3-0.5l0.5,0.1
	l0.1-0.1l0.2,0.1l0.4-0.3c0.4-0.3,0.8-0.4,1.3-0.4c0.6,0,1.2,0.2,1.8,0.4c0.2,0.1,0.3,0.2,0.3,0.5l0,0.2l0.1,0.2
	c0.1,0.2,0.1,0.4,0.1,0.4c0,0.1-0.2,0.2-0.5,0.3c-0.8,0.3-1.7,0.5-2.6,0.7c-0.4,0.1-0.8,0.2-1.1,0.3l-0.2,0l-0.1,0.1
	C177.2,48,176.8,48.1,176.4,48.1z"/>
<path fill-rule="evenodd" clip-rule="evenodd" fill="#4F4F4F" d="M470,434.9c-0.2-0.1-0.6-0.8-0.7-1c0-0.1-0.1-0.2-0.1-0.3
	c0-0.1,0-0.1,0-0.2V433l-0.4-0.3c-0.1-0.1-0.2-0.2-0.2-0.6l0-0.5l-0.5-0.2l-0.1-0.6l-0.3,0l-0.1-0.2c-0.1-0.1-0.1-0.1-0.1-0.1
	l0.1-0.2c0.1-0.2,0.2-0.2,0.5-0.2c0.1,0,0.3,0,0.4,0c0.1,0,0.2,0,0.3,0l0.5,0.2l0,0l0.1,0.1l0.3-0.1l0.1,0.1l0.2,0l0.1,0.1
	c0.9,1.1,1.3,2.1,1.6,3.6l-0.1,0.4l0,0C471.1,434.5,470.3,434.9,470,434.9C470.1,434.9,470,434.9,470,434.9z"/>
<path fill-rule="evenodd" clip-rule="evenodd" fill="#4F4F4F" d="M206.7,41.6c-0.2,0-0.3,0-0.5,0c-0.5-0.1-0.7-0.2-0.6-0.9
	c0-0.1,0.1-0.3,0.2-0.4c0.1-0.1,0.1-0.2,0.2-0.4l0.1-0.2l0-0.2c0-0.2,0-0.3,0.4-0.4c0.6-0.2,1.2-0.3,1.8-0.5l1.1-0.3l0.1-0.3l0.2,0
	l0.3-0.2c0.8-0.7,1.7-1.1,2.7-1.4l0.8,1l-0.2,0.3l0,0.1l-0.2,0.2l0,0.2l-0.2,0.1l0,0.2c-0.1,0.1-0.2,0.2-0.3,0.3l-0.2,0l-0.1,0.2
	l-0.4,0.3l-0.4,0l-0.2,0.5l-0.4,0l-0.2,0.2c-0.8,0.7-1.8,1.1-2.8,1.4C207.4,41.5,207.1,41.6,206.7,41.6z M213.5,37.3l0.2-0.8
	C213.8,36.7,213.8,36.9,213.5,37.3z"/>
<path fill-rule="evenodd" clip-rule="evenodd" fill="#4F4F4F" d="M68.6,105.1c-1.1,0-2-0.2-2.9-0.6l-0.2-0.1l-0.3,0c0,0,0,0-0.1,0
	c-0.1,0-0.2,0-0.3-0.2l-0.1-0.1l-0.1-0.1c-0.1-0.1-0.3-0.2-0.4-0.3c0-0.1,0.1-0.3,0.2-0.4l0.1-0.1l0.3,0c0.3,0,0.6,0,0.9,0
	c0.7,0,1.5,0.1,2.3,0.4l0.2,0.1h0.5l0.1,0l0,0l0.1-0.1c0.2-0.1,0.4-0.2,0.7-0.2c0.3,0,0.5,0.1,0.8,0.2l0.3,0.1l0.3-0.1
	c0.1,0,0.2,0,0.3,0c0.2,0,0.3,0,0.5,0.1l0.2,0.1l0.1,0l0,0.1l0.3,0.2c0,0,0.1,0.1,0.1,0.1c0,0,0,0,0,0c0,0,0,0.1-0.1,0.1
	c-0.2,0.2-0.5,0.4-0.6,0.4l-0.6,0.1C70.4,105,69.5,105.1,68.6,105.1L68.6,105.1z"/>
<path fill-rule="evenodd" clip-rule="evenodd" fill="#4F4F4F" d="M642.1,167.3C642.1,167.3,642.1,167.3,642.1,167.3L642.1,167.3
	C642.1,167.3,642.1,167.3,642.1,167.3z"/>
<path fill-rule="evenodd" clip-rule="evenodd" fill="#4F4F4F" d="M642.1,167.3C642.1,167.3,642.1,167.3,642.1,167.3L642.1,167.3
	C642.1,167.3,642.1,167.3,642.1,167.3z"/>
</svg>
