<?xml version="1.0" encoding="utf-8"?>
<!-- Generator: Adobe Illustrator 22.1.0, SVG Export Plug-In . SVG Version: 6.00 Build 0)  -->
<svg version="1.1" id="Layer_1" xmlns="http://www.w3.org/2000/svg" xmlns:xlink="http://www.w3.org/1999/xlink" x="0px" y="0px"
	 viewBox="0 0 86.4 80.2" style="enable-background:new 0 0 86.4 80.2;" xml:space="preserve">
<style type="text/css">
	.st0{fill:#0CAEBE;}
	.st1{fill:#035066;}
</style>
<g>
	<path class="st0" d="M27,74.1h-1.6c-0.8-1.2-2.1-1.9-3.4-2c-1.4,0.1-2.7,0.8-3.5,2h-4c-0.8-1.2-2.1-1.9-3.5-2
		c-1.4,0.1-2.7,0.8-3.5,2H6v-13h21V74.1z M55,74.1h-1.4c-1.1-1.9-3.5-2.6-5.4-1.6c-0.7,0.4-1.2,0.9-1.6,1.6h-4
		c-0.8-1.2-2.1-1.9-3.5-2c-1.4,0.1-2.7,0.8-3.5,2h-1.7v-13h21L55,74.1L55,74.1z M66.7,11c0-4.9,3.2-8.9,7.2-8.9s7.2,4,7.2,8.9
		s-3.2,8.9-7.2,8.9S66.7,15.9,66.7,11z M74.3,22.3c0.5,0.3,0.9,0.6,1.3,1.1c-0.9,0.2-1.8,0.2-2.6,0C73.4,22.9,73.8,22.6,74.3,22.3z
		 M65.1,38.6c0-3.9,2.5-7,5.6-7s5.6,3.1,5.6,7s-2.5,7-5.6,7S65.1,42.4,65.1,38.6z M70.7,48.2c0.5,0.3,0.9,0.6,1.3,1.1
		c-0.9,0.2-1.8,0.2-2.6,0C69.8,48.8,70.2,48.5,70.7,48.2z M84,74.1h-2.2c-1.1-1.9-3.5-2.6-5.4-1.6c-0.7,0.4-1.2,0.9-1.6,1.6h-4
		c-1.1-1.9-3.5-2.6-5.4-1.6c-0.7,0.4-1.2,0.9-1.6,1.6H63v-13h21V74.1z"/>
</g>
<g>
	<path class="st1" d="M84.6,59.1H74.1c1.6-3,2.7-9.2,3-16c0.8-1.4,1.2-3,1.2-4.7c0-1.7-0.4-3.3-1.2-4.8c0-0.1,0-0.1,0-0.2
		c-0.2-2.8-0.5-5.5-1-8.2c1-0.3,1.5-0.9,1.5-1.7c-0.1-0.8-0.5-1.6-1.2-2.1c3.8-1.4,6.5-5.5,6.5-10.5c0-6-4.1-10.9-9.2-10.9
		c-5.1,0-9.2,4.9-9.2,10.9c0,5.2,3.1,9.6,7.2,10.7c-0.6,0.5-0.9,1.2-0.9,1.9c0,0.8,0.6,1.5,1.4,1.7c0.6,0.2,1.2,0.3,1.9,0.3
		c0.3,1.7,0.6,3.6,0.8,5.5c-1.2-1-2.7-1.5-4.2-1.5c-4.2,0-7.6,4-7.6,9c0,4.1,2.3,7.6,5.5,8.7c-0.7,0.5-1.2,1.4-1.3,2.3
		c0,0.8,0.6,1.5,1.5,1.7c0.4,0.1,0.8,0.2,1.2,0.3c0,0.4,0,0.6,0,0.9c0,2.4,0.6,4.7,1.8,6.8H61.7c-0.6,0-0.6,0.9-0.6,1.4v10.6h-4
		V60.6c0-0.6,0-1.4-0.5-1.4h-0.5v-12c0-5.9-4.8-10.7-10.8-10.8c-0.7,0-1.3,0.1-1.9,0.2l-3-14.3c0.1-0.4,0.1-0.8,0-1.2h0.1
		c1.3,0,2.5-0.7,3-1.9c0.4-0.9,0.5-1.9,0.5-2.9c0.1-1.1-0.5-2.2-1.4-2.8c-2-0.9-4.4,1.6-5,2.9c-0.1,0.2-0.2,0.4-0.2,0.6
		c-0.2-0.1-0.3-0.2-0.5-0.3l-1.1-3c0-0.1-0.1-0.1-0.1-0.2c0.3-0.7,0-1.5-0.7-1.8s-1.5,0-1.8,0.7s0,1.4,0.6,1.7c0,0.1,0,0.1,0,0.2
		l0.7,2c-1,0.1-1.8,0.6-2.4,1.4l-4.1,5c-1.6,1.6-1.7,4.3,0,5.9c1.6,1.6,4.3,1.7,5.9,0l0.3-0.3l2.2,12.1c-1.5,1.9-2.4,4.2-2.5,6.7V59
		h-0.4c-0.7,0.2-1.3,0.7-1.5,1.4V71h-3V60.5c0-0.6-0.2-1.4-0.7-1.4H26v-4.4c0-7.2-5.8-13-13-13s-13,5.8-13,13v6.5
		c-0.1,1.6,1.1,2.9,2.6,3.1c0.1,0,0.1,0,0.2,0c0.5,0,1.2-0.2,1.2-0.4V75c0.1,0.6,0.6,1.1,1.3,1.1h1.6l0,0c0.2,2.2,2.2,3.9,4.4,3.6
		c1.9-0.2,3.4-1.7,3.6-3.6l0,0h2.9l0,0c0.1,2.2,2,4,4.3,3.9c2.1-0.1,3.8-1.8,3.9-3.9l0,0h2.3c0.6,0,0.7-0.6,0.7-1.1v-1.9h3V75
		c0,0.6,0.9,1.1,1.5,1.1h1.6l0,0c0,2.2,1.8,4.1,4.1,4.1c2.2,0,4.1-1.8,4.1-4.1l0,0h2.9l0,0c0,2.2,1.8,4.1,4.1,4.1
		c2.2,0,4.1-1.8,4.1-4.1l0,0h2.3c0.6,0,0.5-0.5,0.5-1.1v-1.9h4V75c0,0.6,0.1,1.1,0.6,1.1h1.6l0,0c0,2.2,1.8,4.1,4.1,4.1
		s4.1-1.8,4.1-4.1l0,0h2.9l0,0c0,2.2,1.8,4.1,4.1,4.1c2.2,0,4.1-1.8,4.1-4.1l0,0H85c0.6,0,1.4-0.5,1.4-1.1V60.6
		C85.9,59.8,85.3,59.3,84.6,59.1z M4,61.2c0,0.6-0.4,1-1,1s-1-0.4-1-1v-6.5c0-6.1,4.9-11,11-11c6.1,0,11,4.9,11,11v4.4H10v-1.8
		c0-1.7-1.3-3-3-3s-3,1.3-3,3V61.2z M6,59.1v-1.8c0-0.6,0.4-1,1-1s1,0.4,1,1v1.8H6z M11,78.1c-1.1,0-2.1-0.9-2.1-2s0.9-2.1,2-2.1
		s2.1,0.9,2.1,2l0,0C13,77.2,12.1,78.1,11,78.1z M22,78.1c-1.1,0-2.1-0.9-2.1-2s0.9-2.1,2-2.1s2.1,0.9,2.1,2l0,0
		C24,77.2,23.1,78.1,22,78.1z M27,74.1h-1.6c-0.8-1.2-2.1-1.9-3.4-2c-1.4,0.1-2.7,0.8-3.5,2h-4c-0.8-1.2-2.1-1.9-3.5-2
		c-1.4,0.1-2.7,0.8-3.5,2H6v-13h21V74.1z M39.4,17.3c0.5-0.9,1.3-1.6,2.3-2h0.1c0.3,0.2,0.5,2,0,3c-0.3,0.6-1.1,0.9-1.7,0.6l0,0
		C39.4,18.6,39.1,17.9,39.4,17.3z M32.7,27.1L32.7,27.1c-0.8,1-2.2,1.2-3.2,0.4c-0.9-0.8-1.1-2.1-0.3-3.1c0.1-0.1,0.2-0.2,0.3-0.3
		l0.1-0.1l4.1-5c0.3-0.4,0.8-0.7,1.4-0.7h0.1c0.5,0,1,0.2,1.3,0.5l1.4,1.4c0.7,0.7,0.7,1.9,0,2.7L37.8,23L32.7,27.1z M36,47.1
		c0.1-2.1,0.9-4.1,2.3-5.7c0.3-0.2,0.4-0.6,0.4-0.9L36,27l2.8-2.2l2.6,13.3c0.1,0.5,0.6,0.9,1.2,0.8h0.1c0.8-0.2,1.6-0.3,2.4-0.3
		c4.8,0,8.8,3.9,8.8,8.7v11.9h-4v-3.4c0-2.5-2-4.5-4.5-4.5s-4.5,2-4.5,4.5v3.4h-5L36,47.1L36,47.1z M43,59.1v-3.4
		c0-1.4,1.1-2.5,2.5-2.5s2.5,1.1,2.5,2.5v3.4H43z M39.2,78.2c-1.1,0-2.1-0.9-2.1-2.1c0-1.1,0.9-2.1,2.1-2.1c1.1,0,2.1,0.9,2.1,2.1
		l0,0C41.2,77.3,40.3,78.2,39.2,78.2z M50.2,78.2c-1.1,0-2.1-0.9-2.1-2.1c0-1.1,0.9-2.1,2.1-2.1c1.1,0,2.1,0.9,2.1,2.1l0,0
		C52.2,77.3,51.3,78.2,50.2,78.2z M55,74.1h-1.4c-1.1-1.9-3.5-2.6-5.4-1.6c-0.7,0.4-1.2,0.9-1.6,1.6h-4c-0.8-1.2-2.1-1.9-3.5-2
		c-1.4,0.1-2.7,0.8-3.5,2h-1.7v-13h21L55,74.1L55,74.1z M71.9,51.4c1.4-0.2,2.2-0.9,2.2-1.9c-0.1-0.9-0.6-1.7-1.3-2.3
		c0.8-0.3,1.5-0.7,2.2-1.2c-0.2,3.9-0.9,7.7-2.1,11.4c-0.7-1.5-1-3.2-1-4.9C71.9,52.1,71.9,51.8,71.9,51.4z M66.7,11
		c0-4.9,3.2-8.9,7.2-8.9s7.2,4,7.2,8.9s-3.2,8.9-7.2,8.9S66.7,15.9,66.7,11z M74.3,22.3c0.5,0.3,0.9,0.6,1.3,1.1
		c-0.9,0.2-1.8,0.2-2.6,0C73.4,22.9,73.8,22.6,74.3,22.3z M65.1,38.6c0-3.9,2.5-7,5.6-7s5.6,3.1,5.6,7s-2.5,7-5.6,7
		S65.1,42.4,65.1,38.6z M70.7,48.2c0.5,0.3,0.9,0.6,1.3,1.1c-0.9,0.2-1.8,0.2-2.6,0C69.8,48.8,70.2,48.5,70.7,48.2z M67.3,78.2
		c-1.1,0-2.1-0.9-2.1-2.1c0-1.1,0.9-2.1,2.1-2.1c1.1,0,2,0.9,2.1,2C69.4,77.3,68.4,78.2,67.3,78.2L67.3,78.2z M78.3,78.2
		c-1.1,0-2.1-0.9-2.1-2.1c0-1.1,0.9-2.1,2.1-2.1c1.1,0,2,0.9,2.1,2C80.4,77.3,79.4,78.2,78.3,78.2L78.3,78.2z M84,74.1h-2.2
		c-1.1-1.9-3.5-2.6-5.4-1.6c-0.7,0.4-1.2,0.9-1.6,1.6h-4c-1.1-1.9-3.5-2.6-5.4-1.6c-0.7,0.4-1.2,0.9-1.6,1.6H63v-13h21V74.1z"/>
	<circle class="st1" cx="35.1" cy="21.1" r="1.3"/>
	<circle class="st1" cx="5.7" cy="50.2" r="1.3"/>
	<path class="st1" d="M12,55.3c0.2,0,0.5,0.1,0.7,0.1c0.9,0,1.7-0.3,2.5-0.7c1-0.5,1.8-1.4,2.3-2.4c0.4-1.2,0.3-2.5-0.4-3.6
		c-1.4-2.6-4.8-4.6-7-3.4c-2.2,1.2-2.3,5.2-1,7.8C9.7,54.3,10.8,55.1,12,55.3z M11.1,47.1c0.2-0.1,0.4-0.1,0.6-0.1
		c1.6,0.3,3,1.3,3.7,2.7c0.4,0.6,0.5,1.3,0.3,1.9c-0.3,0.6-0.8,1.1-1.4,1.4s-1.2,0.5-1.9,0.4c-0.6-0.2-1.2-0.7-1.4-1.3
		C10,50.4,10.1,47.7,11.1,47.1z"/>
</g>
</svg>
