<?xml version="1.0" encoding="utf-8"?>
<!-- Generator: Adobe Illustrator 22.1.0, SVG Export Plug-In . SVG Version: 6.00 Build 0)  -->
<svg version="1.1" id="Layer_1" xmlns="http://www.w3.org/2000/svg" xmlns:xlink="http://www.w3.org/1999/xlink" x="0px" y="0px"
	 viewBox="0 0 86.1 88.2" style="enable-background:new 0 0 86.1 88.2;" xml:space="preserve">
<style type="text/css">
	.st0{fill:#0CAEBE;}
	.st1{fill:#035066;}
</style>
<g transform="translate(0,-952.36218)">
	<path class="st0" d="M46,956.4c3,0,6,0.4,8.8,1.1c-2.1,1.4-4.7,3.2-7.2,5.6c-4,3.8-7.6,9-7.6,15.3c0,2.4,1.1,4.5,2.5,6.2
		s3.1,3,4.8,4.3s3.2,2.6,4.2,3.8s1.6,2.3,1.6,3.7c0,3.7-0.6,6.7-4.4,9.3l0,0l-11.6,3.6l-8.3-1.9c-2.7-2.5-4.7-6.9-4.7-11.1
		c0-2.5,1.1-3.8,2.6-5.7s3.4-4.5,3.4-8.3c0-4.1-1.9-7.3-4.5-9.6c-2-1.7-4.3-3-6.6-4.2C25.5,961.1,35.2,956.4,46,956.4z"/>
</g>
<g transform="translate(0,-952.36218)">
	<path class="st1" d="M46,952.4c-22.1,0-40,17.9-40,40c0,5.2,1,10.2,2.8,14.8l-0.8,0.4c-1,0.5-1.4,1.7-0.9,2.7c0.2,0.4,0.6,0.8,1,1
		l9.7,4.5l-2.8,0.6l-7.5-1.9c-0.4-0.1-0.9-0.1-1.3,0.1l-5,2.1c-1,0.4-1.5,1.6-1.1,2.6c0.1,0.2,0.2,0.3,0.3,0.5l10,13
		c0.5,0.7,1.4,0.9,2.2,0.7l19.7-5.9l13.4,12.5c0.6,0.6,1.6,0.7,2.4,0.3l5-3c0.8-0.5,1.2-1.5,0.8-2.4l-1-2.9
		c18.8-3.3,33.2-19.7,33.2-39.4C86,970.3,68,952.4,46,952.4z M46,956.4c3,0,6,0.4,8.8,1.1c-2.1,1.4-4.7,3.2-7.2,5.6
		c-4,3.8-7.6,9-7.6,15.3c0,2.4,1.1,4.5,2.5,6.2s3.1,3,4.8,4.3s3.2,2.6,4.2,3.8s1.6,2.3,1.6,3.7c0,3.7-0.6,6.7-4.4,9.3l0,0l-11.6,3.6
		l-8.3-1.9c-2.7-2.5-4.7-6.9-4.7-11.1c0-2.5,1.1-3.8,2.6-5.7s3.4-4.5,3.4-8.3c0-4.1-1.9-7.3-4.5-9.6c-2-1.7-4.3-3-6.6-4.2
		C25.5,961.1,35.2,956.4,46,956.4z M59.9,959.1c13,5.4,22.1,18.2,22.1,33.2c0,1.7-0.1,3.4-0.3,5.1c-1.2-0.5-2.7-1.1-4.7-1.1
		c-2.2,0-4.1,0.6-5.5,1.6s-2.4,2.3-3.3,3.5c-1.6,2.2-2.8,4.2-5.1,5.6c-0.4-0.3-0.7-0.6-1.1-0.8c-2.1-1.2-4.6-1.9-6.9-1.9
		c1.4-2.6,1.9-5.4,1.9-8c0-2.5-1.1-4.6-2.5-6.3s-3.1-3-4.8-4.3s-3.2-2.5-4.2-3.8c-1-1.2-1.6-2.3-1.6-3.6c0-4.7,2.9-9,6.4-12.4
		S58.1,960.1,59.9,959.1z M16.4,971.8c2.4,1.2,4.7,2.5,6.4,4c2,1.8,3.2,3.7,3.2,6.6c0,2.6-1.1,3.9-2.6,5.8c-1.5,1.9-3.4,4.4-3.4,8.2
		c0,3.4,1,6.8,2.6,9.7l-7.2-1.6c-0.2,0-0.4-0.1-0.6,0c-0.3,0-0.5,0.1-0.8,0.2l-1.7,0.8c-1.6-4-2.4-8.4-2.4-13
		C10,984.7,12.3,977.6,16.4,971.8z M77,1000.4c1.9,0,2.7,0.5,3.8,1.2c-2.1,8.1-7,15-13.5,19.8c-2.2-0.6-3.6-2-4.6-3.3
		c0.9-0.4,1.6-1,2.1-1.7c0.9-1.2,1.2-2.6,1.2-4c0-0.8-0.2-1.5-0.4-2.2c2.8-1.9,4.4-4.5,5.8-6.4c0.8-1.1,1.6-2,2.4-2.6
		C74.6,1000.7,75.5,1000.4,77,1000.4z M55,1008.4c1.5,0,3.5,0.5,4.9,1.3s2.1,1.8,2.1,2.7c0,0.8-0.2,1.3-0.4,1.6
		c-0.2,0.3-0.6,0.6-1.7,0.9h-0.1l-47.1,14.2l-7.6-9.8l1.9-0.8l7.4,1.9c0.3,0.1,0.6,0.1,0.9,0l9-2c1.1-0.3,1.7-1.3,1.5-2.4
		c-0.1-0.6-0.5-1.1-1.1-1.3l-11.3-5.3l1.7-0.8l11.8,2.7c0.1,0,0.3,0.1,0.4,0.1l9.1,2.1c0.3,0.1,0.7,0.1,1,0l13-4l0,0
		C51.7,1008.9,54,1008.4,55,1008.4z M58.7,1019.3c0.9,1.5,2.3,3.3,4.5,4.7c-3.6,2-7.6,3.4-11.8,4l-2.1-5.8L58.7,1019.3z
		 M45.6,1023.3l4,11.2l-2.3,1.4l-10.6-9.9L45.6,1023.3z"/>
</g>
</svg>
