<?xml version="1.0" encoding="utf-8"?>
<!-- Generator: Adobe Illustrator 22.1.0, SVG Export Plug-In . SVG Version: 6.00 Build 0)  -->
<svg version="1.1" id="Layer_1" xmlns="http://www.w3.org/2000/svg" xmlns:xlink="http://www.w3.org/1999/xlink" x="0px" y="0px"
	 viewBox="0 0 100 125" enable-background="new 0 0 100 125" xml:space="preserve">
<g>
	<path fill="#035066" d="M57.2,43.2c-0.6,0-1-0.4-1-1v-1.7c0-0.6,0.4-1,1-1s1,0.4,1,1v1.7C58.2,42.8,57.7,43.2,57.2,43.2z"/>
	<path fill="#035066" d="M53,43.2c-0.6,0-1-0.4-1-1v-1.7c0-0.6,0.4-1,1-1s1,0.4,1,1v1.7C54,42.8,53.5,43.2,53,43.2z"/>
	<path fill="#035066" d="M48.7,43.2c-0.6,0-1-0.4-1-1v-1.7c0-0.6,0.4-1,1-1s1,0.4,1,1v1.7C49.7,42.8,49.3,43.2,48.7,43.2z"/>
	<path fill="#035066" d="M57.2,50.2c-0.6,0-1-0.4-1-1v-1.7c0-0.6,0.4-1,1-1s1,0.4,1,1v1.7C58.2,49.7,57.7,50.2,57.2,50.2z"/>
	<path fill="#035066" d="M53,50.2c-0.6,0-1-0.4-1-1v-1.7c0-0.6,0.4-1,1-1s1,0.4,1,1v1.7C54,49.7,53.5,50.2,53,50.2z"/>
	<path fill="#035066" d="M48.7,50.2c-0.6,0-1-0.4-1-1v-1.7c0-0.6,0.4-1,1-1s1,0.4,1,1v1.7C49.7,49.7,49.3,50.2,48.7,50.2z"/>
	<path fill="#035066" d="M57.2,29.5c-0.6,0-1-0.4-1-1v-1.7c0-0.6,0.4-1,1-1s1,0.4,1,1v1.7C58.2,29.1,57.7,29.5,57.2,29.5z"/>
	<path fill="#035066" d="M53,29.5c-0.6,0-1-0.4-1-1v-1.7c0-0.6,0.4-1,1-1s1,0.4,1,1v1.7C54,29.1,53.5,29.5,53,29.5z"/>
	<path fill="#035066" d="M48.7,29.5c-0.6,0-1-0.4-1-1v-1.7c0-0.6,0.4-1,1-1s1,0.4,1,1v1.7C49.7,29.1,49.3,29.5,48.7,29.5z"/>
	<path fill="#035066" d="M57.2,36.5c-0.6,0-1-0.4-1-1v-1.7c0-0.6,0.4-1,1-1s1,0.4,1,1v1.7C58.2,36,57.7,36.5,57.2,36.5z"/>
	<path fill="#035066" d="M53,36.5c-0.6,0-1-0.4-1-1v-1.7c0-0.6,0.4-1,1-1s1,0.4,1,1v1.7C54,36,53.5,36.5,53,36.5z"/>
	<path fill="#035066" d="M48.7,36.5c-0.6,0-1-0.4-1-1v-1.7c0-0.6,0.4-1,1-1s1,0.4,1,1v1.7C49.7,36,49.3,36.5,48.7,36.5z"/>
	<path fill="#035066" d="M57.2,57.1c-0.6,0-1-0.4-1-1v-1.7c0-0.6,0.4-1,1-1s1,0.4,1,1v1.7C58.2,56.7,57.7,57.1,57.2,57.1z"/>
	<path fill="#035066" d="M53,57.1c-0.6,0-1-0.4-1-1v-1.7c0-0.6,0.4-1,1-1s1,0.4,1,1v1.7C54,56.7,53.5,57.1,53,57.1z"/>
	<path fill="#035066" d="M48.7,57.1c-0.6,0-1-0.4-1-1v-1.7c0-0.6,0.4-1,1-1s1,0.4,1,1v1.7C49.7,56.7,49.3,57.1,48.7,57.1z"/>
	<path fill="#035066" d="M57.2,64.1c-0.6,0-1-0.4-1-1v-1.7c0-0.6,0.4-1,1-1s1,0.4,1,1v1.7C58.2,63.7,57.7,64.1,57.2,64.1z"/>
	<path fill="#035066" d="M53,64.1c-0.6,0-1-0.4-1-1v-1.7c0-0.6,0.4-1,1-1s1,0.4,1,1v1.7C54,63.7,53.5,64.1,53,64.1z"/>
	<path fill="#035066" d="M48.7,64.1c-0.6,0-1-0.4-1-1v-1.7c0-0.6,0.4-1,1-1s1,0.4,1,1v1.7C49.7,63.7,49.3,64.1,48.7,64.1z"/>
	<path fill="#035066" d="M57.2,71c-0.6,0-1-0.4-1-1v-1.7c0-0.6,0.4-1,1-1s1,0.4,1,1V70C58.2,70.6,57.7,71,57.2,71z"/>
	<path fill="#035066" d="M53,71c-0.6,0-1-0.4-1-1v-1.7c0-0.6,0.4-1,1-1s1,0.4,1,1V70C54,70.6,53.5,71,53,71z"/>
	<path fill="#035066" d="M48.7,71c-0.6,0-1-0.4-1-1v-1.7c0-0.6,0.4-1,1-1s1,0.4,1,1V70C49.7,70.6,49.3,71,48.7,71z"/>
	<path fill="#035066" d="M20.5,86.9c0,0.6,0.4,1,1,1h60.9c0.6,0,1-0.4,1-1s-0.4-1-1-1h-1.8V51.5c0-0.6-0.4-1-1-1H63.2V21
		c0-0.6-0.4-1-1-1H43.7c-0.6,0-1,0.4-1,1v19.4h-18c-0.6,0-1,0.4-1,1v44.5h-2.2C20.9,85.9,20.5,86.3,20.5,86.9z M69.9,56.1h-2.2v-3.6
		h2.2V56.1z M74.1,56.1h-2.2v-3.6h2.2V56.1z M78.6,56.1h-2.5v-3.6h2.5V56.1z M63.2,71.3h15.3v14.6H63.2V71.3z M63.2,58.1h15.3v11.2
		H63.2V58.1z M63.2,52.5h2.5v3.6h-2.5L63.2,52.5z M49.3,77.9c0-2.1,1.6-3.8,3.7-3.8s3.7,1.7,3.7,3.8v8h-7.3V77.9z M44.7,22h16.6
		v29.5v34.4h-2.6v-8c0-3.2-2.5-5.8-5.7-5.8c-3.1,0-5.7,2.6-5.7,5.8v8h-2.6V22z M30.6,77.9c0-2.1,1.6-3.8,3.7-3.8s3.7,1.7,3.7,3.8v8
		h-7.3L30.6,77.9z M25.7,66.1h17v19.8H40v-8c0-3.2-2.5-5.8-5.7-5.8c-3.1,0-5.7,2.6-5.7,5.8v8h-2.9L25.7,66.1L25.7,66.1z M30.6,63.9
		v-8.8c0-2.1,1.6-3.8,3.7-3.8s3.7,1.7,3.7,3.8v8.8c0,0.1,0,0.1,0,0.2h-7.4C30.6,64,30.6,64,30.6,63.9z M25.7,42.4h17v21.7h-2.7
		c0-0.1,0-0.1,0-0.2v-8.8c0-3.2-2.5-5.8-5.7-5.8c-3.1,0-5.7,2.6-5.7,5.8v8.8c0,0.1,0,0.1,0,0.2h-3L25.7,42.4z"/>
</g>
<g>
	<path fill="#0CAEBE" d="M49.3,77.9c0-2.1,1.6-3.8,3.7-3.8s3.7,1.7,3.7,3.8v8h-7.3V77.9z M25.7,66.1h17v19.8H40v-8
		c0-3.2-2.5-5.8-5.7-5.8c-3.1,0-5.7,2.6-5.7,5.8v8h-2.9L25.7,66.1L25.7,66.1z M25.7,42.4h17v21.7h-2.7c0-0.1,0-0.1,0-0.2v-8.8
		c0-3.2-2.5-5.8-5.7-5.8c-3.1,0-5.7,2.6-5.7,5.8v8.8c0,0.1,0,0.1,0,0.2h-3L25.7,42.4z"/>
</g>
</svg>
