<?xml version="1.0" encoding="utf-8"?>
<!-- Generator: Adobe Illustrator 22.1.0, SVG Export Plug-In . SVG Version: 6.00 Build 0)  -->
<svg version="1.1" id="Layer_1" xmlns="http://www.w3.org/2000/svg" xmlns:xlink="http://www.w3.org/1999/xlink" x="0px" y="0px"
	 viewBox="0 0 136.6 57.1" enable-background="new 0 0 136.6 57.1" xml:space="preserve">
<g>
	<g>
		<g>
			<g>
				<g>
					<g>
						<path d="M129.9,41.4c-1,0-2-0.4-2.7-1.1l-12.5-12.5l1.8-1.8l12.5,12.5c0.5,0.5,1.3,0.5,1.8,0s0.5-1.3,0-1.8l-0.1-0.2
							l-10.7-15.2l2.1-1.5l10.6,15.1c1.4,1.5,1.4,3.9-0.1,5.3C131.9,41,131.1,41.4,129.9,41.4z"/>
					</g>
				</g>
			</g>
		</g>
		<g>
			<g>
				<g>
					<path d="M75.1,45.7c-2.1,0-3.8-1.7-3.8-3.8v-7.6c-1.4-0.6-3.9-1.9-4.4-3.8l2.5-0.6c0.2,0.7,2,1.8,3.6,2.3l0.9,0.3v9.4
						c0,0.7,0.6,1.3,1.3,1.3c0.7,0,1.3-0.6,1.3-1.3v-0.2l2.7-19.5l2.6,0.4L79,42C78.8,44,77.2,45.7,75.1,45.7z"/>
				</g>
			</g>
		</g>
		<g>
			<g>
				<g>
					<path d="M52.3,42.3c-1,0-2-0.4-2.7-1.1c-1.3-1.3-1.4-3-0.2-5.1L58,21.2c0.2-0.3,0.5-0.8,0.7-1.4c-2.7,1.2-7.3,5.6-9.3,7.7
						c-3,3.3-6.3,6.6-10.7,8.2c-5.4,2-11.9,0.8-19.2-3.6c-0.8-0.5-1.4-1.2-1.6-2.1c-0.2-0.9-0.1-1.8,0.4-2.6
						c0.5-0.8,1.2-1.4,2.1-1.6s1.8-0.1,2.6,0.4c5.5,3.2,10,4.3,13.4,3c3.1-1.1,5.8-4.5,8.4-7.7c3.4-4.2,7.6-7.6,11.7-10.6
						c6-4.4,9.4-5.7,15.4-7.4c5.6-1.5,9.8-2.1,15.8-1.9c2.6,0.1,5.1,0.2,7.4,1.1c0.7,0.3,1.4,0.6,2,0.9c0.8,0.4,1.6,0.7,2.3,1
						c1.3,0.4,2.5,0.3,4.1,0.2c3.5-0.3,6.8-0.7,10-1.1l0.4,2.6c-3.2,0.3-6.6,0.7-10.1,1c-1.7,0.1-3.3,0.2-5.1-0.3
						c-0.9-0.3-1.8-0.7-2.6-1.1c-0.6-0.3-1.2-0.6-1.8-0.8c-2-0.7-4.2-0.8-6.6-0.9C81.9,4,78.1,4.5,72.6,6.1c-5.7,1.6-9,2.8-14.6,7
						C54.3,15.8,50,19,46.8,23.2c-2.8,3.5-5.8,7.1-9.5,8.5c-4.1,1.5-9.4,0.4-15.6-3.2c-0.2-0.1-0.4-0.1-0.7-0.1
						c-0.2,0.1-0.4,0.2-0.5,0.4c-0.1,0.2-0.1,0.4-0.1,0.7c0.1,0.2,0.2,0.4,0.4,0.5c6.6,3.9,12.4,5.1,17.1,3.4
						c3.9-1.4,6.8-4.4,9.7-7.5c1.4-1.5,7.4-7.5,11-8.6c0.9-0.2,1.3-0.3,1.5-0.4h0.1c0,0,0.1,0,0.1-0.1c0.1-0.1,0.3-0.2,0.5-0.3
						l3.8-2.3l-1.9,4c-0.1,0.1-1.6,3.3-2.3,4.5l-8.5,14.9c-0.8,1.5-0.4,1.8-0.2,2.1c0.5,0.5,1.3,0.5,1.8,0L65.1,28
						c0.3-0.4,9-9.4,15.8-9.4c2.7,0,5.7,0.9,8.7,1.8c3.5,1.1,7.1,2.2,8,0.8l3.4-5.4l-1,6.1c0.1,0.3,0.8,2.4,6.7,4.4l-1,2.1
						c-4.6-1.6-6.7-3.4-7.7-4.7c-2.3,1.1-5.7,0-9.4-1.1c-2.7-0.9-5.6-1.7-7.9-1.7c-4.7,0-11.7,6.2-13.9,8.6L55,41.2
						C54.3,41.9,53.3,42.3,52.3,42.3z"/>
				</g>
			</g>
		</g>
		<g>
			<g>
				<g>
					<path d="M129.4,19.5c-2.4,0-5.5-0.6-6.6-1c-2.3-0.3-6.2-2.3-6.2-7.5h2.6c0,4.3,3.7,4.9,4.1,5h0.3l0.2,0.1
						c0.9,0.4,6.1,1.2,7.1,0.7c1.1-0.6,2-1.5,2.8-2.5c-0.8-1.8-1.6-3.6-2.7-5.2c-0.9-1.3-2.5-3-4.7-3.7l-0.2-0.1
						c-0.6-0.2-1-0.3-1.7-0.3l0.1,3.5l-2.4-2.8c-1.7-2-2.1-2.5-2.2-2.6c-0.4-0.6-1.2-0.7-1.8-0.3c-0.3,0.2-0.5,0.5-0.5,0.8
						c-0.1,0.3,0,0.6,0.2,0.9l3.1,3.3l-1.9,1.8l-3.2-3.5c-0.6-0.8-0.8-1.9-0.7-2.9c0.2-1,0.7-1.9,1.6-2.5c1.7-1.2,4.1-0.8,5.3,0.9
						c0.1,0.1,0.3,0.4,1,1.2c0.3-0.2,0.7-0.3,1.1-0.3c1.2-0.1,2,0.2,2.7,0.4l0.2,0.1c2.9,0.9,4.9,3,6.1,4.7c1.4,2,2.4,4.3,3.3,6.4
						l0.3,0.7l-0.5,0.6c-1.1,1.3-2.4,2.7-4,3.6C131.6,19.3,130.6,19.5,129.4,19.5z M124.3,4.9L124.3,4.9L124.3,4.9z"/>
				</g>
			</g>
		</g>
		<g>
			<g>
				<g>
					<path d="M108.7,44.1c-2,0-3.7-1.6-3.8-3.6l-3.4-11.2l2.5-0.8l3.5,11.6v0.2c0,0.7,0.6,1.3,1.3,1.3s1.3-0.6,1.3-1.3v-12l0.4-0.4
						c0,0,3.8-3.8,4.4-9.9l2.6,0.2c-0.5,5.9-3.7,9.8-4.8,11.1v10.9C112.6,42.4,110.8,44.1,108.7,44.1z"/>
				</g>
			</g>
		</g>
	</g>
	<g>
		<g>
			<g>
				<rect x="127.3" y="9.1" transform="matrix(0.6484 -0.7613 0.7613 0.6484 36.8341 101.7347)" width="2.6" height="3.7"/>
			</g>
		</g>
	</g>
</g>
<path d="M35.1,9.3h9c0.4,0,0.7-0.3,0.7-0.7c0-0.4-0.3-0.7-0.7-0.7h-9c-0.4,0-0.7,0.3-0.7,0.7C34.4,9,34.7,9.3,35.1,9.3z"/>
<path d="M19.9,9.3h11c0.4,0,0.7-0.3,0.7-0.7c0-0.4-0.3-0.7-0.7-0.7h-11c-0.4,0-0.7,0.3-0.7,0.7C19.2,9,19.5,9.3,19.9,9.3z"/>
<g>
	<path d="M43.7,4.2h4.8c0.4,0,0.7-0.3,0.7-0.7s-0.3-0.7-0.7-0.7h-4.8c-0.4,0-0.7,0.3-0.7,0.7S43.3,4.2,43.7,4.2z"/>
	<path d="M38.9,4.2h0.5c0.4,0,0.7-0.3,0.7-0.7s-0.3-0.7-0.7-0.7h-0.5c-0.4,0-0.7,0.3-0.7,0.7S38.5,4.2,38.9,4.2z"/>
</g>
<g>
	<path d="M40.8,13.7c0-0.4-0.3-0.7-0.7-0.7H13.9c-0.4,0-0.7,0.3-0.7,0.7s0.3,0.7,0.7,0.7h26.2C40.5,14.4,40.8,14.1,40.8,13.7z"/>
	<path d="M2.3,13H1.8c-0.4,0-0.7,0.3-0.7,0.7s0.3,0.7,0.7,0.7h0.5c0.4,0,0.7-0.3,0.7-0.7S2.7,13,2.3,13z"/>
	<path d="M9.3,13H6.9c-0.4,0-0.7,0.3-0.7,0.7s0.3,0.7,0.7,0.7h2.3c0.4,0,0.7-0.3,0.7-0.7C10,13.3,9.6,13,9.3,13z"/>
</g>
</svg>
