<?xml version="1.0" encoding="utf-8"?>
<!-- Generator: Adobe Illustrator 22.1.0, SVG Export Plug-In . SVG Version: 6.00 Build 0)  -->
<svg version="1.1" id="Layer_1" xmlns="http://www.w3.org/2000/svg" xmlns:xlink="http://www.w3.org/1999/xlink" x="0px" y="0px"
	 viewBox="0 0 156 125" enable-background="new 0 0 156 125" xml:space="preserve">
	 <style>
	 	path, rect, circle {
	 	fill: white;
	 	}
	 </style>
<g>
	<circle cx="139.4" cy="38.4" r="1.3"/>
	<path d="M66.8,56.4c-0.2,0.4-0.3,1-0.3,1.5c0,2.5,2,4.5,4.5,4.5h0.3l-2.2,4.2c-0.9,1.7-0.8,3.7,0.3,5.3c1,1.5,2.6,2.4,4.4,2.4
		c0.1,0,0.3,0,0.4,0l1.8-0.1c3.3-0.3,5.9-2.9,6.1-6.2l0.3-5.6h32.9l0.3,5.6c0.2,3.3,2.8,6,6.1,6.2l1.8,0.1c0.1,0,0.3,0,0.4,0
		c1.8,0,3.4-0.9,4.4-2.4c1.1-1.6,1.2-3.6,0.3-5.3l-2.2-4.3c2.3-0.2,4.1-2.1,4.1-4.4c3-0.5,6.7-1.5,9.6-3.7c3-2.2,5.2-6.2,5.9-10.2
		h0.1h3c0.8,0,1.5-0.7,1.5-1.5c0-6.5-4.7-11.3-11.2-11.3c-6.6,0-11.2,4.4-11.2,10.7c0,1.3-0.2,2.8-3.2,3.6
		c-4.7-10-15-17.2-26.3-17.2c-12.5,0-23.8,8.8-27.6,20.5c-1.5-0.3-4.3-1.1-8-3.6c-0.4-0.3-0.9-0.4-1.4-0.2c-0.4,0.2-0.8,0.5-0.9,1
		C60.3,48.2,61,53.1,66.8,56.4z M108.6,53H88.8l4.3-7h11.2L108.6,53z M83.8,36.3l6.7,8.3L85.3,53h-12c0.1-0.7,0.2-1.3,0.4-2
		c0-0.2,0.1-0.3,0.1-0.5C75.4,44.8,79.1,39.8,83.8,36.3z M98.8,31.3c4.4,0,8.6,1.2,12.4,3.4l-6.7,8.3H93.1l-6.7-8.3
		C90.1,32.5,94.3,31.3,98.8,31.3z M124.3,53h-12.2l-5.1-8.4l6.7-8.3C119.1,40.3,123.1,46.3,124.3,53z M138.5,51.6
		c-2.6,2-6.1,2.9-8.8,3.3c-0.6-0.7-1.4-1.2-2.3-1.5c-0.2-1.7-0.6-3.4-1.2-5.1c3.4-1,5.1-3.1,5.1-6.4c0-5.3,4.1-7.7,8.2-7.7
		c4.3,0,7.5,2.7,8.1,6.8h-1.3h-1.5h-2.5c-0.8,0-1.5,0.7-1.5,1.5s0.7,1.5,1.5,1.5h0.8C142.5,47.1,140.7,50.1,138.5,51.6z M118.6,62.4
		h4.7l2.9,5.6c0.4,0.7,0.4,1.6-0.1,2.3s-1.3,1.1-2.1,1l-1.8-0.1c-1.8-0.2-3.2-1.6-3.3-3.4L118.6,62.4z M75,62.4h4.7l-0.3,5.4
		c-0.1,1.8-1.5,3.3-3.3,3.4l-1.8,0.1c-0.9,0.1-1.6-0.3-2.1-1c-0.4-0.7-0.5-1.6-0.1-2.3L75,62.4z M69.8,57.9c0-0.8,0.6-1.5,1.5-1.5
		h54.8c0.8,0,1.5,0.7,1.5,1.5s-0.6,1.5-1.5,1.5H71.3C70.5,59.4,69.8,58.7,69.8,57.9z M63.9,49.3c2.7,1.5,4.9,2.1,6.4,2.4
		c-0.1,0.6-0.2,1.3-0.3,1.9c-0.3,0.1-0.7,0.2-1,0.4c0-0.1-0.1-0.1-0.1-0.1C65.8,52.4,64.5,50.6,63.9,49.3z"/>
</g>
<path d="M48.7,31.9h13.5c0.6,0,1-0.4,1-1s-0.4-1-1-1H48.7c-0.6,0-1,0.4-1,1C47.6,31.4,48.1,31.9,48.7,31.9z"/>
<g>
	<path d="M61.6,24.2h7.2c0.6,0,1-0.4,1-1c0-0.6-0.4-1-1-1h-7.2c-0.6,0-1,0.4-1,1C60.5,23.8,61,24.2,61.6,24.2z"/>
	<path d="M54.4,24.2h0.7c0.6,0,1-0.4,1-1c0-0.6-0.4-1-1-1h-0.7c-0.6,0-1,0.4-1,1C53.3,23.8,53.8,24.2,54.4,24.2z"/>
</g>
</svg>
