<?xml version="1.0" encoding="utf-8"?>
<!-- Generator: Adobe Illustrator 22.1.0, SVG Export Plug-In . SVG Version: 6.00 Build 0)  -->
<svg version="1.1" id="Layer_1" xmlns="http://www.w3.org/2000/svg" xmlns:xlink="http://www.w3.org/1999/xlink" x="0px" y="0px"
	 viewBox="0 0 100.1 53.6" style="enable-background:new 0 0 100.1 53.6;" xml:space="preserve">
<style type="text/css">
	.st0{fill:#035066;}
	.st1{fill:#0CAEBE;}
</style>
<g>
	<path class="st0" d="M50,0C28.4,0,9.9,4.3,3,10.3c-1.9,1.6-2.9,3.4-3,5.2v0.1v19.7c0,8.6,22.4,15.6,50,15.6c1.9,0,3.7,0,5.5-0.1
		c0.9,1.7,2.7,2.8,4.8,2.8c0.2,0,0.4,0,0.7,0l10.9-1.2c2.3-0.3,4.3-1.8,5.2-3.9c13.8-2.8,23-7.6,23-13.1V15.6C100,7,77.6,0,50,0z
		 M10.1,10.5C11.7,9.8,13.6,9,16,8.3c9.1-2.8,21.2-4.4,34.1-4.4c13,0,25.1,1.6,34.2,4.4c2.1,0.7,3.7,1.3,5.2,2v9.2
		c-9.9-3.6-24.3-5.7-39.4-5.7c-15.4,0-30,2.2-39.9,5.9L10.1,10.5L10.1,10.5z M54.8,46.9c-8.2,0.9-47.6-2-50.9-11.6v-9
		c17.5,10,49.3,8.8,50.9,8.7V46.9z M73.6,45.9c0,1.2-1,2.4-2.3,2.5l-10.9,1.2c-0.1,0-0.2,0-0.2,0c-0.9,0-1.6-0.7-1.6-1.6V33.2
		l15-1.4V45.9L73.6,45.9z M54.8,29.6v1.5c-1.6,0-3.2,0.1-4.8,0.1c-17.1,0-32.1-2.7-41.2-6.7c9-4.1,24.1-6.7,41.2-6.7
		s32.1,2.7,41.2,6.7c-3.6,1.6-8.3,3.1-13.6,4.2v-1.1L54.8,29.6z M84.1,42.6c-2,0.6-4.2,1.2-6.5,1.7V32.6c2.3-0.5,4.5-1,6.5-1.5V42.6
		z M96.1,35.3c0,0.8-1.2,3.6-10.3,6.8V30.6c5.6-1.6,9.3-3.7,10.3-4.3V35.3z M46.6,41c0,0.9-0.7,1.6-1.6,1.6s-1.6-0.7-1.6-1.6
		s0.7-1.6,1.6-1.6C45.9,39.4,46.6,40.1,46.6,41z M36.2,40.2c0,0.9-0.7,1.6-1.6,1.6c-0.9,0-1.6-0.7-1.6-1.6s0.7-1.6,1.6-1.6
		C35.4,38.6,36.2,39.3,36.2,40.2z M25.7,38.6c0,0.9-0.7,1.6-1.6,1.6c-0.9,0-1.6-0.7-1.6-1.6s0.7-1.6,1.6-1.6S25.7,37.7,25.7,38.6z
		 M66.5,46.6c3.4,0,6.2-2.8,6.2-6.2s-2.8-6.2-6.2-6.2s-6.2,2.8-6.2,6.2C60.3,43.8,63.1,46.6,66.5,46.6z M66.5,36.4c2.2,0,4,1.8,4,4
		s-1.8,4-4,4s-4-1.8-4-4C62.5,38.2,64.3,36.4,66.5,36.4z"/>
</g>
<g>
	<path class="st1" d="M10.1,10.5C11.7,9.8,13.6,9,16,8.3c9.1-2.8,21.2-4.4,34.1-4.4c13,0,25.1,1.6,34.2,4.4c2.1,0.7,3.7,1.3,5.2,2
		v9.2c-9.9-3.6-24.3-5.7-39.4-5.7c-15.4,0-30,2.2-39.9,5.9L10.1,10.5L10.1,10.5z"/>
</g>
</svg>
