<?xml version="1.0" encoding="utf-8"?>
<!-- Generator: Adobe Illustrator 22.1.0, SVG Export Plug-In . SVG Version: 6.00 Build 0)  -->
<svg version="1.1" id="Layer_1" xmlns="http://www.w3.org/2000/svg" xmlns:xlink="http://www.w3.org/1999/xlink" x="0px" y="0px"
	 viewBox="0 0 100 125" enable-background="new 0 0 100 125" xml:space="preserve">
<path d="M83.3,5.4H66.6c-7.6,0-13.7,6.2-13.7,13.7v7.4c0,0.2-0.1,0.4-0.1,0.6l-5.5,10.2c-0.3,0.5-0.2,1,0,1.5
	c0.3,0.5,0.8,0.7,1.3,0.7h34.8c7.6,0,13.7-6.2,13.7-13.7v-6.7C97.1,11.5,90.9,5.4,83.3,5.4z M94.1,25.8c0,5.9-4.8,10.7-10.7,10.7H51
	l4.3-8c0.3-0.6,0.5-1.3,0.5-2v-7.4c0-5.9,4.8-10.7,10.7-10.7h16.7c5.9,0,10.7,4.8,10.7,10.7V25.8z"/>
<path d="M65.4,19.1c-1.9,0-3.5,1.6-3.5,3.5c0,1.9,1.6,3.5,3.5,3.5c1.9,0,3.5-1.6,3.5-3.5C68.9,20.7,67.3,19.1,65.4,19.1z"/>
<path d="M75.4,19.1c-1.9,0-3.5,1.6-3.5,3.5c0,1.9,1.6,3.5,3.5,3.5c1.9,0,3.5-1.6,3.5-3.5C78.9,20.7,77.3,19.1,75.4,19.1z"/>
<path d="M85.4,19.1c-1.9,0-3.5,1.6-3.5,3.5c0,1.9,1.6,3.5,3.5,3.5c1.9,0,3.5-1.6,3.5-3.5C88.9,20.7,87.3,19.1,85.4,19.1z"/>
</svg>
