<?xml version="1.0" encoding="utf-8"?>
<!-- Generator: Adobe Illustrator 22.1.0, SVG Export Plug-In . SVG Version: 6.00 Build 0)  -->
<svg version="1.1" id="Layer_1" xmlns="http://www.w3.org/2000/svg" xmlns:xlink="http://www.w3.org/1999/xlink" x="0px" y="0px"
	 viewBox="0 0 63.4 46.6" style="enable-background:new 0 0 63.4 46.6;" xml:space="preserve">
<style type="text/css">
	.st0{fill:#035066;}
	.st1{fill:#0CAEBE;}
</style>
<g>
	<g>
		<path class="st0" d="M31.1,37.4L31.1,37.4l-2.8-8.6l7.3-5.3c0.1-0.1,0.2-0.2,0.3-0.3c0.9-0.9,1-1.8,0.8-2.3
			c-0.2-0.7-0.9-1.5-2.9-1.5h-0.1l0,0h-8.5l-2.7-8.3c0-0.1-0.1-0.1-0.1-0.2c-0.6-1.6-1.5-2-2.2-2s-1.7,0.4-2.3,2.3l-1.6,4.9v0.1
			l-1,3.2H6.4c-0.1,0-0.2,0-0.3,0c-1.5,0.1-2.1,0.9-2.3,1.5c-0.2,0.7-0.1,1.7,1.5,2.9l4,2.9c0,0,0.1,0,0.1,0.1l2.8,2.1l-1.8,5.7
			c0,0,0,0.1-0.1,0.1l-0.9,2.9c-0.6,1.7,0.1,2.5,0.5,2.8c0.3,0.2,0.6,0.3,1.1,0.3s1.1-0.2,1.8-0.6c0.1,0,0.1-0.1,0.2-0.1l7.2-5.2
			l4.1,3c0,0,0,0,0.1,0.1l2.8,2.1c0.1,0.1,0.2,0.1,0.3,0.2l0,0c0.1,0,0.1,0.1,0.2,0.1c0.7,0.4,1.2,0.5,1.7,0.5s0.8-0.2,1.1-0.3
			C31,39.9,31.6,39.1,31.1,37.4L31.1,37.4z M21,32c-0.4-0.3-1-0.3-1.5,0l-4.9,3.5c0,0,0,0-0.1,0L12,37.3l2.8-8.7
			c0.2-0.5,0-1.1-0.5-1.4l-7.4-5.4h4.7l0,0h4.5c0.6,0,1-0.4,1.2-0.9l2.8-8.7l1.5,4.5c0,0,0,0.1,0.1,0.1l1.3,4.1
			c0.2,0.5,0.7,0.9,1.2,0.9h4.5l0,0h4.6l-2.9,2.1c0,0,0,0-0.1,0l-4.4,3.2c-0.4,0.3-0.6,0.9-0.5,1.4l2.2,6.6v0.1l0.6,1.9L21,32z"/>
		<path class="st0" d="M20.1,38.9c-0.7,0-1.3,0.6-1.3,1.3v5.1c0,0.7,0.6,1.3,1.3,1.3s1.3-0.6,1.3-1.3v-5.1
			C21.4,39.5,20.8,38.9,20.1,38.9z"/>
		<path class="st0" d="M31,8.7l-3,4.2c-0.4,0.6-0.3,1.4,0.3,1.8c0.2,0.2,0.5,0.2,0.7,0.2c0.4,0,0.8-0.2,1-0.5l3-4.2
			c0.4-0.6,0.3-1.4-0.3-1.8C32.2,8,31.4,8.1,31,8.7z"/>
		<path class="st0" d="M10.6,14.2c0.2,0.3,0.6,0.5,1,0.5c0.3,0,0.5-0.1,0.7-0.2c0.6-0.4,0.7-1.2,0.3-1.8l-3-4.2
			C9.2,7.9,8.4,7.8,7.8,8.2S7.1,9.4,7.5,10L10.6,14.2z"/>
		<path class="st0" d="M5.8,28.7l-4.9,1.6c-0.7,0.2-1,0.9-0.8,1.6c0.2,0.5,0.7,0.9,1.2,0.9c0.1,0,0.3,0,0.4-0.1l4.9-1.6
			c0.7-0.2,1-0.9,0.8-1.6C7.2,28.9,6.5,28.5,5.8,28.7z"/>
	</g>
</g>
<path class="st0" d="M63.3,9.5c-0.2-0.6-0.8-1.3-2.5-1.3h-6.4l-2-6.3c0-0.1-0.1-0.1-0.1-0.2C51.8,0.3,51,0,50.4,0s-1.5,0.3-2,1.9
	l-1.2,3.8v0.1l-0.8,2.3h-6.8c-0.1,0-0.2,0-0.2,0c-1.3,0.1-1.8,0.8-2,1.3c-0.2,0.6-0.1,1.5,1.2,2.5l3.2,2.3l2.1,1.5L42.5,20v0.1
	l-0.7,2.2c-0.5,1.4,0.1,2.1,0.5,2.4c0.3,0.2,0.6,0.3,1,0.3c0.5,0,1-0.2,1.5-0.5c0.1,0,0.1-0.1,0.2-0.1l5.5-4l5.3,3.9
	c0.1,0.1,0.2,0.1,0.3,0.2c0.1,0,0.1,0.1,0.2,0.1c0.5,0.3,1,0.5,1.4,0.5s0.7-0.1,1-0.3c0.4-0.3,1-1,0.5-2.4v-0.1l-2.1-6.5l5.6-4
	c0.1-0.1,0.2-0.2,0.2-0.3C63.5,10.8,63.5,10,63.3,9.5z M44.5,21.9l2-6.1c0.2-0.5,0-1-0.4-1.3l-5.2-3.8h6.4c0.5,0,1-0.3,1.1-0.8
	l2-6.1l0.9,2.9v0.1l1,3.2c0.2,0.5,0.6,0.8,1.1,0.8h6.4l-5.2,3.8c-0.4,0.3-0.6,0.8-0.4,1.3l1.7,5.2v0.1l0.3,0.9L51,18.3
	c-0.2-0.2-0.5-0.2-0.7-0.2s-0.5,0.1-0.7,0.2L44.5,21.9z"/>
<path class="st1" d="M44.5,21.9l2-6.1c0.2-0.5,0-1-0.4-1.3l-5.2-3.8h6.4c0.5,0,1-0.3,1.1-0.8l2-6.1l0.9,2.9v0.1l1,3.2
	c0.2,0.5,0.6,0.8,1.1,0.8h6.4l-5.2,3.8c-0.4,0.3-0.6,0.8-0.4,1.3l1.7,5.2v0.1l0.3,0.9L51,18.3c-0.2-0.2-0.5-0.2-0.7-0.2
	s-0.5,0.1-0.7,0.2L44.5,21.9z"/>
</svg>
