<?xml version="1.0" encoding="utf-8"?>
<!-- Generator: Adobe Illustrator 22.1.0, SVG Export Plug-In . SVG Version: 6.00 Build 0)  -->
<svg version="1.1" id="Layer_1" xmlns="http://www.w3.org/2000/svg" xmlns:xlink="http://www.w3.org/1999/xlink" x="0px" y="0px"
	 viewBox="0 0 256.4 55.4" style="enable-background:new 0 0 256.4 55.4;" xml:space="preserve">
<style type="text/css">
	.st0{fill:#FFBD27;}
</style>
<path class="st0" d="M255.5,26.1c0.5,0.6,1.3,1.1,0.7,2c-0.5,0.8-1.4,0.6-2.2,0.4c-3.7-1.1-7.4-1.9-11.2-2.6
	c-11.6-2.2-23.3-2.8-35.1-2.2c-13.8,0.7-27.1,3.5-40.2,7.4c-9.4,2.8-18.7,5.5-27.9,8.7c-7.9,2.8-15.9,5.5-23.9,7.9
	c-9,2.6-18,5.1-27.3,6.6c-13.2,2.1-26.3,1.3-39.3-1.8c-17-4.1-32.6-11.2-46.9-21.2c-0.7-0.5-1.3-0.9-1.8-1.6c-0.4-0.5-0.5-1-0.1-1.6
	c0.3-0.4,0.8-0.5,1.3-0.4S2.5,28,3,28.1c22.2,8.1,44.6,8.2,67.2,1.7c10-2.9,19.6-6.8,29.4-10.4C121.1,11.5,143,5,165.7,1.3
	c15-2.5,29.8-1.2,44.4,2.9c15.7,4.3,30.2,11.3,43.6,20.6c0.5,0.3,0.9,0.6,1.4,1C255.1,25.8,255.3,25.9,255.5,26.1z"/>
</svg>
