<?xml version="1.0" encoding="utf-8"?>
<!-- Generator: Adobe Illustrator 22.1.0, SVG Export Plug-In . SVG Version: 6.00 Build 0)  -->
<svg version="1.1" id="Layer_1" xmlns="http://www.w3.org/2000/svg" xmlns:xlink="http://www.w3.org/1999/xlink" x="0px" y="0px"
	 viewBox="0 0 814 640" enable-background="new 0 0 814 640" xml:space="preserve">
	 <style>
	 	path, rect {
	 	fill: white;
	 	}
	 </style>
<g>
	<path d="M276.7,288.5l9.8-14c-61.8-43.2-48.5-90.8-47.9-92.8l-8.2-2.5l-8.1-2.5C221.5,179.2,204.2,237.8,276.7,288.5z"/>
	<path d="M376.7,275.1c-1.3-1.5-2.7-2.8-4.2-4.1c15.2-16.6,45.4-55.3,45.4-100.3h-17c0,44.3-35.8,83.7-45.8,93.9
		c-0.4,0-0.7-0.1-1.1-0.1c-3.6,0-7,0.7-10.1,1.9c3.2-44.4,5.3-136.2-27-172.7c-9.6-10.9-21.6-16.4-35.4-16.4
		c-56.7,0-102.4,67.7-116.8,115.8c-7.2,24-7.3,43.7-0.9,57c-29.8,6.6-95.3,27.4-95.3,82.5c0,11.9,4.7,22.1,14,30.4
		c22,19.5,67.9,24,105.5,24c15.1,0,28.8-0.7,39.2-1.5c-11.3,17-19,35.1-9.2,44.8c3,3,6.8,4.4,11.6,4.4c6.9,0,15.7-3.1,26.2-9.3
		c14.3-8.4,30.9-21.7,46.7-37.5c4.9-4.9,38.5-39.2,45.5-64.4c1.9,0.4,3.9,0.6,6,0.6c16.4,0,29.8-13.4,29.8-29.8
		c0-0.4-0.1-0.7-0.1-1.1c21.9-26.6,50.6-54.3,59.8-54.3v-17C424.9,221.9,393.4,255.5,376.7,275.1z M181,198
		c14.9-49.9,57.6-103.7,100.5-103.7c8.9,0,16.3,3.5,22.7,10.6c31,35,25.3,144.7,20.5,184l0,0c-0.3,1.7-0.5,3.5-0.5,5.3
		c0,2,0.2,4,0.6,6c-5.2,1.4-11.1,4.1-17.7,7.9c-6.2,3.7-13,8.4-19.8,13.7c-16.7-12.3-70.7-51.7-103.3-73.1
		C174.7,242.8,173.6,222.8,181,198z M93.8,350.3c-5.6-4.9-8.3-10.7-8.3-17.6c0-49.3,75.6-65,91.8-67.8
		c30.4,20.2,77.3,54.3,96.4,68.3c-4.5,4-9,8.1-13.4,12.6c-2.2,2.2-10.4,10.6-19.4,21.4C206.5,371,121.4,374.7,93.8,350.3z
		 M290.5,375.9c-28.4,28.4-52.3,41.4-59.9,41.9c0.5-7.6,13.5-31.6,41.9-60s52.3-41.4,59.9-41.9C331.9,323.6,318.9,347.5,290.5,375.9
		z M354,307.1c-7,0-12.8-5.7-12.8-12.8s5.7-12.8,12.8-12.8s12.8,5.7,12.8,12.8S361.1,307.1,354,307.1z"/>
</g>
<path d="M397,391.6h208.3c23.3,0,42.3-19,42.3-42.3c0-23.4-19-42.3-42.3-42.3c-23.4,0-42.3,19-42.3,42.3c0,4.6-3.7,8.3-8.3,8.3
	c-4.6,0-8.3-3.7-8.3-8.3c0-32.5,26.5-59,59-59c32.5,0,59,26.5,59,59c0,32.5-26.5,59-59,59H397c-4.6,0-8.3-3.7-8.3-8.3
	C388.7,395.4,392.4,391.6,397,391.6z"/>
<path d="M626.9,422.6c0-4.6,3.7-8.3,8.3-8.3c23.4,0,42.3-19,42.3-42.3c0-4.6,3.7-8.3,8.3-8.3c4.6,0,8.3,3.7,8.3,8.3
	c0,32.5-26.5,59-59,59C630.6,430.9,626.9,427.2,626.9,422.6z"/>
<path d="M493.9,374.5h-54.3c-4.6,0-8.3-3.7-8.3-8.3c0-4.6,3.7-8.3,8.3-8.3h54.3c4.6,0,8.3,3.7,8.3,8.3
	C502.3,370.8,498.5,374.5,493.9,374.5z"/>
</svg>
