<?xml version="1.0" encoding="utf-8"?>
<!-- Generator: Adobe Illustrator 22.1.0, SVG Export Plug-In . SVG Version: 6.00 Build 0)  -->
<svg version="1.1" id="Layer_1" xmlns="http://www.w3.org/2000/svg" xmlns:xlink="http://www.w3.org/1999/xlink" x="0px" y="0px"
	 viewBox="0 0 100 125" enable-background="new 0 0 100 125" xml:space="preserve">
<g>
	<path fill="#035066" d="M85.9,34.8c-10.5-10.5-27.5-10.5-37.9,0c-0.4,0.4-0.4,1,0,1.4l17.5,17.5L61.3,58H28.1c-1,0-2.6,0.3-3.6,0.7
		L7.6,65.1c-0.4,0.1-1.5,0.6-1.3,1.6c0.1,0.7,0.7,1,1.7,1h43.7l-4.8,4.8h2.8l4.8-4.8h10.2c1,0,2.6-0.3,3.6-0.7l7.5-2.8l8.6,8.6
		c0.4,0.4,1,0.4,1.4,0C96.3,62.3,96.3,45.3,85.9,34.8z M50.1,35.5c7.2-6.6,17.3-8.2,25.9-4.8l-25,5.8L50.1,35.5z M52.7,38.1L78.9,32
		c1,0.6,2,1.2,2.9,1.9L58.7,44.1L52.7,38.1z M60.2,45.7l23.4-10.3c0.1,0,0.1,0.1,0.2,0.1L66.9,52.4L60.2,45.7z M66.9,55.2l2.8,2.8
		h-5.6L66.9,55.2z M53.6,65.6H11.8l13.4-5.1c0.8-0.3,2.1-0.6,2.9-0.6h31.2L53.6,65.6z M67.6,65.1c-0.8,0.3-2.1,0.6-2.9,0.6h-8.2
		l5.6-5.6h9.6l2.5,2.5L67.6,65.1z M75,60.5L74.6,60l-2-2l-4.2-4.2L85.1,37c0,0.1,0.1,0.1,0.1,0.2L76.1,58l-0.9,2L75,60.5z M82.5,68
		l-4.6-4.6L76.5,62l0.2-0.4l0.7-1.6l0.9-2l8.4-19.2c0.7,0.9,1.3,1.9,1.8,2.9L84.8,58l-0.7,3L82.5,68z M85.2,70.6l-1-1L90,44.5
		C93.4,53.2,91.8,63.4,85.2,70.6z"/>
</g>
<g>
	<path fill="#0CAEBE" d="M53.6,65.6H11.8l13.4-5.1c0.8-0.3,2.1-0.6,2.9-0.6h31.2L53.6,65.6z M67.6,65.1c-0.8,0.3-2.1,0.6-2.9,0.6
		h-8.2l5.6-5.6h9.6l2.5,2.5L67.6,65.1z"/>
</g>
</svg>
