<?xml version="1.0" encoding="utf-8"?>
<!-- Generator: Adobe Illustrator 22.1.0, SVG Export Plug-In . SVG Version: 6.00 Build 0)  -->
<svg version="1.1" id="Layer_1" xmlns="http://www.w3.org/2000/svg" xmlns:xlink="http://www.w3.org/1999/xlink" x="0px" y="0px"
	 viewBox="0 0 300 375" enable-background="new 0 0 300 375" xml:space="preserve">
<path d="M208.3,132.7c-1.4-4.7-11.3-9.7-26.1-6.9c-18.9,3.5-42.2,10.2-65.9,18.8l-2.8,0.9c-0.3,0-0.5-0.1-0.7-0.3l-0.2-0.1
	l-12.2-8.3c-0.5-0.4-1.2-0.5-1.8-0.3l-5.5,1.5c-1.2,0.3-1.9,1.6-1.5,2.8c0.1,0.3,0.2,0.5,0.4,0.7l12.3,15.6c1.1,1.4,2.8,2.1,4.5,1.9
	l37.2-3.7c-2.8,5.6-8.4,16.6-12.4,24.6c-0.6,1.1-0.1,2.5,1,3c0.5,0.3,1.1,0.3,1.6,0.2l8-2.1c0.4-0.1,0.8-0.4,1.1-0.7l24.8-29.3
	l27.9-9c1.5-0.4,8-2.2,9.9-5.6C208.5,135.2,208.7,133.9,208.3,132.7z M196.8,137.6h-0.1l-28.5,9.2c-0.4,0.1-0.7,0.4-1,0.7
	l-24.8,29.2l-2.5,0.7l4.9-9.6c1.8-3.5,3.6-7.1,4.9-9.7l1.6-3.2c0.8-1.6,1.3-2.5,0.3-3.6c-0.4-0.5-1.1-0.8-1.8-0.8h-0.2l-41.3,4.2
	h-0.1c-0.1,0-0.3-0.1-0.4-0.2l-10.2-12.9l1.2-0.3l11.2,7.6c1.3,1.1,3,1.5,4.7,1.1h0.1l2.9-0.9h0.1c23.4-8.6,46.5-15.2,65.2-18.6
	c13.1-2.4,20.4,2.1,21,3.8C203.8,134.9,200.5,136.6,196.8,137.6L196.8,137.6z"/>
<path d="M125,122.5l10.4,6.7c1,0.7,2.4,0.4,3.1-0.7c0.7-1,0.4-2.4-0.7-3.1l0,0l-6.1-4h0.1l13.9,5.4c1.2,0.4,2.5-0.2,2.9-1.4
	c0.4-1.1-0.2-2.3-1.2-2.8l-14.6-5.6c-0.4-0.2-0.9-0.2-1.4-0.1l-5.7,1.5c-1.2,0.3-1.9,1.6-1.6,2.8C124.2,121.7,124.5,122.2,125,122.5
	L125,122.5z"/>
</svg>
