<?xml version="1.0" encoding="utf-8"?>
<!-- Generator: Adobe Illustrator 22.1.0, SVG Export Plug-In . SVG Version: 6.00 Build 0)  -->
<svg version="1.1" id="Layer_1" xmlns="http://www.w3.org/2000/svg" xmlns:xlink="http://www.w3.org/1999/xlink" x="0px" y="0px"
	 viewBox="0 0 841.9 595.3" enable-background="new 0 0 841.9 595.3" xml:space="preserve">
<g>
	<path fill-rule="evenodd" clip-rule="evenodd" fill="#FD0C15" d="M500.2,291.4c0-1.9,1.5-3.5,3.4-3.5c1.9,0,3.4,1.6,3.4,3.5
		c0,1.9-1.5,3.5-3.4,3.5C501.7,295,500.2,293.4,500.2,291.4L500.2,291.4L500.2,291.4z M503.5,294.1c1.4,0,2.6-1.2,2.6-2.7
		s-1.2-2.7-2.6-2.7c-1.4,0-2.6,1.2-2.6,2.7S502.1,294.1,503.5,294.1L503.5,294.1L503.5,294.1z M503.1,292.9h-0.7v-3.1h1.3
		c0.3,0,0.6,0,0.8,0.2c0.3,0.2,0.4,0.5,0.4,0.8c0,0.4-0.2,0.7-0.5,0.8l0.6,1.4H504l-0.5-1.2h-0.5V292.9L503.1,292.9L503.1,292.9z
		 M503.1,291.2h0.4c0.2,0,0.3,0,0.4-0.1c0.1-0.1,0.2-0.2,0.2-0.4c0-0.1-0.1-0.3-0.2-0.3c-0.1-0.1-0.3-0.1-0.4-0.1l-0.4,0
		L503.1,291.2L503.1,291.2L503.1,291.2z"/>
	<path fill-rule="evenodd" clip-rule="evenodd" fill="#FD0C15" d="M451.7,267.7l-0.9,6.1c-2-1.1-3.5-1.5-5.1-1.5
		c-4.2,0-7.2,4.3-7.2,10.4c0,4.2,2,6.8,5.3,6.8c1.4,0,2.9-0.5,4.8-1.4l-1,6.4c-2.1,0.6-3.4,0.8-5,0.8c-6.1,0-9.9-4.6-9.9-12
		c0-10,5.2-16.9,12.8-16.9c1,0,1.8,0.1,2.6,0.3l2.4,0.6C451,267.5,451.2,267.5,451.7,267.7L451.7,267.7L451.7,267.7z"/>
	<path fill-rule="evenodd" clip-rule="evenodd" fill="#FD0C15" d="M432.8,271.9c-0.2-0.1-0.4-0.1-0.6-0.1c-1.8,0-2.9,1-4.7,3.7
		l0.5-3.4H423l-3.5,22.6h5.7c2.1-13.9,2.6-16.2,5.3-16.2c0.2,0,0.2,0,0.4,0c0.5-2.7,1.2-4.7,2.2-6.6L432.8,271.9L432.8,271.9
		L432.8,271.9z"/>
	<path fill-rule="evenodd" clip-rule="evenodd" fill="#FD0C15" d="M398.9,294.4c-1.5,0.5-2.8,0.8-4.1,0.8c-2.9,0-4.5-1.7-4.5-5
		c0-0.6,0.1-1.3,0.2-2.1l0.4-2.2l0.3-1.8l2.5-15.4h5.6l-0.7,3.3h2.9l-0.8,5.5l-2.9,0l-1.5,9.4c-0.1,0.4-0.1,0.7-0.1,0.9
		c0,1.2,0.6,1.7,1.9,1.7c0.7,0,1.1-0.1,1.5-0.2L398.9,294.4L398.9,294.4L398.9,294.4z"/>
	<path fill-rule="evenodd" clip-rule="evenodd" fill="#FD0C15" d="M376.6,279.2c0,2.9,1.3,4.8,4.3,6.3c2.3,1.1,2.7,1.5,2.7,2.5
		c0,1.4-1,2.1-3.2,2.1c-1.7,0-3.2-0.3-5.1-0.9l-0.8,5.2l0.3,0.1l1,0.2c0.4,0.1,0.8,0.2,1.5,0.2c1.3,0.1,2.4,0.2,3.1,0.2
		c6,0,8.7-2.4,8.7-7.5c0-3.1-1.1-4.9-4-6.3c-2.4-1.1-2.6-1.4-2.6-2.5c0-1.2,0.9-1.8,2.8-1.8c1.1,0,2.6,0.2,4.1,0.4l0.8-5.2
		c-1.5-0.3-3.7-0.5-5-0.5C378.7,271.6,376.5,275,376.6,279.2L376.6,279.2L376.6,279.2z"/>
	<path fill-rule="evenodd" clip-rule="evenodd" fill="#FD0C15" d="M496.9,294.6h-5.4l0.3-2.2c-1.5,1.7-3.2,2.5-5.2,2.5
		c-4.2,0-6.9-3.7-6.9-9.4c0-7.5,4.2-13.9,9.2-13.9c2.2,0,3.8,1,5.4,3.1l1.2-8h5.6L496.9,294.6L496.9,294.6L496.9,294.6z
		 M488.5,289.4c2.7,0,4.5-3.1,4.5-7.6c0-2.9-1.1-4.5-3-4.5c-2.6,0-4.4,3.2-4.4,7.6C485.6,287.8,486.6,289.4,488.5,289.4L488.5,289.4
		L488.5,289.4z"/>
	<path fill-rule="evenodd" clip-rule="evenodd" fill="#FD0C15" d="M416.9,294.2c-1.9,0.6-3.8,0.9-5.8,0.9c-6.3,0-9.6-3.5-9.6-10.2
		c0-7.8,4.2-13.5,9.9-13.5c4.7,0,7.6,3.2,7.6,8.3c0,1.6-0.2,3.3-0.7,5.6h-11.3c-0.1,0.4-0.1,0.5-0.1,0.7c0,2.7,1.7,4,5,4
		c2,0,3.8-0.5,5.9-1.4L416.9,294.2L416.9,294.2L416.9,294.2z M413.7,280.7c0.1-0.5,0.1-0.9,0.1-1.1c0-1.8-1-2.9-2.7-2.9
		c-1.8,0-3.1,1.4-3.6,4.1H413.7L413.7,280.7L413.7,280.7z"/>
	<polygon fill-rule="evenodd" clip-rule="evenodd" fill="#FD0C15" points="353.8,294.6 348.2,294.6 351.4,273.3 344.1,294.6 
		340.3,294.6 339.8,273.4 336.4,294.6 331.1,294.6 335.5,266.8 343.6,266.8 343.9,284.1 349.4,266.8 358.2,266.8 353.8,294.6 	"/>
	<path fill-rule="evenodd" clip-rule="evenodd" fill="#FD0C15" d="M368.4,284.6c-0.6-0.1-0.9-0.1-1.3-0.1c-3.2,0-4.8,1.2-4.8,3.4
		c0,1.4,0.8,2.3,2.1,2.3C366.6,290.2,368.3,287.9,368.4,284.6L368.4,284.6L368.4,284.6z M372.5,294.6h-4.7l0.1-2.4
		c-1.4,1.9-3.3,2.7-6,2.7c-3.1,0-5.2-2.5-5.2-6.2c0-5.5,3.7-8.7,10-8.7c0.7,0,1.5,0.1,2.3,0.2c0.2-0.8,0.2-1.1,0.2-1.5
		c0-1.5-1-2.1-3.6-2.1c-1.6,0-3.4,0.3-4.7,0.7l-0.7,0.3l-0.5,0.2l0.8-5.1c2.8-0.9,4.7-1.2,6.8-1.2c4.9,0,7.4,2.3,7.4,6.6
		c0,1.1-0.1,1.9-0.5,4.5l-1.1,8.1l-0.2,1.4l-0.2,1.1l-0.1,0.8L372.5,294.6L372.5,294.6L372.5,294.6z"/>
	<path fill-rule="evenodd" clip-rule="evenodd" fill="#FD0C15" d="M461.5,284.6c-0.6-0.1-0.9-0.1-1.3-0.1c-3.2,0-4.9,1.2-4.9,3.4
		c0,1.4,0.8,2.3,2.1,2.3C459.7,290.2,461.4,287.9,461.5,284.6L461.5,284.6L461.5,284.6z M465.6,294.6h-4.7l0.1-2.4
		c-1.4,1.9-3.3,2.7-6,2.7c-3.1,0-5.2-2.5-5.2-6.2c0-5.5,3.7-8.7,10-8.7c0.6,0,1.5,0.1,2.3,0.2c0.2-0.8,0.2-1.1,0.2-1.5
		c0-1.5-1-2.1-3.6-2.1c-1.6,0-3.4,0.3-4.7,0.7l-0.8,0.2l-0.5,0.2l0.8-5.1c2.8-0.9,4.7-1.2,6.8-1.2c4.9,0,7.4,2.3,7.4,6.6
		c0,1.1-0.1,1.9-0.5,4.5l-1.2,8l-0.2,1.4l-0.2,1.1l-0.1,0.8L465.6,294.6L465.6,294.6L465.6,294.6z"/>
	<path fill-rule="evenodd" clip-rule="evenodd" fill="#FD0C15" d="M481.4,271.9c-0.2-0.1-0.4-0.1-0.6-0.1c-1.8,0-2.9,1-4.7,3.7
		l0.5-3.4h-5.1l-3.5,22.6h5.7c2.1-13.9,2.6-16.2,5.3-16.2c0.2,0,0.2,0,0.4,0c0.5-2.7,1.2-4.7,2.2-6.6L481.4,271.9L481.4,271.9
		L481.4,271.9z"/>
	<path fill-rule="evenodd" clip-rule="evenodd" fill="#F3AE12" d="M457.6,316.6c0,5.1-1.6,8.2-4.1,8.2c-1.8,0.1-2.9-2-2.9-5
		c0-3.6,1.6-7.7,4.2-7.7C456.9,312.1,457.6,314.3,457.6,316.6L457.6,316.6L457.6,316.6z M463.2,316.7c0-5.7-2.8-10.2-8.1-10.2
		c-6.1,0-10.1,5.4-10.1,13.3c0,5.7,2.4,10.4,8.1,10.4C459,330.2,463.2,326.1,463.2,316.7L463.2,316.7L463.2,316.7z"/>
	<path fill-rule="evenodd" clip-rule="evenodd" fill="#F3AE12" d="M446.9,302.6l-0.9,6.1c-1.9-1.1-3.2-1.5-4.7-1.5
		c-3.9,0-6.7,4.3-6.7,10.4c0,4.2,1.8,6.8,4.9,6.8c1.3,0,2.8-0.5,4.5-1.4l-0.9,6.4c-1.9,0.6-3.2,0.8-4.7,0.8c-5.7,0-9.3-4.6-9.3-12
		c0-10,4.9-16.9,12-16.9c0.9,0,1.7,0.1,2.4,0.3l2.2,0.6C446.2,302.3,446.4,302.3,446.9,302.6L446.9,302.6L446.9,302.6z"/>
	<path fill-rule="evenodd" clip-rule="evenodd" fill="#F3AE12" d="M411.8,306.7c-0.2-0.1-0.4-0.1-0.6-0.1c-1.7,0-2.7,1-4.4,3.7
		l0.5-3.4h-4.8l-3.2,22.6h5.3c1.9-13.9,2.4-16.2,4.9-16.2c0.2,0,0.2,0,0.4,0.1c0.5-2.7,1.1-4.7,2-6.6L411.8,306.7L411.8,306.7
		L411.8,306.7z"/>
	<path fill-rule="evenodd" clip-rule="evenodd" fill="#F3AE12" d="M481,329.3h-5l0.3-2.2c-1.4,1.7-3,2.5-4.9,2.5
		c-3.8,0-6.4-3.7-6.4-9.4c0-7.5,4-13.9,8.6-13.9c2.1,0,3.6,1,5.1,3.1l1.2-8h5.2L481,329.3L481,329.3L481,329.3z M473.1,324
		c2.5,0,4.2-3.1,4.2-7.6c0-2.9-1-4.4-2.8-4.4c-2.4,0-4.1,3.1-4.1,7.6C470.4,322.5,471.3,324,473.1,324L473.1,324L473.1,324z"/>
	<path fill-rule="evenodd" clip-rule="evenodd" fill="#F3AE12" d="M362.2,329.2c-1.8,0.6-3.5,0.9-5.4,0.9c-5.9,0-9-3.5-9-10.2
		c0-7.7,3.9-13.5,9.2-13.5c4.4,0,7.1,3.2,7.1,8.3c0,1.6-0.2,3.3-0.7,5.6h-10.5c-0.1,0.4-0.1,0.5-0.1,0.7c0,2.6,1.6,3.9,4.7,3.9
		c1.9,0,3.6-0.5,5.5-1.4L362.2,329.2L362.2,329.2L362.2,329.2z M359.2,315.7c0-0.5,0.1-0.9,0.1-1.1c0-1.8-0.9-2.9-2.5-2.9
		c-1.7,0-2.9,1.4-3.4,4.1H359.2L359.2,315.7L359.2,315.7z"/>
	<path fill-rule="evenodd" clip-rule="evenodd" fill="#F3AE12" d="M425.2,329.2c-1.8,0.6-3.5,0.9-5.4,0.9c-6,0-9-3.5-9-10.2
		c0-7.7,3.9-13.5,9.2-13.5c4.4,0,7.2,3.2,7.2,8.3c0,1.6-0.2,3.3-0.7,5.6h-10.5c-0.1,0.4-0.1,0.5-0.1,0.7c0,2.6,1.6,3.9,4.7,3.9
		c1.9,0,3.6-0.5,5.5-1.4L425.2,329.2L425.2,329.2L425.2,329.2z M422.2,315.7c0.1-0.5,0.1-0.9,0.1-1.1c0-1.8-0.9-2.9-2.5-2.9
		c-1.7,0-2.9,1.4-3.4,4.1H422.2L422.2,315.7L422.2,315.7z"/>
	<path fill-rule="evenodd" clip-rule="evenodd" fill="#F3AE12" d="M499,329.2c-1.8,0.6-3.6,0.9-5.4,0.9c-5.9,0-9-3.5-9-10.2
		c0-7.7,4-13.5,9.3-13.5c4.4,0,7.1,3.2,7.1,8.3c0,1.6-0.2,3.3-0.7,5.6h-10.5c-0.1,0.4-0.1,0.5-0.1,0.7c0,2.6,1.6,3.9,4.7,3.9
		c1.9,0,3.6-0.5,5.5-1.4L499,329.2L499,329.2L499,329.2z M496,315.7c0-0.5,0.1-0.9,0.1-1.1c0-1.8-0.9-2.9-2.5-2.9
		c-1.7,0-2.9,1.4-3.4,4.1H496L496,315.7L496,315.7z"/>
	<path fill-rule="evenodd" clip-rule="evenodd" fill="#F3AE12" d="M346.5,307.7c-1-0.7-2.5-1.3-4.4-1.3c-2.2,0-3.8,0.5-3.8,2.7
		c0,4,7.8,2.5,7.8,11.1c0,7.8-5.1,9.9-9.8,9.9c-2.1,0-4.5-0.7-6.2-1.5l1.3-5.7c1.1,1,3.2,1.6,5,1.6c1.7,0,4.3-0.5,4.3-3.4
		c0-4.6-7.8-2.9-7.8-10.9c0-7.3,4.6-9.5,9-9.5c2.5,0,4.8,0.4,6.2,1.3L346.5,307.7L346.5,307.7L346.5,307.7z"/>
	<path fill-rule="evenodd" clip-rule="evenodd" fill="#F3AE12" d="M377.7,329.2c-1.1,0.5-2.6,0.9-4.7,0.9c-4.6,0-7.5-4.6-7.5-10.3
		c0-7.4,4.2-13.2,10.3-13.2c1.3,0,3.4,0.6,5,1.5l-1.2,5.4c-1.1-0.8-2.3-1.2-3.5-1.2c-2.8,0-4.9,2.6-4.9,7.2c0,2.7,1.5,4.9,3.8,4.9
		c1.4,0,2.4-0.3,3.5-1L377.7,329.2L377.7,329.2L377.7,329.2z"/>
	<path fill-rule="evenodd" clip-rule="evenodd" fill="#F3AE12" d="M397.5,323.5c-0.3,1.9-0.5,3.8-0.7,5.8h-5.1l0.4-3.6h-0.1
		c-1.6,2.5-3.2,4.2-6.2,4.2c-3.2,0-4.9-3.4-4.9-7.7c0-1.5,0.1-2.4,0.4-4.7l1.4-10.5h5.7l-1.5,10.5c-0.2,1.1-0.4,2.3-0.4,3.4
		c0,1.3,0.6,2.7,2.2,2.6c2.3,0,3.7-2.8,4.1-6.2l1.6-10.4h5.5L397.5,323.5L397.5,323.5L397.5,323.5z"/>
	<polygon fill-rule="evenodd" clip-rule="evenodd" fill="#F3AE12" points="504.3,329.1 503.4,329.1 503.4,325.4 502.2,325.4 
		502.2,324.5 505.5,324.5 505.5,325.4 504.3,325.4 504.3,329.1 	"/>
	<polygon fill-rule="evenodd" clip-rule="evenodd" fill="#F3AE12" points="510,329.1 509.2,329.1 509.2,325.3 509.2,325.3 
		508.4,329.1 507.6,329.1 506.8,325.3 506.8,325.3 506.8,329.1 506,329.1 506,324.5 507.3,324.5 508,328.1 508.1,328.1 508.8,324.5 
		510,324.5 510,329.1 	"/>
</g>
</svg>
