<?xml version="1.0" encoding="utf-8"?>
<!-- Generator: Adobe Illustrator 22.1.0, SVG Export Plug-In . SVG Version: 6.00 Build 0)  -->
<svg version="1.1" id="Layer_1" xmlns="http://www.w3.org/2000/svg" xmlns:xlink="http://www.w3.org/1999/xlink" x="0px" y="0px"
	 viewBox="0 0 841.9 595.3" enable-background="new 0 0 841.9 595.3" xml:space="preserve">
<g>
	<polygon fill-rule="evenodd" clip-rule="evenodd" fill="#016FD0" points="330,208.3 510,208.3 510,305.4 510,331.8 510,388.3 
		330,388.3 330,296.7 330,284.1 330,208.3 	"/>
	<path fill-rule="evenodd" clip-rule="evenodd" fill="#FFFFFF" d="M364.9,333.7v-28.3h29.9l3.2,4.2l3.3-4.2H510v26.3
		c0,0-2.8,1.9-6.1,1.9h-60.1l-3.6-4.5v4.5h-11.9v-7.6c0,0-1.6,1.1-5.1,1.1h-4v6.5h-18l-3.2-4.3l-3.3,4.3L364.9,333.7L364.9,333.7z"
		/>
	<path fill-rule="evenodd" clip-rule="evenodd" fill="#FFFFFF" d="M330,284.1l6.7-15.7h11.7l3.8,8.8v-8.8h14.5l2.3,6.4l2.2-6.4h65.1
		v3.2c0,0,3.4-3.2,9-3.2l21.1,0.1l3.8,8.7v-8.8h12.1l3.3,5v-5H498v28.3h-12.3l-3.2-5v5h-17.8l-1.8-4.5h-4.8l-1.8,4.5h-12.1
		c-4.8,0-7.9-3.1-7.9-3.1v3.1h-18.2l-3.6-4.5v4.5h-67.8l-1.8-4.5h-4.8l-1.8,4.5H330V284.1L330,284.1z"/>
	<path fill-rule="evenodd" clip-rule="evenodd" fill="#016FD0" d="M339.1,271.9l-9.1,21.2h5.9l1.7-4.2h9.8l1.7,4.2h6.1l-9.1-21.2
		H339.1L339.1,271.9z M342.5,276.8l3,7.4h-6L342.5,276.8L342.5,276.8z"/>
	<polygon fill-rule="evenodd" clip-rule="evenodd" fill="#016FD0" points="355.8,293.1 355.8,271.9 364.2,271.9 369.1,285.6 
		373.9,271.9 382.2,271.9 382.2,293.1 376.9,293.1 376.9,277.5 371.3,293.1 366.7,293.1 361,277.5 361,293.1 355.8,293.1 	"/>
	<polygon fill-rule="evenodd" clip-rule="evenodd" fill="#016FD0" points="385.8,293.1 385.8,271.9 403.1,271.9 403.1,276.6 
		391.2,276.6 391.2,280.2 402.8,280.2 402.8,284.7 391.2,284.7 391.2,288.5 403.1,288.5 403.1,293.1 385.8,293.1 	"/>
	<path fill-rule="evenodd" clip-rule="evenodd" fill="#016FD0" d="M406.1,271.9v21.2h5.3v-7.5h2.2l6.3,7.5h6.5l-7-7.8
		c2.9-0.2,5.8-2.7,5.8-6.5c0-4.5-3.5-6.9-7.4-6.9H406.1L406.1,271.9z M411.4,276.6h6c1.5,0,2.5,1.1,2.5,2.2c0,1.4-1.4,2.2-2.4,2.2
		h-6.1L411.4,276.6L411.4,276.6L411.4,276.6z"/>
	<polygon fill-rule="evenodd" clip-rule="evenodd" fill="#016FD0" points="432.9,293.1 427.5,293.1 427.5,271.9 432.9,271.9 
		432.9,293.1 	"/>
	<path fill-rule="evenodd" clip-rule="evenodd" fill="#016FD0" d="M445.7,293.1h-1.2c-5.6,0-9.1-4.4-9.1-10.5
		c0-6.2,3.4-10.7,10.5-10.7h5.8v5h-6.1c-2.9,0-4.9,2.3-4.9,5.7c0,4.1,2.3,5.8,5.7,5.8h1.4L445.7,293.1L445.7,293.1z"/>
	<path fill-rule="evenodd" clip-rule="evenodd" fill="#016FD0" d="M457.2,271.9l-9.1,21.2h5.9l1.7-4.2h9.8l1.7,4.2h6.1l-9.1-21.2
		H457.2L457.2,271.9z M460.6,276.8l3,7.4h-6L460.6,276.8L460.6,276.8z"/>
	<polygon fill-rule="evenodd" clip-rule="evenodd" fill="#016FD0" points="473.8,293.1 473.8,271.9 480.5,271.9 489.1,285.2 
		489.1,271.9 494.4,271.9 494.4,293.1 487.9,293.1 479.1,279.4 479.1,293.1 473.8,293.1 	"/>
	<polygon fill-rule="evenodd" clip-rule="evenodd" fill="#016FD0" points="368.6,330.1 368.6,308.9 385.8,308.9 385.8,313.7 
		373.9,313.7 373.9,317.3 385.5,317.3 385.5,321.7 373.9,321.7 373.9,325.5 385.8,325.5 385.8,330.1 368.6,330.1 	"/>
	<polygon fill-rule="evenodd" clip-rule="evenodd" fill="#016FD0" points="453.1,330.1 453.1,308.9 470.4,308.9 470.4,313.7 
		458.5,313.7 458.5,317.3 470.1,317.3 470.1,321.7 458.5,321.7 458.5,325.5 470.4,325.5 470.4,330.1 453.1,330.1 	"/>
	<polygon fill-rule="evenodd" clip-rule="evenodd" fill="#016FD0" points="386.5,330.1 394.9,319.6 386.3,308.9 393,308.9 
		398.1,315.5 403.2,308.9 409.6,308.9 401.1,319.5 409.6,330.1 402.9,330.1 397.9,323.6 393.1,330.1 386.5,330.1 	"/>
	<path fill-rule="evenodd" clip-rule="evenodd" fill="#016FD0" d="M410.2,308.9v21.2h5.4v-6.7h5.6c4.7,0,8.3-2.5,8.3-7.4
		c0-4-2.8-7.1-7.6-7.1H410.2L410.2,308.9z M415.6,313.7h5.9c1.5,0,2.6,0.9,2.6,2.4c0,1.4-1.1,2.4-2.6,2.4h-5.8V313.7L415.6,313.7
		L415.6,313.7z"/>
	<path fill-rule="evenodd" clip-rule="evenodd" fill="#016FD0" d="M431.8,308.9v21.2h5.3v-7.5h2.2l6.3,7.5h6.5l-7-7.8
		c2.9-0.2,5.8-2.7,5.8-6.5c0-4.5-3.5-6.9-7.4-6.9L431.8,308.9L431.8,308.9L431.8,308.9z M437.1,313.7h6c1.5,0,2.5,1.1,2.5,2.2
		c0,1.4-1.4,2.2-2.4,2.2h-6.1V313.7L437.1,313.7z"/>
	<path fill-rule="evenodd" clip-rule="evenodd" fill="#016FD0" d="M472.9,330.1v-4.6h10.6c1.6,0,2.2-0.8,2.2-1.8
		c0-0.9-0.7-1.8-2.2-1.8h-4.8c-4.2,0-6.5-2.5-6.5-6.3c0-3.4,2.1-6.7,8.3-6.7h10.3l-2.2,4.8h-8.9c-1.7,0-2.2,0.9-2.2,1.7
		c0,0.9,0.6,1.8,1.9,1.8h5c4.6,0,6.6,2.6,6.6,6.1c0,3.7-2.2,6.7-6.9,6.7L472.9,330.1L472.9,330.1z"/>
	<path fill-rule="evenodd" clip-rule="evenodd" fill="#016FD0" d="M492.3,330.1v-4.6h10.1c1.6,0,2.2-0.8,2.2-1.8
		c0-0.9-0.7-1.8-2.2-1.8h-4.3c-4.2,0-6.5-2.5-6.5-6.3c0-3.4,2.1-6.7,8.3-6.7H510l-2.2,4.8h-8.7c-1.7,0-2.2,0.9-2.2,1.7
		c0,0.9,0.6,1.8,1.9,1.8h4.6c4.6,0,6.6,2.6,6.6,6.1c0,3.7-2.2,6.7-6.9,6.7L492.3,330.1L492.3,330.1z"/>
</g>
</svg>
