<?xml version="1.0" encoding="utf-8"?>
<!-- Generator: Adobe Illustrator 22.1.0, SVG Export Plug-In . SVG Version: 6.00 Build 0)  -->
<svg version="1.1" id="Page_1" xmlns="http://www.w3.org/2000/svg" xmlns:xlink="http://www.w3.org/1999/xlink" x="0px" y="0px"
	 viewBox="0 0 612 792" enable-background="new 0 0 612 792" xml:space="preserve">
<g id="Layer_1_1_">
	<polygon fill-rule="evenodd" clip-rule="evenodd" fill="#0058A0" points="301,375.1 308.8,375.1 304,405.2 296.3,405.2 301,375.1 	
		"/>
	<path fill-rule="evenodd" clip-rule="evenodd" fill="#0058A0" d="M274.1,375.1H286c7.6,0,9.5,4.4,8.7,9.6c-0.7,4.3-3.8,7.3-7.9,8.3
		l7.5,12.3h-9.8l-5.7-11.8l-1.9,11.8h-7.8L274.1,375.1L274.1,375.1z M280.9,381.1l-1.2,7.6h2.2c2.2,0,4.3-1.7,4.6-3.8l0,0
		c0.3-2.1-1.2-3.8-3.3-3.8H280.9L280.9,381.1z"/>
	<polygon fill-rule="evenodd" clip-rule="evenodd" fill="#0058A0" points="336.5,375.1 344.3,375.1 339.5,405.2 331.7,405.2 
		336.5,375.1 	"/>
	<polygon fill-rule="evenodd" clip-rule="evenodd" fill="#0058A0" points="350.2,375.1 367.3,375.1 366.2,381.7 356.9,381.7 
		356.1,386.8 364.9,386.8 363.9,393.4 355.1,393.4 354.2,398.7 363.5,398.7 362.5,405.2 345.4,405.2 350.2,375.1 	"/>
	<polygon fill-rule="evenodd" clip-rule="evenodd" fill="#0058A0" points="252.4,375.1 269.5,375.1 268.5,381.7 259.2,381.7 
		258.3,386.8 267.2,386.8 266.1,393.4 257.3,393.4 256.5,398.7 265.7,398.7 264.7,405.2 247.6,405.2 252.4,375.1 	"/>
	<polygon fill-rule="evenodd" clip-rule="evenodd" fill="#0058A0" points="314.7,375.1 331.9,375.1 330.9,381.7 321.4,381.7 
		320.6,386.8 329.2,386.8 328.2,393.4 319.6,393.4 317.7,405.2 309.9,405.2 314.7,375.1 	"/>
	<path fill-rule="evenodd" clip-rule="evenodd" fill="#0058A0" d="M371.8,375.1H382c12.1,0,14.8,9.1,13.9,15.1
		c-1.4,8.5-8.9,15.1-18.7,15.1H367L371.8,375.1L371.8,375.1z M378.6,381.7c0.6,0,1.1,0,1.6,0c5.9,0,8.3,4.2,7.6,8.2
		c-0.9,5.4-4.8,8.8-9.9,8.8c-0.7,0-1.3,0-2.1,0L378.6,381.7L378.6,381.7z"/>
	<path fill-rule="evenodd" clip-rule="evenodd" fill="#0058A0" d="M216,371h14.4l1.7,21.9c9.5-16.5,19.2-32.3,28.9-47.9h4.7
		c-10.3,19.9-20.5,39.9-30.3,60.2h-10.6l-2.6-24.2c-0.6-6-1.9-8.5-6.2-9.2V371L216,371z"/>
	<polygon fill-rule="evenodd" clip-rule="evenodd" fill="#FAA61A" points="221.4,358.5 233.7,363.7 234.8,377.4 235.7,377.4 
		246.8,358.5 246.8,357.6 221.4,357.6 221.4,358.5 	"/>
	<path fill-rule="evenodd" clip-rule="evenodd" fill="#0058A0" d="M278.1,426.8c1.9,0,3.1,1.7,2.8,3.8c-0.3,2.1-2.1,3.8-3.9,3.8
		c-1.9,0-3.1-1.7-2.8-3.8C274.5,428.5,276.3,426.8,278.1,426.8L278.1,426.8z M271.8,412.3h5l-1.7,11.9c1.4-1.4,3.2-2.2,5.2-2.2
		c4,0,6.7,3.9,6,8.7c-0.7,4.8-4.5,8.7-8.6,8.7c-2,0-3.4-0.9-4.4-2.4l-0.3,1.9h-5L271.8,412.3L271.8,412.3z"/>
	<polygon fill-rule="evenodd" clip-rule="evenodd" fill="#0058A0" points="286.7,422.4 292.8,422.4 295.5,430.8 300.7,422.4 
		306.5,422.4 291.2,447 285.4,447 291.8,436.6 286.7,422.4 	"/>
	<polygon fill-rule="evenodd" clip-rule="evenodd" fill="#0058A0" points="334.1,438.8 342.2,412.3 349.4,412.3 341.3,438.8 
		334.1,438.8 	"/>
	<path fill-rule="evenodd" clip-rule="evenodd" fill="#0058A0" d="M330.8,412.3l-9.6,17.2h-0.1l-0.7-17.2H308l-0.1,1.2
		c4.1,0,4.9,0.6,5.4,3.8l2.4,21.5h7.5l15.2-26.5H330.8L330.8,412.3z"/>
	<path fill-rule="evenodd" clip-rule="evenodd" fill="#0058A0" d="M377.8,435l-1.8,3.8h-7.9l14.2-26.5h9.6l2.4,26.5h-5.4l0,0h-2.2
		l-0.2-3.8H377.8L377.8,435z M380.3,429.9h6.1l-0.6-12.4L380.3,429.9L380.3,429.9z"/>
	<path fill-rule="evenodd" clip-rule="evenodd" fill="#0058A0" d="M357,439.6c-5.1,0-8.5-1.6-10.9-3l3.4-5.2
		c2.2,1.2,3.9,2.6,7.8,2.6c1.3,0,2.5-0.3,3.2-1.5c1-1.7-0.2-2.7-3.1-4.2l-1.4-0.9c-4.2-2.8-6-5.5-4-10.2c1.3-3,4.6-5.3,10.1-5.3
		c3.8,0,7.3,1.6,9.4,3.2l-4,4.6c-2-1.6-3.7-2.4-5.6-2.4c-1.5,0-2.7,0.6-3.1,1.4c-0.8,1.5,0.2,2.5,2.4,3.8l1.7,1
		c5.1,3.2,6.3,6.5,5,9.6C365.8,438.4,361.5,439.6,357,439.6L357,439.6z"/>
</g>
</svg>
