<?xml version="1.0" encoding="utf-8"?>
<!-- Generator: Adobe Illustrator 22.1.0, SVG Export Plug-In . SVG Version: 6.00 Build 0)  -->
<svg version="1.1" id="Layer_1" xmlns="http://www.w3.org/2000/svg" xmlns:xlink="http://www.w3.org/1999/xlink" x="0px" y="0px"
	 viewBox="0 0 192.8 192.8" enable-background="new 0 0 192.8 192.8" xml:space="preserve">
<g>
	<polygon fill="#0058A0" points="70,122.2 78.9,70 93.2,70 84.3,122.2 	"/>
	<path fill="#0058A0" d="M135.9,71.3c-2.8-1.1-7.2-2.2-12.8-2.2c-14.1,0-24,7.1-24,17.2c-0.1,7.5,7.1,11.7,12.5,14.2
		c5.5,2.6,7.4,4.2,7.4,6.5c0,3.5-4.4,5.1-8.5,5.1c-5.7,0-8.7-0.8-13.4-2.7l-1.8-0.8l-2,11.7c3.3,1.5,9.5,2.7,15.9,2.8
		c15,0,24.7-7,24.8-17.8c0.1-5.9-3.7-10.5-11.9-14.2c-5-2.4-8-4-8-6.5c0-2.2,2.6-4.5,8.1-4.5c4.7-0.1,8,0.9,10.6,2l1.3,0.6
		L135.9,71.3"/>
	<path fill="#0058A0" d="M172.4,70h-11c-3.4,0-6,0.9-7.5,4.3l-21.1,47.8h14.9c0,0,2.4-6.4,3-7.8c1.6,0,16.1,0,18.2,0
		c0.4,1.8,1.7,7.8,1.7,7.8h13.2L172.4,70 M154.8,103.7c1.2-3,5.7-14.6,5.7-14.6c-0.1,0.1,1.2-3,1.9-5l1,4.5c0,0,2.7,12.5,3.3,15.1
		H154.8z"/>
	<path fill="#0058A0" d="M58.1,70l-13.9,35.6l-1.5-7.2C40.1,90,32,81,23,76.5l12.7,45.7l15.1,0L73.2,70H58.1"/>
	<path fill="#FAA61A" d="M31.3,70H8.3l-0.2,1.1C26,75.4,37.8,85.8,42.7,98.4l-5-24C36.8,71.1,34.3,70.1,31.3,70"/>
</g>
</svg>
