<?xml version="1.0" standalone="no"?>
<!DOCTYPE svg PUBLIC "-//W3C//DTD SVG 20010904//EN"
 "http://www.w3.org/TR/2001/REC-SVG-20010904/DTD/svg10.dtd">
<svg version="1.0" xmlns="http://www.w3.org/2000/svg"
 width="80.000000pt" height="80.000000pt" viewBox="0 0 80.000000 80.000000"
 preserveAspectRatio="xMidYMid meet">
<metadata>
Created by potrace 1.11, written by Peter Selinger 2001-2013
</metadata>
<g transform="translate(0.000000,80.000000) scale(0.100000,-0.100000)"
fill="#000000" stroke="none">
<path d="M0 710 c0 -26 33 -91 62 -123 13 -13 72 -51 132 -83 81 -44 121 -73
158 -114 l48 -54 -6 33 c-10 50 -51 117 -92 151 -20 17 -78 51 -128 76 -90 46
-154 92 -154 112 0 6 -4 14 -10 17 -5 3 -10 -3 -10 -15z"/>
<path d="M478 608 c-20 -5 -58 -29 -84 -53 -46 -42 -47 -44 -34 -74 19 -46 28
-43 83 32 43 56 108 77 161 50 35 -18 32 2 -5 29 -31 22 -74 28 -121 16z"/>
<path d="M521 521 c-18 -12 -9 -45 13 -49 17 -4 35 12 36 30 0 13 -36 27 -49
19z"/>
<path d="M60 507 c0 -8 18 -35 40 -60 31 -35 57 -52 113 -73 39 -15 84 -36
100 -47 22 -15 27 -16 27 -4 0 24 -70 80 -150 121 -41 21 -87 47 -102 58 -22
15 -28 16 -28 5z"/>
<path d="M619 482 c-57 -155 -178 -256 -329 -278 -139 -20 -223 -47 -272 -87
-28 -22 -23 -43 5 -24 31 20 87 35 162 42 289 29 365 74 430 250 24 64 30 72
66 80 36 8 37 21 2 30 -50 14 -54 14 -64 -13z"/>
<path d="M116 362 c-7 -12 47 -68 73 -77 13 -4 41 -8 62 -10 58 -4 49 20 -13
40 -29 10 -67 26 -85 36 -18 10 -34 15 -37 11z"/>
</g>
</svg>
